<svg width="200" height="200" viewBox="0 0 200 200" fill="none" xmlns="http://www.w3.org/2000/svg">
<path d="M100 200C155.228 200 200 155.228 200 100C200 44.7715 155.228 0 100 0C44.7715 0 0 44.7715 0 100C0 155.228 44.7715 200 100 200Z" fill="#324055"/>
<rect x="45" y="136.5" width="82.5" height="110" rx="20" transform="rotate(-90 45 136.5)" fill="#F9F7F2"/>
<path d="M110.31 106.398C113.071 106.398 115.31 108.637 115.31 111.398V152.61C115.31 157.265 109.508 159.394 106.497 155.845L103.598 152.429C101.573 150.042 97.8777 150.082 95.9045 152.512L93.6451 155.294C90.6772 158.949 84.7637 156.85 84.7637 152.142V111.398C84.7637 108.637 87.0022 106.398 89.7637 106.398L110.31 106.398Z" fill="#BDCECF"/>
<rect x="79.3579" y="121.466" width="40.9122" height="40.9122" rx="20.4561" transform="rotate(-90 79.3579 121.466)" fill="#F9F7F2" stroke="#F0C4C4" stroke-width="10"/>
</svg>
