<svg width="35" height="41" viewBox="0 0 35 41" fill="none" xmlns="http://www.w3.org/2000/svg">
<g clip-path="url(#clip0_3253_8405)">
<path d="M17.5078 11.5156C12.5391 11.5156 8.53125 15.5234 8.53125 20.4922C8.53125 25.4609 12.5391 29.4687 17.5078 29.4687C22.4766 29.4687 26.4844 25.4609 26.4844 20.4922C26.4844 15.5234 22.4766 11.5156 17.5078 11.5156ZM17.5078 26.3281C14.2969 26.3281 11.6719 23.7109 11.6719 20.4922C11.6719 17.2734 14.2891 14.6562 17.5078 14.6562C20.7266 14.6562 23.3438 17.2734 23.3438 20.4922C23.3438 23.7109 20.7188 26.3281 17.5078 26.3281ZM28.9453 11.1484C28.9453 12.3125 28.0078 13.2422 26.8516 13.2422C25.6875 13.2422 24.7578 12.3047 24.7578 11.1484C24.7578 9.99219 25.6953 9.05469 26.8516 9.05469C28.0078 9.05469 28.9453 9.99219 28.9453 11.1484ZM34.8906 13.2734C34.7578 10.4688 34.1172 7.98438 32.0625 5.9375C30.0156 3.89062 27.5313 3.25 24.7266 3.10937C21.8359 2.94531 13.1719 2.94531 10.2812 3.10937C7.48438 3.24219 5 3.88281 2.94531 5.92969C0.890625 7.97656 0.257812 10.4609 0.117187 13.2656C-0.046875 16.1562 -0.046875 24.8203 0.117187 27.7109C0.25 30.5156 0.890625 33 2.94531 35.0469C5 37.0938 7.47656 37.7344 10.2812 37.875C13.1719 38.0391 21.8359 38.0391 24.7266 37.875C27.5313 37.7422 30.0156 37.1016 32.0625 35.0469C34.1094 33 34.75 30.5156 34.8906 27.7109C35.0547 24.8203 35.0547 16.1641 34.8906 13.2734ZM31.1562 30.8125C30.5469 32.3438 29.3672 33.5234 27.8281 34.1406C25.5234 35.0547 20.0547 34.8438 17.5078 34.8438C14.9609 34.8438 9.48438 35.0469 7.1875 34.1406C5.65625 33.5312 4.47656 32.3516 3.85938 30.8125C2.94531 28.5078 3.15625 23.0391 3.15625 20.4922C3.15625 17.9453 2.95313 12.4688 3.85938 10.1719C4.46875 8.64062 5.64844 7.46094 7.1875 6.84375C9.49219 5.92969 14.9609 6.14062 17.5078 6.14062C20.0547 6.14062 25.5313 5.9375 27.8281 6.84375C29.3594 7.45312 30.5391 8.63281 31.1562 10.1719C32.0703 12.4766 31.8594 17.9453 31.8594 20.4922C31.8594 23.0391 32.0703 28.5156 31.1562 30.8125Z" fill="#324055"/>
</g>
<defs>
<clipPath id="clip0_3253_8405">
<rect width="35" height="40" fill="white" transform="translate(0 0.5)"/>
</clipPath>
</defs>
</svg>
