<svg width="18" height="18" viewBox="0 0 18 18" fill="none" xmlns="http://www.w3.org/2000/svg">
<path d="M8.75488 4.50781C6.27051 4.50781 4.2666 6.51172 4.2666 8.99609C4.2666 11.4805 6.27051 13.4844 8.75488 13.4844C11.2393 13.4844 13.2432 11.4805 13.2432 8.99609C13.2432 6.51172 11.2393 4.50781 8.75488 4.50781ZM8.75488 11.9141C7.14941 11.9141 5.83691 10.6055 5.83691 8.99609C5.83691 7.38672 7.14551 6.07812 8.75488 6.07812C10.3643 6.07812 11.6729 7.38672 11.6729 8.99609C11.6729 10.6055 10.3604 11.9141 8.75488 11.9141ZM14.4736 4.32422C14.4736 4.90625 14.0049 5.37109 13.4268 5.37109C12.8447 5.37109 12.3799 4.90234 12.3799 4.32422C12.3799 3.74609 12.8486 3.27734 13.4268 3.27734C14.0049 3.27734 14.4736 3.74609 14.4736 4.32422ZM17.4463 5.38672C17.3799 3.98438 17.0596 2.74219 16.0322 1.71875C15.0088 0.695312 13.7666 0.375 12.3643 0.304687C10.9189 0.222656 6.58691 0.222656 5.1416 0.304687C3.74316 0.371094 2.50098 0.691406 1.47363 1.71484C0.446289 2.73828 0.129883 3.98047 0.0595703 5.38281C-0.0224609 6.82812 -0.0224609 11.1602 0.0595703 12.6055C0.125977 14.0078 0.446289 15.25 1.47363 16.2734C2.50098 17.2969 3.73926 17.6172 5.1416 17.6875C6.58691 17.7695 10.9189 17.7695 12.3643 17.6875C13.7666 17.6211 15.0088 17.3008 16.0322 16.2734C17.0557 15.25 17.376 14.0078 17.4463 12.6055C17.5283 11.1602 17.5283 6.83203 17.4463 5.38672ZM15.5791 14.1562C15.2744 14.9219 14.6846 15.5117 13.915 15.8203C12.7627 16.2773 10.0283 16.1719 8.75488 16.1719C7.48145 16.1719 4.74316 16.2734 3.59473 15.8203C2.8291 15.5156 2.23926 14.9258 1.93066 14.1562C1.47363 13.0039 1.5791 10.2695 1.5791 8.99609C1.5791 7.72266 1.47754 4.98438 1.93066 3.83594C2.23535 3.07031 2.8252 2.48047 3.59473 2.17187C4.74707 1.71484 7.48145 1.82031 8.75488 1.82031C10.0283 1.82031 12.7666 1.71875 13.915 2.17187C14.6807 2.47656 15.2705 3.06641 15.5791 3.83594C16.0361 4.98828 15.9307 7.72266 15.9307 8.99609C15.9307 10.2695 16.0361 13.0078 15.5791 14.1562Z" fill="#F9F7F2"/>
</svg>
