<svg width="36" height="36" viewBox="0 0 36 36" fill="none" xmlns="http://www.w3.org/2000/svg">
<path d="M17.9077 9.11572C12.939 9.11572 8.93115 13.1235 8.93115 18.0923C8.93115 23.061 12.939 27.0688 17.9077 27.0688C22.8765 27.0688 26.8843 23.061 26.8843 18.0923C26.8843 13.1235 22.8765 9.11572 17.9077 9.11572ZM17.9077 23.9282C14.6968 23.9282 12.0718 21.311 12.0718 18.0923C12.0718 14.8735 14.689 12.2563 17.9077 12.2563C21.1265 12.2563 23.7437 14.8735 23.7437 18.0923C23.7437 21.311 21.1187 23.9282 17.9077 23.9282ZM29.3452 8.74854C29.3452 9.9126 28.4077 10.8423 27.2515 10.8423C26.0874 10.8423 25.1577 9.90479 25.1577 8.74854C25.1577 7.59229 26.0952 6.65478 27.2515 6.65478C28.4077 6.65478 29.3452 7.59229 29.3452 8.74854ZM35.2905 10.8735C35.1577 8.06885 34.5171 5.58447 32.4624 3.5376C30.4155 1.49072 27.9312 0.850098 25.1265 0.709473C22.2358 0.54541 13.5718 0.54541 10.6812 0.709473C7.88428 0.842285 5.3999 1.48291 3.34521 3.52979C1.29053 5.57666 0.657715 8.06103 0.51709 10.8657C0.353027 13.7563 0.353027 22.4204 0.51709 25.311C0.649902 28.1157 1.29053 30.6001 3.34521 32.647C5.3999 34.6938 7.87646 35.3345 10.6812 35.4751C13.5718 35.6392 22.2358 35.6392 25.1265 35.4751C27.9312 35.3423 30.4155 34.7017 32.4624 32.647C34.5093 30.6001 35.1499 28.1157 35.2905 25.311C35.4546 22.4204 35.4546 13.7642 35.2905 10.8735ZM31.5562 28.4126C30.9468 29.9438 29.7671 31.1235 28.228 31.7407C25.9233 32.6548 20.4546 32.4438 17.9077 32.4438C15.3608 32.4438 9.88428 32.647 7.5874 31.7407C6.05615 31.1313 4.87646 29.9517 4.25928 28.4126C3.34522 26.1079 3.55615 20.6392 3.55615 18.0923C3.55615 15.5454 3.35303 10.0688 4.25928 7.77197C4.86865 6.24072 6.04834 5.06103 7.5874 4.44385C9.89209 3.52978 15.3608 3.74072 17.9077 3.74072C20.4546 3.74072 25.9312 3.5376 28.228 4.44385C29.7593 5.05322 30.939 6.23291 31.5562 7.77197C32.4702 10.0767 32.2593 15.5454 32.2593 18.0923C32.2593 20.6392 32.4702 26.1157 31.5562 28.4126Z" fill="#324055"/>
</svg>
