<svg width="20" height="23" viewBox="0 0 20 23" fill="none" xmlns="http://www.w3.org/2000/svg">
<path d="M18.5714 1.4165H1.42411C0.638393 1.4165 0 2.05843 0 2.84645V19.8199C0 20.6079 0.638393 21.2498 1.42411 21.2498H18.5714C19.3571 21.2498 20 20.6079 20 19.8199V2.84645C20 2.05843 19.3571 1.4165 18.5714 1.4165ZM6.04464 18.4165H3.08036V8.9514H6.04911V18.4165H6.04464ZM4.5625 7.65869C3.61161 7.65869 2.84375 6.89281 2.84375 5.95426C2.84375 5.01572 3.61161 4.24984 4.5625 4.24984C5.50893 4.24984 6.28125 5.01572 6.28125 5.95426C6.28125 6.89723 5.51339 7.65869 4.5625 7.65869ZM17.1562 18.4165H14.192V13.8123C14.192 12.7144 14.1696 11.3022 12.6518 11.3022C11.1071 11.3022 10.8705 12.4975 10.8705 13.7326V18.4165H7.90625V8.9514H10.75V10.2441H10.7902C11.1875 9.50036 12.1563 8.71676 13.5982 8.71676C16.5982 8.71676 17.1562 10.678 17.1562 13.228V18.4165Z" fill="white"/>
</svg>
