<svg width="237" height="71" viewBox="0 0 237 71" fill="none" xmlns="http://www.w3.org/2000/svg">
<path d="M1.33066 67.1322C-0.136564 61.5568 -0.624098 56.0253 1.07881 50.5076C3.52572 42.5799 9.29064 37.9934 16.8093 35.26C21.6338 33.5063 26.6871 32.961 31.7496 32.5427C35.3102 32.2493 38.5404 31.161 41.5672 29.2709C42.2928 28.8181 43.7923 28.4414 44.1366 28.7996C44.7674 29.4558 45.1487 30.7289 45.0262 31.6647C44.6218 34.7563 42.7087 36.9005 39.9383 38.1505C38.1753 38.9477 36.2483 39.3682 34.4114 40.0059C33.1082 40.4565 31.7657 40.8632 30.555 41.5055C28.2051 42.7579 27.7846 44.8397 29.7555 46.6212C31.2782 47.9983 33.1336 49.2136 35.0537 49.8999C40.3334 51.783 45.8072 52.9776 51.445 53.0908C56.5653 53.1925 61.5261 52.0811 66.4638 50.8495C68.0951 50.4429 69.7749 50.1864 71.4478 49.9923C72.6193 49.856 73.8138 50.399 73.934 51.5427C74.0056 52.2197 73.1669 53.3265 72.4529 53.7031C63.2383 58.5785 53.5153 61.6816 42.9698 60.9145C39.0117 60.6256 35.1184 59.4611 31.1927 58.7125C26.5369 57.8252 21.8649 57.2268 17.1282 58.0262C11.3332 59.0036 6.59649 61.8918 2.583 66.0856C2.26414 66.4183 1.94066 66.7441 1.61717 67.0676C1.58714 67.093 1.52244 67.0883 1.33066 67.1322Z" fill="#86A3B8"/>
<path d="M45.1602 50.6485C47.7342 48.7261 49.8137 46.947 52.1173 45.5398C53.5499 44.6641 55.3013 44.2575 56.9626 43.8485C57.4317 43.733 58.2866 44.2251 58.5754 44.6849C58.7626 44.9807 58.4021 45.9003 58.0209 46.2353C56.1308 47.8874 54.1622 49.4494 52.1936 51.0067C51.9417 51.2054 51.5143 51.2932 51.1839 51.2655C49.3007 51.1014 47.4222 50.8865 45.1602 50.6485Z" fill="#86A3B8"/>
<path d="M53.3512 51.4041C56.3457 49.3754 58.9729 47.4414 61.7617 45.7778C62.984 45.05 64.516 44.7357 65.9508 44.5185C66.5377 44.4284 67.3626 44.976 67.8201 45.4728C67.9772 45.6461 67.4596 46.6373 67.0622 47.0902C64.5599 49.9276 61.2442 50.9073 57.6027 51.0991C56.2926 51.1684 54.9871 51.2839 53.3512 51.4041Z" fill="#86A3B8"/>
<path d="M39.1504 48.8994C41.1098 47.4807 42.9351 46.1105 44.8183 44.8258C45.4375 44.403 46.2 43.9917 46.9163 43.9524C47.9052 43.897 49.3655 43.8438 49.8184 44.4215C50.6433 45.4751 49.1899 46.0944 48.566 46.8037C48.1316 47.2982 47.4847 47.6055 47.0642 48.1069C44.7559 50.8449 42.0964 50.1656 39.1504 48.8994Z" fill="#86A3B8"/>
<path d="M58.9784 25.3281C58.4846 25.8068 57.9969 26.2793 57.5092 26.7519C56.7519 27.488 55.9945 28.2272 55.2372 28.9633C54.8252 29.3632 54.5526 29.3329 54.2466 28.8542C52.3321 25.8673 50.4176 22.8835 48.5091 19.8936C48.4092 19.736 48.3001 19.6724 48.1184 19.6512C45.8888 19.4028 43.6623 19.1423 41.4327 18.8878C41.1116 18.8515 40.9329 18.7061 40.8995 18.4637C40.8632 18.1972 40.9844 18.0245 41.3055 17.8912C46.8279 15.6101 52.3533 13.3291 57.8788 11.048C63.4708 8.73667 69.0599 6.42531 74.652 4.11396C74.6944 4.09578 74.7368 4.0776 74.7792 4.05943C74.9913 3.96855 75.1942 3.97158 75.3669 4.14122C75.5486 4.31995 75.5396 4.532 75.4426 4.75314C75.0155 5.71949 74.5884 6.6828 74.1643 7.64915C71.038 14.7286 67.9118 21.8081 64.7886 28.8876C64.7734 28.9209 64.7583 28.9542 64.7431 28.9875C64.5069 29.5116 64.2282 29.5843 63.7889 29.2268C62.9983 28.5846 62.2076 27.9394 61.4139 27.2972C60.6718 26.6943 59.9326 26.0915 59.1904 25.4887C59.1268 25.4342 59.0602 25.3887 58.9784 25.3281ZM56.2975 21.8808C58.8845 23.9831 61.4473 26.0673 64.0373 28.1696C67.2362 20.9235 70.4231 13.7077 73.6099 6.49499C73.5917 6.48287 73.5705 6.46772 73.5523 6.4556C67.8118 11.5872 62.0713 16.7189 56.2975 21.8808ZM49.3452 19.3998C51.0356 22.0383 52.7108 24.6496 54.4223 27.3214C54.4496 27.1548 54.4678 27.0579 54.4799 26.9609C54.6616 25.3615 54.8525 23.765 55.0191 22.1655C55.0554 21.8111 55.1887 21.5597 55.4553 21.3204C60.4234 16.8915 65.3823 12.4536 70.3413 8.01872C70.6382 7.75214 70.935 7.48859 71.2319 7.22202C71.2228 7.20687 71.2107 7.19475 71.2016 7.17961C63.9252 11.248 56.6489 15.3163 49.3452 19.3998ZM43.4108 18.073C43.4139 18.0911 43.4139 18.1093 43.4169 18.1275C43.4593 18.1335 43.4987 18.1457 43.5411 18.1487C45.1587 18.3365 46.7733 18.5274 48.391 18.7061C48.5061 18.7182 48.6424 18.6758 48.7484 18.6152C54.8282 15.2194 60.9081 11.8205 66.9879 8.42162C67.0394 8.39133 67.0878 8.35194 67.1363 8.31862C67.1302 8.3065 67.1211 8.29439 67.1151 8.27924C59.2116 11.5448 51.3112 14.8074 43.4108 18.073ZM58.2241 24.7011C57.4577 24.077 56.7125 23.4742 55.9309 22.838C55.7522 24.389 55.5795 25.8795 55.4008 27.4486C56.3702 26.5065 57.282 25.6189 58.2241 24.7011Z" fill="#FF8BA7" fill-opacity="0.8"/>
<path d="M56.2976 21.8806C62.0714 16.7187 67.812 11.5871 73.5495 6.45544C73.5676 6.46756 73.5888 6.48271 73.607 6.49483C70.4202 13.7106 67.2334 20.9264 64.0344 28.1695C61.4474 26.0671 58.8846 23.983 56.2976 21.8806Z" fill="#FF8BA7" fill-opacity="0.5"/>
<path d="M49.3453 19.3996C56.649 15.3161 63.9253 11.2478 71.1987 7.17944C71.2078 7.19459 71.2199 7.20671 71.229 7.22185C70.9321 7.48843 70.6352 7.75501 70.3384 8.01856C65.3764 12.4535 60.4174 16.8914 55.4524 21.3202C55.1858 21.5565 55.0525 21.811 55.0162 22.1654C54.8496 23.7648 54.6587 25.3613 54.477 26.9608C54.4649 27.0577 54.4467 27.1546 54.4194 27.3212C52.7109 24.6494 51.0387 22.0381 49.3453 19.3996Z" fill="#FF8BA7" fill-opacity="0.5"/>
<path d="M43.411 18.0728C51.3114 14.8073 59.2118 11.5447 67.1153 8.27911C67.1213 8.29123 67.1304 8.30335 67.1365 8.31849C67.088 8.35181 67.0395 8.3912 66.988 8.42149C60.9082 11.8204 54.8315 15.2192 48.7486 18.6151C48.6456 18.6726 48.5063 18.7181 48.3912 18.706C46.7735 18.5272 45.1589 18.3364 43.5413 18.1486C43.4989 18.1425 43.4595 18.1334 43.4171 18.1274C43.414 18.1062 43.411 18.091 43.411 18.0728Z" fill="#FF8BA7" fill-opacity="0.5"/>
<path d="M58.224 24.701C57.2819 25.6158 56.3701 26.5034 55.3977 27.4485C55.5795 25.8794 55.7491 24.389 55.9278 22.838C56.7124 23.4741 57.4576 24.08 58.224 24.701Z" fill="#FF8BA7" fill-opacity="0.5"/>
<path d="M104.991 46.505C103.451 46.505 102.071 46.255 100.851 45.755C99.6307 45.255 98.6507 44.515 97.9107 43.535C97.1907 42.555 96.8107 41.375 96.7707 39.995H102.231C102.311 40.775 102.581 41.375 103.041 41.795C103.501 42.195 104.101 42.395 104.841 42.395C105.601 42.395 106.201 42.225 106.641 41.885C107.081 41.525 107.301 41.035 107.301 40.415C107.301 39.895 107.121 39.465 106.761 39.125C106.421 38.785 105.991 38.505 105.471 38.285C104.971 38.065 104.251 37.815 103.311 37.535C101.951 37.115 100.841 36.695 99.9807 36.275C99.1207 35.855 98.3807 35.235 97.7607 34.415C97.1407 33.595 96.8307 32.525 96.8307 31.205C96.8307 29.245 97.5407 27.715 98.9607 26.615C100.381 25.495 102.231 24.935 104.511 24.935C106.831 24.935 108.701 25.495 110.121 26.615C111.541 27.715 112.301 29.255 112.401 31.235H106.851C106.811 30.555 106.561 30.025 106.101 29.645C105.641 29.245 105.051 29.045 104.331 29.045C103.711 29.045 103.211 29.215 102.831 29.555C102.451 29.875 102.261 30.345 102.261 30.965C102.261 31.645 102.581 32.175 103.221 32.555C103.861 32.935 104.861 33.345 106.221 33.785C107.581 34.245 108.681 34.685 109.521 35.105C110.381 35.525 111.121 36.135 111.741 36.935C112.361 37.735 112.671 38.765 112.671 40.025C112.671 41.225 112.361 42.315 111.741 43.295C111.141 44.275 110.261 45.055 109.101 45.635C107.941 46.215 106.571 46.505 104.991 46.505ZM125.158 41.945V46.295H122.548C120.688 46.295 119.238 45.845 118.198 44.945C117.158 44.025 116.638 42.535 116.638 40.475V33.815H114.598V29.555H116.638V25.475H121.768V29.555H125.128V33.815H121.768V40.535C121.768 41.035 121.888 41.395 122.128 41.615C122.368 41.835 122.768 41.945 123.328 41.945H125.158ZM135.635 46.535C133.995 46.535 132.515 46.185 131.195 45.485C129.895 44.785 128.865 43.785 128.105 42.485C127.365 41.185 126.995 39.665 126.995 37.925C126.995 36.205 127.375 34.695 128.135 33.395C128.895 32.075 129.935 31.065 131.255 30.365C132.575 29.665 134.055 29.315 135.695 29.315C137.335 29.315 138.815 29.665 140.135 30.365C141.455 31.065 142.495 32.075 143.255 33.395C144.015 34.695 144.395 36.205 144.395 37.925C144.395 39.645 144.005 41.165 143.225 42.485C142.465 43.785 141.415 44.785 140.075 45.485C138.755 46.185 137.275 46.535 135.635 46.535ZM135.635 42.095C136.615 42.095 137.445 41.735 138.125 41.015C138.825 40.295 139.175 39.265 139.175 37.925C139.175 36.585 138.835 35.555 138.155 34.835C137.495 34.115 136.675 33.755 135.695 33.755C134.695 33.755 133.865 34.115 133.205 34.835C132.545 35.535 132.215 36.565 132.215 37.925C132.215 39.265 132.535 40.295 133.175 41.015C133.835 41.735 134.655 42.095 135.635 42.095ZM152.247 32.345C152.847 31.425 153.597 30.705 154.497 30.185C155.397 29.645 156.397 29.375 157.497 29.375V34.805H156.087C154.807 34.805 153.847 35.085 153.207 35.645C152.567 36.185 152.247 37.145 152.247 38.525V46.295H147.117V29.555H152.247V32.345ZM177.049 29.555L166.549 54.245H161.029L164.869 45.725L158.059 29.555H163.789L167.659 40.025L171.499 29.555H177.049ZM185.264 29.315C186.444 29.315 187.474 29.555 188.354 30.035C189.254 30.515 189.944 31.145 190.424 31.925V29.555H195.554V46.265C195.554 47.805 195.244 49.195 194.624 50.435C194.024 51.695 193.094 52.695 191.834 53.435C190.594 54.175 189.044 54.545 187.184 54.545C184.704 54.545 182.694 53.955 181.154 52.775C179.614 51.615 178.734 50.035 178.514 48.035H183.584C183.744 48.675 184.124 49.175 184.724 49.535C185.324 49.915 186.064 50.105 186.944 50.105C188.004 50.105 188.844 49.795 189.464 49.175C190.104 48.575 190.424 47.605 190.424 46.265V43.895C189.924 44.675 189.234 45.315 188.354 45.815C187.474 46.295 186.444 46.535 185.264 46.535C183.884 46.535 182.634 46.185 181.514 45.485C180.394 44.765 179.504 43.755 178.844 42.455C178.204 41.135 177.884 39.615 177.884 37.895C177.884 36.175 178.204 34.665 178.844 33.365C179.504 32.065 180.394 31.065 181.514 30.365C182.634 29.665 183.884 29.315 185.264 29.315ZM190.424 37.925C190.424 36.645 190.064 35.635 189.344 34.895C188.644 34.155 187.784 33.785 186.764 33.785C185.744 33.785 184.874 34.155 184.154 34.895C183.454 35.615 183.104 36.615 183.104 37.895C183.104 39.175 183.454 40.195 184.154 40.955C184.874 41.695 185.744 42.065 186.764 42.065C187.784 42.065 188.644 41.695 189.344 40.955C190.064 40.215 190.424 39.205 190.424 37.925ZM201.845 27.815C200.945 27.815 200.205 27.555 199.625 27.035C199.065 26.495 198.785 25.835 198.785 25.055C198.785 24.255 199.065 23.595 199.625 23.075C200.205 22.535 200.945 22.265 201.845 22.265C202.725 22.265 203.445 22.535 204.005 23.075C204.585 23.595 204.875 24.255 204.875 25.055C204.875 25.835 204.585 26.495 204.005 27.035C203.445 27.555 202.725 27.815 201.845 27.815ZM204.395 29.555V46.295H199.265V29.555H204.395ZM213.243 32.345C213.843 31.425 214.593 30.705 215.493 30.185C216.393 29.645 217.393 29.375 218.493 29.375V34.805H217.083C215.803 34.805 214.843 35.085 214.203 35.645C213.563 36.185 213.243 37.145 213.243 38.525V46.295H208.113V29.555H213.243V32.345ZM223.525 27.815C222.625 27.815 221.885 27.555 221.305 27.035C220.745 26.495 220.465 25.835 220.465 25.055C220.465 24.255 220.745 23.595 221.305 23.075C221.885 22.535 222.625 22.265 223.525 22.265C224.405 22.265 225.125 22.535 225.685 23.075C226.265 23.595 226.555 24.255 226.555 25.055C226.555 25.835 226.265 26.495 225.685 27.035C225.125 27.555 224.405 27.815 223.525 27.815ZM226.075 29.555V46.295H220.945V29.555H226.075Z" fill="#324055"/>
</svg>
