<svg xmlns="http://www.w3.org/2000/svg" width="447.11" height="115.589" viewBox="0 0 447.11 115.589">
  <g id="Group_145" data-name="Group 145" transform="translate(-1253.137 -628.411)">
    <path id="Path_1088" data-name="Path 1088" d="M19.908.441a22.75,22.75,0,0,1-8.694-1.575A14.171,14.171,0,0,1,5.071-5.8,12.737,12.737,0,0,1,2.646-13.23H14.112a5.563,5.563,0,0,0,1.7,3.748,5.468,5.468,0,0,0,3.78,1.292,5.912,5.912,0,0,0,3.78-1.1,3.687,3.687,0,0,0,1.386-3.056,3.617,3.617,0,0,0-1.1-2.709,8.894,8.894,0,0,0-2.709-1.764A43.576,43.576,0,0,0,16.38-18.4a49.733,49.733,0,0,1-6.993-2.646,12.921,12.921,0,0,1-4.662-3.906,10.883,10.883,0,0,1-1.953-6.741,11.592,11.592,0,0,1,4.473-9.67q4.473-3.5,11.655-3.5,7.308,0,11.781,3.5a12.517,12.517,0,0,1,4.788,9.733H23.814A4.558,4.558,0,0,0,22.239-35a5.548,5.548,0,0,0-3.717-1.229,4.633,4.633,0,0,0-3.15,1.039,3.749,3.749,0,0,0-1.2,2.993,3.709,3.709,0,0,0,2.016,3.339,33.048,33.048,0,0,0,6.3,2.583A58.263,58.263,0,0,1,29.452-23.5a13.253,13.253,0,0,1,4.631,3.843,10.287,10.287,0,0,1,1.953,6.489A12.733,12.733,0,0,1,34.114-6.3a13.458,13.458,0,0,1-5.575,4.914A19.087,19.087,0,0,1,19.908.441ZM62.244-9.135V0H56.763Q50.9,0,47.628-2.866t-3.276-9.356V-26.208H40.068v-8.946h4.284v-8.568H55.125v8.568h7.056v8.946H55.125V-12.1a2.952,2.952,0,0,0,.756,2.268,3.69,3.69,0,0,0,2.52.693ZM84.231.5A19.4,19.4,0,0,1,74.938-1.7,16.146,16.146,0,0,1,68.45-8a18.825,18.825,0,0,1-2.363-9.576,18.674,18.674,0,0,1,2.394-9.544,16.244,16.244,0,0,1,6.552-6.332,19.589,19.589,0,0,1,9.324-2.2,19.589,19.589,0,0,1,9.324,2.2,16.244,16.244,0,0,1,6.552,6.332,18.674,18.674,0,0,1,2.394,9.544A18.483,18.483,0,0,1,100.2-8.033,16.4,16.4,0,0,1,93.587-1.7,19.775,19.775,0,0,1,84.231.5Zm0-9.324a7.018,7.018,0,0,0,5.26-2.268,9.01,9.01,0,0,0,2.173-6.489,9.178,9.178,0,0,0-2.11-6.489,6.82,6.82,0,0,0-5.2-2.268A6.837,6.837,0,0,0,79.128-24.1q-2.079,2.236-2.079,6.52A9.359,9.359,0,0,0,79.1-11.088,6.627,6.627,0,0,0,84.231-8.82Zm34.9-20.475a14.212,14.212,0,0,1,4.725-4.568,12.184,12.184,0,0,1,6.3-1.669v11.4H127.2q-4.032,0-6.048,1.732t-2.016,6.08V0H108.36V-35.154h10.773Zm52.1-5.859-22.05,51.849H137.592L145.656-1.2l-14.3-33.957h12.033l8.127,21.987,8.064-21.987Zm17.262-.5a13.528,13.528,0,0,1,6.521,1.512,11.138,11.138,0,0,1,4.316,3.969v-4.977H210.1V-.063a19.772,19.772,0,0,1-1.921,8.789,14.644,14.644,0,0,1-5.859,6.269,18.953,18.953,0,0,1-9.8,2.331q-7.812,0-12.663-3.686a13.91,13.91,0,0,1-5.544-9.985h10.647a5.1,5.1,0,0,0,2.394,3.181A8.726,8.726,0,0,0,192.024,8a7.328,7.328,0,0,0,5.324-1.922q1.985-1.922,1.985-6.143V-5.04a11.949,11.949,0,0,1-4.347,4A13.124,13.124,0,0,1,188.5.5a14.4,14.4,0,0,1-7.875-2.236A15.455,15.455,0,0,1,175.045-8.1,21.21,21.21,0,0,1,173-17.64a21.01,21.01,0,0,1,2.047-9.513,15.273,15.273,0,0,1,5.576-6.3A14.556,14.556,0,0,1,188.5-35.658Zm10.836,18.081A8.808,8.808,0,0,0,197.1-23.94a7.266,7.266,0,0,0-5.449-2.331,7.314,7.314,0,0,0-5.45,2.3,8.7,8.7,0,0,0-2.236,6.331,8.921,8.921,0,0,0,2.236,6.394,7.221,7.221,0,0,0,5.45,2.362,7.266,7.266,0,0,0,5.449-2.331A8.808,8.808,0,0,0,199.332-17.577Zm24-21.231a6.53,6.53,0,0,1-4.631-1.669,5.41,5.41,0,0,1-1.8-4.127,5.48,5.48,0,0,1,1.8-4.189,6.53,6.53,0,0,1,4.631-1.67,6.443,6.443,0,0,1,4.567,1.67,5.48,5.48,0,0,1,1.8,4.189,5.41,5.41,0,0,1-1.8,4.127A6.444,6.444,0,0,1,223.335-38.808Zm5.355,3.654V0H217.917V-35.154ZM247.275-29.3A14.211,14.211,0,0,1,252-33.863a12.184,12.184,0,0,1,6.3-1.669v11.4h-2.961q-4.032,0-6.048,1.732t-2.016,6.08V0H236.5V-35.154h10.773Zm21.609-9.513a6.53,6.53,0,0,1-4.63-1.669,5.41,5.41,0,0,1-1.8-4.127,5.48,5.48,0,0,1,1.8-4.189,6.53,6.53,0,0,1,4.63-1.67,6.444,6.444,0,0,1,4.568,1.67,5.48,5.48,0,0,1,1.8,4.189,5.41,5.41,0,0,1-1.8,4.127A6.444,6.444,0,0,1,268.884-38.808Zm5.355,3.654V0H263.466V-35.154Z" transform="translate(1425 722)" fill="#fff"/>
    <g id="Group_144" data-name="Group 144" transform="translate(1253.137 628.411)">
      <g id="Group_10" data-name="Group 10" transform="translate(0 47.679)">
        <path id="Path_2" data-name="Path 2" d="M77.784,290.478c-2.587-9.841-3.451-19.6-.445-29.34,4.316-13.989,14.492-22.086,27.764-26.91,8.511-3.1,17.43-4.059,26.365-4.8a37.894,37.894,0,0,0,17.326-5.777c1.278-.8,3.928-1.466,4.536-.833a6.857,6.857,0,0,1,1.571,5.054c-.712,5.457-4.09,9.239-8.977,11.449-3.111,1.4-6.51,2.153-9.752,3.273a47.051,47.051,0,0,0-6.8,2.645c-4.148,2.21-4.887,5.882-1.409,9.024a28.872,28.872,0,0,0,9.354,5.787,91.483,91.483,0,0,0,28.927,5.63c9.04.178,17.786-1.781,26.5-3.954a70.115,70.115,0,0,1,8.794-1.514c2.069-.241,4.174.718,4.389,2.734.126,1.194-1.357,3.148-2.613,3.813-16.262,8.605-33.42,14.084-52.029,12.727-6.987-.508-13.853-2.566-20.782-3.886-8.218-1.566-16.461-2.624-24.82-1.215-10.224,1.723-18.583,6.824-25.669,14.22q-.841.88-1.707,1.734C78.235,290.41,78.12,290.4,77.784,290.478Z" transform="translate(-75.436 -222.568)" fill="#fff"/>
        <path id="Path_3" data-name="Path 3" d="M227.6,285.752c4.546-3.389,8.212-6.531,12.277-9.014,2.53-1.545,5.62-2.263,8.553-2.985a3.471,3.471,0,0,1,2.849,1.477c.33.524-.3,2.147-.979,2.734-3.336,2.917-6.809,5.672-10.286,8.422a2.732,2.732,0,0,1-1.781.456C234.906,286.548,231.591,286.171,227.6,285.752Z" transform="translate(-147.905 -246.93)" fill="#fff"/>
        <path id="Path_4" data-name="Path 4" d="M255.2,288.17c5.285-3.577,9.92-6.992,14.843-9.925a20.647,20.647,0,0,1,7.39-2.221c1.037-.157,2.493.807,3.3,1.686.278.3-.634,2.058-1.341,2.854-4.415,5.007-10.265,6.735-16.692,7.076C260.39,287.757,258.091,287.961,255.2,288.17Z" transform="translate(-161.049 -248.019)" fill="#fff"/>
        <path id="Path_5" data-name="Path 5" d="M207.35,282.8c3.457-2.5,6.678-4.923,10-7.191a7.841,7.841,0,0,1,3.7-1.54c1.744-.1,4.326-.194,5.122.828,1.456,1.859-1.11,2.954-2.21,4.206-.765.869-1.906,1.414-2.65,2.3C217.238,286.234,212.551,285.034,207.35,282.8Z" transform="translate(-138.26 -247.067)" fill="#fff"/>
      </g>
      <g id="Group_11" data-name="Group 11" transform="translate(68.346)">
        <g id="Path_6" data-name="Path 6" transform="translate(-205.929 -131.534)" fill="#f8c2c3">
          <path d="M 209.3780212402344 156.5557861328125 C 208.7130279541016 156.4793395996094 208.0477752685547 156.4029846191406 207.3825378417969 156.3269348144531 C 207.9949188232422 156.0739898681641 208.6062774658203 155.8214874267578 209.2187042236328 155.5685272216797 L 209.2915954589844 156.0049591064453 C 209.2938537597656 156.0315246582031 209.2978668212891 156.0739440917969 209.3061218261719 156.1234741210938 L 209.3780212402344 156.5557861328125 Z M 252.4937591552734 139.1489410400391 L 252.1965942382812 138.5537567138672 C 252.1881408691406 138.5368194580078 252.1799926757812 138.5215454101562 252.1726379394531 138.5082244873047 L 251.9380645751953 137.9216918945312 C 256.1726684570312 136.1709442138672 260.4075927734375 134.4201354980469 264.643310546875 132.6693878173828 L 264.2254333496094 133.6143035888672 C 263.9795227050781 134.1702728271484 263.7299499511719 134.7345123291016 263.4793395996094 135.3019409179688 L 263.0486450195312 135.01513671875 C 263.0375671386719 135.0077514648438 263.0255432128906 134.9993743896484 263.0135498046875 134.9910430908203 C 262.9916381835938 134.9758911132812 262.9697265625 134.9607849121094 262.9494934082031 134.9473114013672 L 262.3054504394531 134.5180206298828 L 261.7283935546875 135.0338592529297 L 260.5548706054688 136.0829315185547 C 260.2039794921875 136.3966064453125 259.8522338867188 136.7110443115234 259.5013122558594 137.0247192382812 L 259.240478515625 136.5899963378906 C 259.2125854492188 136.5435028076172 259.1854553222656 136.505615234375 259.1656799316406 136.4793395996094 L 258.68896484375 135.6850891113281 L 257.8425903320312 136.1583251953125 C 256.0596313476562 137.1551971435547 254.2768249511719 138.1519927978516 252.4937591552734 139.1489410400391 Z" stroke="none"/>
          <path d="M 246.3249664306641 175.5320434570312 C 246.09228515625 175.5320434570312 245.8269348144531 175.4037017822266 245.5145263671875 175.1494598388672 C 244.1475524902344 174.0391235351562 242.7805786132812 172.9235382080078 241.4083557128906 171.8132019042969 C 240.1251525878906 170.7709350585938 238.8472290039062 169.7286834716797 237.5640563964844 168.6864318847656 C 237.4540405273438 168.5921478271484 237.3388366699219 168.5135803222656 237.1974182128906 168.4088439941406 C 236.3437194824219 169.2363586425781 235.50048828125 170.0534057617188 234.6572570800781 170.8704376220703 C 233.3478698730469 172.1431427001953 232.0385131835938 173.4210815429688 230.7291564941406 174.6938018798828 C 230.016845703125 175.3851318359375 229.5454406738281 175.332763671875 229.0164794921875 174.5052490234375 C 225.7064208984375 169.3411102294922 222.3963317871094 164.1821899414062 219.0967407226562 159.0128173828125 C 218.9238891601562 158.7404632568359 218.7353515625 158.6304931640625 218.4210968017578 158.5938262939453 C 214.5663146972656 158.1643371582031 210.7167816162109 157.7139282226562 206.8619995117188 157.2739715576172 C 206.3068389892578 157.2111358642578 205.9978332519531 156.9597320556641 205.9402160644531 156.5407409667969 C 205.8773651123047 156.079833984375 206.0868530273438 155.7812957763672 206.6420288085938 155.5508575439453 C 216.18994140625 151.6070404052734 225.7430725097656 147.6632232666016 235.2962341308594 143.7194213867188 C 244.9645690917969 139.7232208251953 254.6277160644531 135.72705078125 264.2960815429688 131.7308502197266 C 264.3694152832031 131.6994323730469 264.4427185058594 131.6680145263672 264.5160522460938 131.6365814208984 C 264.8827209472656 131.4794616699219 265.2336120605469 131.4847106933594 265.5321350097656 131.7779998779297 C 265.8463745117188 132.0870056152344 265.8306579589844 132.4536285400391 265.6630554199219 132.8359680175781 C 264.9245910644531 134.5067138671875 264.1860961914062 136.1722259521484 263.4528503417969 137.8429870605469 C 258.0477905273438 150.0829467773438 252.6427001953125 162.3229064941406 247.2428894042969 174.5628662109375 C 247.2167053222656 174.6204833984375 247.1904907226562 174.6781005859375 247.1643371582031 174.7357025146484 C 246.9238586425781 175.26904296875 246.6578979492188 175.5320434570312 246.3249664306641 175.5320434570312 Z M 262.3948669433594 135.7794036865234 C 252.4698791503906 144.6516876220703 242.5448608398438 153.5239562988281 232.562255859375 162.4485931396484 C 237.0350646972656 166.0834045410156 241.4659423828125 169.6867828369141 245.9439697265625 173.3215789794922 C 251.4747619628906 160.7935485839844 256.9845581054688 148.3179016113281 262.494384765625 135.8474884033203 C 262.4629516601562 135.8265533447266 262.4263000488281 135.8003540039062 262.3948669433594 135.7794036865234 Z M 231.9285278320312 164.1036376953125 C 231.6195373535156 166.7852172851562 231.3209838867188 169.3620452880859 231.011962890625 172.0750579833984 C 232.6879577636719 170.4462127685547 234.2644348144531 168.9116363525391 235.893310546875 167.3246765136719 C 234.5682067871094 166.2457580566406 233.2798156738281 165.2035064697266 231.9285278320312 164.1036376953125 Z M 258.3305969238281 137.0311584472656 C 245.7502136230469 144.0650939941406 233.1697998046875 151.0989990234375 220.5422668457031 158.1591033935547 C 223.4647827148438 162.720947265625 226.3611145019531 167.2356414794922 229.3202819824219 171.8550872802734 C 229.3674011230469 171.5670166015625 229.3988342285156 171.3994293212891 229.4197692871094 171.2318267822266 C 229.7340393066406 168.4664459228516 230.0639953613281 165.706298828125 230.35205078125 162.94091796875 C 230.4148864746094 162.328125 230.6453552246094 161.8934173583984 231.1062316894531 161.4796600341797 C 239.6956787109375 153.8224945068359 248.2694091796875 146.1495971679688 256.8431701660156 138.48193359375 C 257.3564453125 138.0210418701172 257.8697204589844 137.5653839111328 258.3829956054688 137.1044921875 C 258.3672790527344 137.0782928466797 258.3463134765625 137.0573425292969 258.3305969238281 137.0311584472656 Z M 251.2652587890625 138.932373046875 C 237.6007080078125 144.5783538818359 223.94140625 150.2191162109375 210.2820739746094 155.8650970458984 C 210.2873229980469 155.8965301513672 210.2873229980469 155.9279479980469 210.2925567626953 155.9593811035156 C 210.3658752441406 155.9698486328125 210.4339599609375 155.9907989501953 210.5072937011719 155.9960479736328 C 213.3041076660156 156.3207550048828 216.0956726074219 156.6507263183594 218.8924865722656 156.9597320556641 C 219.091552734375 156.980712890625 219.3271789550781 156.9073333740234 219.510498046875 156.8026123046875 C 230.0220947265625 150.931396484375 240.53369140625 145.0549774169922 251.0452880859375 139.1785278320312 C 251.1343383789062 139.1261596679688 251.2181091308594 139.0580749511719 251.3019104003906 139.0004577636719 C 251.2914428710938 138.9795074462891 251.2757263183594 138.9585571289062 251.2652587890625 138.932373046875 Z" stroke="none" fill="#ffa7ae"/>
        </g>
        <g id="Path_7" data-name="Path 7" transform="translate(-230.147 -135.394)" fill="#f8c2c3">
          <path d="M 269.7708129882812 175.5801544189453 C 267.8793640136719 174.0429077148438 265.9944458007812 172.5105895996094 264.1093444824219 170.9781188964844 C 262.1821594238281 169.4114227294922 260.2549133300781 167.8446960449219 258.3209533691406 166.2729187011719 L 262.3640441894531 162.6583404541016 C 269.4734191894531 156.3025360107422 276.7933044433594 149.7584991455078 284.0353698730469 143.2819061279297 L 269.7708129882812 175.5801544189453 Z" stroke="none"/>
          <path d="M 269.3851928710938 173.9780883789062 L 281.2493591308594 147.1148376464844 C 275.1417541503906 152.5763549804688 269.0118103027344 158.0565643310547 263.0305480957031 163.4038543701172 L 259.8618774414062 166.2366790771484 C 261.4906921386719 167.5605316162109 263.1154174804688 168.8813629150391 264.7401733398438 170.2021789550781 C 266.2873229980469 171.4599151611328 267.8345031738281 172.7176971435547 269.3851928710938 173.9780883789062 M 270.156494140625 177.1821746826172 C 265.6836853027344 173.54736328125 261.2528076171875 169.9440002441406 256.7799987792969 166.3091888427734 C 266.7626037597656 157.3845367431641 276.6876220703125 148.5122680664062 286.6073913574219 139.6400146484375 C 286.6388244628906 139.6609497070312 286.6754760742188 139.6871337890625 286.7069091796875 139.7080993652344 C 281.1970825195312 152.1837463378906 275.687255859375 164.6593933105469 270.156494140625 177.1821746826172 Z" stroke="none" fill="#ffa7ae"/>
        </g>
        <g id="Path_8" data-name="Path 8" transform="translate(-219.217 -136.533)" fill="#f8c2c3">
          <path d="M 241.9535064697266 173.9829254150391 C 239.5812377929688 170.2749633789062 237.3704986572266 166.8241577148438 235.2455291748047 163.51220703125 C 245.5422668457031 157.7552490234375 255.0811614990234 152.4218139648438 264.5427551269531 147.1302642822266 C 263.7487487792969 147.8401641845703 262.9547424316406 148.5500793457031 262.1608581542969 149.2599029541016 C 256.1194152832031 154.6615447998047 249.872314453125 160.2471008300781 243.7230682373047 165.7322692871094 C 243.0728759765625 166.3085784912109 242.7279052734375 166.978271484375 242.6397705078125 167.8377380371094 C 242.4322662353516 169.8298797607422 242.1985168457031 171.8576202392578 241.9724578857422 173.8185729980469 C 241.9661407470703 173.8733825683594 241.9598236083984 173.9281311035156 241.9535064697266 173.9829254150391 Z" stroke="none"/>
          <path d="M 241.2801361083984 171.0755157470703 C 241.4060668945312 169.962158203125 241.5296630859375 168.8427734375 241.6449890136719 167.7357330322266 C 241.7586364746094 166.62744140625 242.2219085693359 165.7268829345703 243.0612945556641 164.9825439453125 C 247.7337341308594 160.8146820068359 252.4625396728516 156.5890045166016 257.1148986816406 152.4299011230469 C 250.4999084472656 156.1289825439453 243.7571563720703 159.8990020751953 236.6609344482422 163.8665466308594 C 238.1475677490234 166.1842651367188 239.6788635253906 168.5740509033203 241.2801361083984 171.0755157470703 M 242.602783203125 176.8539276123047 C 239.6488342285156 172.2344665527344 236.7577514648438 167.7197875976562 233.8300170898438 163.1579437255859 C 246.4575500488281 156.0978393554688 259.0379333496094 149.0639190673828 271.6130981445312 142.0299987792969 C 271.6288146972656 142.0561828613281 271.6497802734375 142.0771484375 271.6654663085938 142.1033325195312 C 271.1521911621094 142.5642395019531 270.6389465332031 143.0251159667969 270.1256713867188 143.4807891845703 C 261.5466918945312 151.1484375 252.9729614257812 158.8213195800781 244.3887329101562 166.478515625 C 243.9278564453125 166.8870239257812 243.6973876953125 167.3269653320312 243.6345520019531 167.9397583007812 C 243.3464965820312 170.7051391601562 243.0165405273438 173.4652862548828 242.7022705078125 176.2306671142578 C 242.6813354492188 176.3982696533203 242.64990234375 176.5658569335938 242.602783203125 176.8539276123047 Z" stroke="none" fill="#ffa7ae"/>
        </g>
        <g id="Path_9" data-name="Path 9" transform="translate(-209.887 -138.261)" fill="#f8c2c3">
          <path d="M 222.9090881347656 162.6877746582031 C 221.272216796875 162.5067596435547 219.6160736083984 162.316162109375 217.9854888916016 162.1267242431641 C 225.4745788574219 159.0316009521484 232.9631042480469 155.9380798339844 240.4533233642578 152.8438568115234 C 240.5701446533203 152.7955932617188 240.6871643066406 152.7472534179688 240.8039855957031 152.6989898681641 C 234.8943939208984 156.0026397705078 228.9040222167969 159.3504486083984 222.9810028076172 162.6570892333984 C 222.9550323486328 162.6716003417969 222.9275665283203 162.6820983886719 222.9090881347656 162.6877746582031 Z" stroke="none"/>
          <path d="M 222.7152557373047 161.66015625 C 223.6458129882812 161.1406402587891 224.5787200927734 160.6197357177734 225.511962890625 160.0985565185547 C 224.3221740722656 160.5901641845703 223.1317291259766 161.0820617675781 221.9419555664062 161.5737152099609 C 222.2001647949219 161.6027374267578 222.4577484130859 161.6315460205078 222.7152557373047 161.66015625 M 222.9174652099609 163.6907806396484 C 222.8946990966797 163.6907806396484 222.872314453125 163.6896820068359 222.8504180908203 163.6873779296875 C 220.0536193847656 163.3783569335938 217.2620391845703 163.0484008789062 214.4652404785156 162.7236785888672 C 214.3919067382812 162.7131958007812 214.3238220214844 162.6974792480469 214.25048828125 162.68701171875 C 214.2452392578125 162.6503601074219 214.2400207519531 162.6241607666016 214.2400207519531 162.5927429199219 C 227.8993225097656 156.9467468261719 241.5586242675781 151.3059997558594 255.2231750488281 145.6600036621094 C 255.233642578125 145.6809539794922 255.2493591308594 145.701904296875 255.2598571777344 145.7280883789062 C 255.1760559082031 145.7857055664062 255.0922546386719 145.8537902832031 255.0032348632812 145.9061584472656 C 244.4916076660156 151.7826080322266 233.9852600097656 157.6590423583984 223.4684448242188 163.5302429199219 C 223.3099517822266 163.6188201904297 223.1016693115234 163.6907806396484 222.9174652099609 163.6907806396484 Z" stroke="none" fill="#ffa7ae"/>
        </g>
        <g id="Path_10" data-name="Path 10" transform="translate(-228.733 -161.15)" fill="#f8c2c3">
          <path d="M 255.1248321533203 199.0182189941406 C 255.1990814208984 198.3719024658203 255.2728271484375 197.7288208007812 255.3466186523438 197.0852355957031 C 255.4015960693359 196.6058044433594 255.4565887451172 196.1262054443359 255.5118408203125 195.6449127197266 C 255.6279296875 195.7391357421875 255.7438049316406 195.8332061767578 255.8594818115234 195.9271087646484 C 256.3047790527344 196.2885894775391 256.7475891113281 196.6480560302734 257.1919555664062 197.0085144042969 C 256.502197265625 197.6787872314453 255.8172607421875 198.3448486328125 255.1248321533203 199.0182189941406 Z" stroke="none"/>
          <path d="M 254.7265625 193.7200012207031 C 256.0830688476562 194.8198852539062 257.3714599609375 195.8673706054688 258.6965942382812 196.9410400390625 C 257.0677490234375 198.5227661132812 255.4912414550781 200.0573425292969 253.8099975585938 201.6914367675781 C 254.124267578125 198.9784240722656 254.4175720214844 196.4015808105469 254.7265625 193.7200012207031 Z" stroke="none" fill="#ffa7ae"/>
        </g>
      </g>
    </g>
  </g>
</svg>
