<svg xmlns="http://www.w3.org/2000/svg" width="453.863" height="121.589" viewBox="0 0 453.863 121.589">
  <g id="Group_13" data-name="Group 13" transform="translate(-1253.137 -424.411)">
    <text id="StoryGiri" transform="translate(1423 524)" fill="#fff" font-size="63" font-family="Poppins-Bold, Poppins" font-weight="700"><tspan x="0" y="0">StoryGiri</tspan></text>
    <g id="Group_12" data-name="Group 12" transform="translate(1253.137 424.411)">
      <g id="Group_10" data-name="Group 10" transform="translate(0 47.679)">
        <path id="Path_2" data-name="Path 2" d="M77.784,290.478c-2.587-9.841-3.451-19.6-.445-29.34,4.316-13.989,14.492-22.086,27.764-26.91,8.511-3.1,17.43-4.059,26.365-4.8a37.894,37.894,0,0,0,17.326-5.777c1.278-.8,3.928-1.466,4.536-.833a6.857,6.857,0,0,1,1.571,5.054c-.712,5.457-4.09,9.239-8.977,11.449-3.111,1.4-6.51,2.153-9.752,3.273a47.051,47.051,0,0,0-6.8,2.645c-4.148,2.21-4.887,5.882-1.409,9.024a28.872,28.872,0,0,0,9.354,5.787,91.483,91.483,0,0,0,28.927,5.63c9.04.178,17.786-1.781,26.5-3.954a70.115,70.115,0,0,1,8.794-1.514c2.069-.241,4.174.718,4.389,2.734.126,1.194-1.357,3.148-2.613,3.813-16.262,8.605-33.42,14.084-52.029,12.727-6.987-.508-13.853-2.566-20.782-3.886-8.218-1.566-16.461-2.624-24.82-1.215-10.224,1.723-18.583,6.824-25.669,14.22q-.841.88-1.707,1.734C78.235,290.41,78.12,290.4,77.784,290.478Z" transform="translate(-75.436 -222.568)" fill="#fff"/>
        <path id="Path_3" data-name="Path 3" d="M227.6,285.752c4.546-3.389,8.212-6.531,12.277-9.014,2.53-1.545,5.62-2.263,8.553-2.985a3.471,3.471,0,0,1,2.849,1.477c.33.524-.3,2.147-.979,2.734-3.336,2.917-6.809,5.672-10.286,8.422a2.732,2.732,0,0,1-1.781.456C234.906,286.548,231.591,286.171,227.6,285.752Z" transform="translate(-147.905 -246.93)" fill="#fff"/>
        <path id="Path_4" data-name="Path 4" d="M255.2,288.17c5.285-3.577,9.92-6.992,14.843-9.925a20.647,20.647,0,0,1,7.39-2.221c1.037-.157,2.493.807,3.3,1.686.278.3-.634,2.058-1.341,2.854-4.415,5.007-10.265,6.735-16.692,7.076C260.39,287.757,258.091,287.961,255.2,288.17Z" transform="translate(-161.049 -248.019)" fill="#fff"/>
        <path id="Path_5" data-name="Path 5" d="M207.35,282.8c3.457-2.5,6.678-4.923,10-7.191a7.841,7.841,0,0,1,3.7-1.54c1.744-.1,4.326-.194,5.122.828,1.456,1.859-1.11,2.954-2.21,4.206-.765.869-1.906,1.414-2.65,2.3C217.238,286.234,212.551,285.034,207.35,282.8Z" transform="translate(-138.26 -247.067)" fill="#fff"/>
      </g>
      <g id="Group_11" data-name="Group 11" transform="translate(68.346)">
        <path id="Path_6" data-name="Path 6" d="M237.2,168.409l-2.54,2.462q-1.964,1.909-3.928,3.823c-.712.691-1.184.639-1.713-.189q-4.965-7.746-9.92-15.492a.818.818,0,0,0-.676-.419c-3.855-.429-7.7-.88-11.559-1.32-.555-.063-.864-.314-.922-.733-.063-.461.147-.759.7-.99q14.322-5.916,28.654-11.831l29-11.989.22-.094a.856.856,0,0,1,1.016.141.869.869,0,0,1,.131,1.058q-1.108,2.506-2.21,5.007-8.108,18.36-16.21,36.72l-.079.173c-.409.906-.89,1.032-1.65.414q-2.05-1.666-4.106-3.336-1.925-1.563-3.844-3.127C237.454,168.592,237.339,168.514,237.2,168.409Zm-4.635-5.96c4.473,3.635,8.9,7.238,13.382,10.873q8.3-18.792,16.55-37.474l-.1-.068Zm-12.02-4.289c2.923,4.562,5.819,9.077,8.778,13.7.047-.288.079-.456.1-.623.314-2.765.644-5.526.932-8.291a2.109,2.109,0,0,1,.754-1.461q12.884-11.486,25.737-23c.513-.461,1.027-.917,1.54-1.377-.016-.026-.037-.047-.052-.073Zm-10.26-2.294c.005.031.005.063.01.094.073.01.141.031.215.037,2.8.325,5.588.655,8.385.964a1.1,1.1,0,0,0,.618-.157q15.767-8.807,31.535-17.624c.089-.052.173-.12.257-.178-.01-.021-.026-.042-.037-.068Q230.768,147.4,210.282,155.865Zm25.611,11.46c-1.325-1.079-2.613-2.121-3.965-3.221-.309,2.682-.608,5.258-.917,7.971C232.688,170.446,234.264,168.912,235.893,167.325Z" transform="translate(-205.929 -131.534)" fill="#f8c2c3"/>
        <path id="Path_7" data-name="Path 7" d="M256.78,166.309q14.974-13.387,29.827-26.669l.1.068-16.55,37.474Z" transform="translate(-230.147 -135.394)" fill="#f8c2c3"/>
        <path id="Path_8" data-name="Path 8" d="M233.83,163.158q18.941-10.59,37.783-21.128c.016.026.037.047.052.073-.513.461-1.027.922-1.54,1.377q-12.868,11.5-25.737,23a2.1,2.1,0,0,0-.754,1.461c-.288,2.765-.618,5.526-.932,8.291-.021.168-.052.335-.1.623C239.649,172.234,236.758,167.72,233.83,163.158Z" transform="translate(-219.217 -136.533)" fill="#f8c2c3"/>
        <path id="Path_9" data-name="Path 9" d="M214.24,162.593q20.489-8.469,40.983-16.933c.01.021.026.042.037.068-.084.058-.168.126-.257.178q-15.767,8.815-31.535,17.624a1.135,1.135,0,0,1-.618.157c-2.8-.309-5.588-.639-8.385-.964-.073-.01-.141-.026-.215-.037A.646.646,0,0,1,214.24,162.593Z" transform="translate(-209.887 -138.261)" fill="#f8c2c3"/>
        <path id="Path_10" data-name="Path 10" d="M258.7,196.941c-1.629,1.582-3.205,3.116-4.887,4.75.314-2.713.608-5.29.917-7.971C256.083,194.82,257.371,195.867,258.7,196.941Z" transform="translate(-228.733 -161.15)" fill="#f8c2c3"/>
      </g>
    </g>
  </g>
</svg>
