<svg xmlns="http://www.w3.org/2000/svg" width="745.085" height="408.43" viewBox="0 0 745.085 408.43">
  <g id="ooo-bg-2" transform="translate(-42.81 -73.31)">
    <g id="freepik--Floor--inject-2" transform="translate(42.81 465.88)">
      <path id="Path_822" data-name="Path 822" d="M787.9,466.14c0,.14-166.8.26-372.52.26s-372.565-.12-372.565-.26,166.771-.26,372.565-.26S787.9,466,787.9,466.14Z" transform="translate(-42.81 -465.88)" fill="#263238"/>
    </g>
    <g id="freepik--character-2--inject-2" transform="translate(493.175 147.614)">
      <path id="Path_823" data-name="Path 823" d="M604.74,397.44V465.6h8.08l3.01-68.35Z" transform="translate(-418.47 -147.614)" fill="#263238"/>
      <path id="Path_824" data-name="Path 824" d="M471.86,397.25l3.86,68.35h7.65l.09-68.16Z" transform="translate(-418.47 -147.614)" fill="#263238"/>
      <rect id="Rectangle_41" data-name="Rectangle 41" width="151.39" height="49.33" rx="6.54" transform="translate(40.71 205.516)" fill="#455a64"/>
      <path id="Path_825" data-name="Path 825" d="M617.46,331.07c1.81-13.65,3.29-28.36-3.27-40.46-6.82-12.58-21.85-19.71-36.1-18.43s-27.24,10.3-34.74,22.48-9.78,27.17-7.78,41.33" transform="translate(-418.47 -147.614)" fill="#455a64"/>
      <path id="Path_826" data-name="Path 826" d="M548.29,385.09c0,.14-17.25.26-38.53.26s-38.54-.12-38.54-.26,17.25-.27,38.54-.27S548.29,384.94,548.29,385.09Z" transform="translate(-418.47 -147.614)" fill="#263238"/>
      <path id="Path_827" data-name="Path 827" d="M548.84,384.8s-3.28,2.81-7.4,6.18-7.5,6.06-7.54,6,3.28-2.81,7.41-6.18S548.81,384.75,548.84,384.8Z" transform="translate(-418.47 -147.614)" fill="#fafafa"/>
      <path id="Path_828" data-name="Path 828" d="M534.12,368.87c0,.05-10.28,7.39-23,16.4S488,401.55,487.94,401.5s10.27-7.39,23-16.4S534.09,368.83,534.12,368.87Z" transform="translate(-418.47 -147.614)" fill="#fafafa"/>
      <path id="Path_829" data-name="Path 829" d="M499,368.12c0,.05-6.73,5-15.11,11.05s-15.21,10.92-15.24,10.88,6.73-5,15.12-11.05S499,368.08,499,368.12Z" transform="translate(-418.47 -147.614)" fill="#fafafa"/>
      <path id="Path_830" data-name="Path 830" d="M483.32,357.5l-.16.11-.48.28-1.76,1c-1.49.86-3.51,2.1-5.67,3.58s-4,2.93-5.37,4l-1.58,1.28-.43.35-.16.11a.54.54,0,0,1,.13-.14l.41-.38c.35-.33.88-.78,1.53-1.34,1.32-1.1,3.19-2.57,5.36-4.06s4.2-2.71,5.7-3.54c.76-.41,1.37-.74,1.8-.95l.5-.25Z" transform="translate(-418.47 -147.614)" fill="#fafafa"/>
      <path id="Path_831" data-name="Path 831" d="M616.56,295.3s-.1.1-.3.27l-.89.75c-.78.65-1.92,1.56-3.34,2.68-2.85,2.23-6.86,5.21-11.44,8.3s-8.85,5.69-12,7.49c-1.56.9-2.84,1.62-3.73,2.1l-1,.54a3.561,3.561,0,0,1-.37.18l.35-.21,1-.59,3.7-2.15c3.11-1.83,7.37-4.45,11.94-7.53s8.6-6.05,11.47-8.25c1.37-1.06,2.5-1.95,3.38-2.62l.91-.72Z" transform="translate(-418.47 -147.614)" fill="#fafafa"/>
      <path id="Path_832" data-name="Path 832" d="M592.87,279.82a2.1,2.1,0,0,1,.42.21,11.758,11.758,0,0,1,1.15.69,21.33,21.33,0,0,1,3.74,3.22,30.459,30.459,0,0,1,7.17,14.46,57.606,57.606,0,0,1,.71,16.21c-.17,2.07-.36,3.74-.51,4.89l-.18,1.32a1.539,1.539,0,0,1-.1.46,12.116,12.116,0,0,1,.08-1.8c.09-1.16.22-2.83.34-4.9a61.871,61.871,0,0,0-.85-16.08,31.23,31.23,0,0,0-6.93-14.32,30.648,30.648,0,0,0-5.04-4.36Z" transform="translate(-418.47 -147.614)" fill="#263238"/>
      <path id="Path_833" data-name="Path 833" d="M607.57,281.51l-.14.14L607,282c-.38.31-.93.75-1.62,1.28-1.38,1-3.33,2.46-5.56,3.9s-4.32,2.63-5.85,3.46c-.77.41-1.39.73-1.83.94l-.51.24a1,1,0,0,1-.18.08s0-.05.16-.11l.49-.28,1.8-1c1.51-.86,3.58-2.07,5.81-3.51s4.18-2.82,5.58-3.84L607,282l.45-.33Z" transform="translate(-418.47 -147.614)" fill="#fafafa"/>
      <path id="Path_834" data-name="Path 834" d="M442.56,427.1l1,24.75s-24.83,9.34-25.09,13.93l48.07-.22V426.92Z" transform="translate(-418.47 -147.614)" fill="#fd779b"/>
      <g id="Group_111" data-name="Group 111" transform="translate(37.642 302.057)" opacity="0.6">
        <path id="Path_835" data-name="Path 835" d="M458.42,449.7a2,2,0,0,1,1.37,2.24,1.89,1.89,0,0,1-2.2,1.37,2.06,2.06,0,0,1-1.44-2.37,2,2,0,0,1,2.45-1.18" transform="translate(-456.112 -449.671)" fill="#fff"/>
      </g>
      <g id="Group_112" data-name="Group 112" transform="translate(0.02 314.046)" opacity="0.6">
        <path id="Path_836" data-name="Path 836" d="M466.55,465.56l-.15-3.9-46,1.67s-2.14.95-1.89,2.45Z" transform="translate(-418.49 -461.66)" fill="#fff"/>
      </g>
      <path id="Path_837" data-name="Path 837" d="M442.79,451.61c0,.24,1.18.34,2.34,1.09s1.78,1.73,2,1.64-.14-1.45-1.56-2.33S442.73,451.4,442.79,451.61Z" transform="translate(-418.47 -147.614)" fill="#263238"/>
      <path id="Path_838" data-name="Path 838" d="M437.75,453.72c-.05.23,1,.62,1.77,1.61s1,2,1.27,2,.38-1.34-.64-2.55S437.76,453.5,437.75,453.72Z" transform="translate(-418.47 -147.614)" fill="#263238"/>
      <path id="Path_839" data-name="Path 839" d="M434.92,459.77c.21.05.53-1.13-.08-2.41s-1.71-1.79-1.8-1.59.58.88,1.06,1.94S434.68,459.75,434.92,459.77Z" transform="translate(-418.47 -147.614)" fill="#263238"/>
      <path id="Path_840" data-name="Path 840" d="M443.18,446c.1.21,1.18-.12,2.5,0s2.37.5,2.49.3-.88-1-2.44-1.11S443.07,445.76,443.18,446Z" transform="translate(-418.47 -147.614)" fill="#263238"/>
      <g id="Group_113" data-name="Group 113" transform="translate(24.3 284.386)" opacity="0.3">
        <path id="Path_841" data-name="Path 841" d="M442.77,432l.17,4.41,23.62-.32.02-3.98Z" transform="translate(-442.77 -432)"/>
      </g>
      <path id="Path_842" data-name="Path 842" d="M443.07,441a4.69,4.69,0,0,0,2.41,0,10.807,10.807,0,0,0,2.52-.78,12.322,12.322,0,0,0,1.37-.74,3.171,3.171,0,0,0,.73-.57,1,1,0,0,0,.1-1.25,1.26,1.26,0,0,0-1-.53,3,3,0,0,0-.9.13,8.267,8.267,0,0,0-1.5.52,8.559,8.559,0,0,0-2.21,1.46c-1.11,1-1.49,1.92-1.41,2s.65-.66,1.78-1.52a9.27,9.27,0,0,1,2.14-1.22,8.24,8.24,0,0,1,1.38-.43c.51-.14.94-.15,1.07.08s.06.12,0,.27a2.509,2.509,0,0,1-.53.42,13.768,13.768,0,0,1-1.27.73,12.861,12.861,0,0,1-2.32.9,15.786,15.786,0,0,0-2.36.53Z" transform="translate(-418.47 -147.614)" fill="#263238"/>
      <path id="Path_843" data-name="Path 843" d="M443.38,441.28A3.88,3.88,0,0,0,444,439a7.79,7.79,0,0,0-1-4.09,2,2,0,0,0-1.54-1.21,1.13,1.13,0,0,0-1,.68,2.911,2.911,0,0,0-.24.88,5.181,5.181,0,0,0,0,1.62,5.579,5.579,0,0,0,1,2.49c.95,1.24,1.93,1.51,1.95,1.43a9.5,9.5,0,0,1-1.47-1.76,5.389,5.389,0,0,1-.77-2.26,4.669,4.669,0,0,1,0-1.39c.07-.51.26-.92.45-.87a1.772,1.772,0,0,1,.85.78,9,9,0,0,1,.6,1.31,8.859,8.859,0,0,1,.48,2.4C443.5,440.37,443.25,441.25,443.38,441.28Z" transform="translate(-418.47 -147.614)" fill="#263238"/>
      <path id="Path_844" data-name="Path 844" d="M510.58,320.53,455,311.77A19.34,19.34,0,0,0,439.7,316h0a19.32,19.32,0,0,0-7,15.6l3.95,101.09H471V354.16l32.9.61,26.09-23,18.82-3.34,14-8.54Z" transform="translate(-418.47 -147.614)" fill="#263238"/>
      <path id="Path_845" data-name="Path 845" d="M471,334.32a1,1,0,0,1,0,.25,4.213,4.213,0,0,0,.05.74c0,.66.08,1.62.11,2.87.08,2.49.15,6.09.21,10.54.12,8.9.21,21.19.24,34.77s0,25.89-.15,34.79c-.06,4.45-.13,8.05-.23,10.54a25.987,25.987,0,0,1-.16,2.86,6.014,6.014,0,0,1-.07.74.674.674,0,0,0,0,.25.933.933,0,0,1,0-.25v-.75c0-.65,0-1.61.05-2.86,0-2.49.06-6.09.07-10.54V383.49C471,356.77,471,337.14,471,334.32Z" transform="translate(-418.47 -147.614)" fill="#455a64"/>
      <path id="Path_846" data-name="Path 846" d="M521.89,436.19l13.34,20.88s-16.75,20.57-14.66,24.67L562,457.34,542.54,424Z" transform="translate(-418.47 -147.614)" fill="#fd779b"/>
      <g id="Group_114" data-name="Group 114" transform="translate(127.167 300.069)" opacity="0.6">
        <path id="Path_847" data-name="Path 847" d="M547,447.73a2,2,0,0,1,2.3,1.25,1.87,1.87,0,0,1-1.21,2.29,2.06,2.06,0,0,1-2.43-1.32,2,2,0,0,1,1.52-2.25" transform="translate(-545.637 -447.683)" fill="#fff"/>
      </g>
      <g id="Group_115" data-name="Group 115" transform="translate(101.783 306.436)" opacity="0.6">
        <path id="Path_848" data-name="Path 848" d="M562,457.34l-2.09-3.29L521,478.68s-1.37,1.89-.4,3.06Z" transform="translate(-520.253 -454.05)" fill="#fff"/>
      </g>
      <path id="Path_849" data-name="Path 849" d="M534.43,457.26c.13.2,1.19-.31,2.57-.24s2.41.6,2.55.41-.85-1.18-2.52-1.23S534.28,457.1,534.43,457.26Z" transform="translate(-418.47 -147.614)" fill="#263238"/>
      <path id="Path_850" data-name="Path 850" d="M531.15,461.62c.07.22,1.15.05,2.34.5s1.92,1.24,2.11,1.11-.34-1.35-1.84-1.88S531,461.42,531.15,461.62Z" transform="translate(-418.47 -147.614)" fill="#263238"/>
      <path id="Path_851" data-name="Path 851" d="M531.74,468.27c.21-.07-.1-1.24-1.27-2s-2.38-.69-2.37-.47.95.47,1.9,1.14S531.53,468.37,531.74,468.27Z" transform="translate(-418.47 -147.614)" fill="#263238"/>
      <path id="Path_852" data-name="Path 852" d="M531.92,452.16c.19.14,1-.69,2.15-1.28s2.29-.76,2.29-1-1.28-.45-2.67.27S531.73,452.06,531.92,452.16Z" transform="translate(-418.47 -147.614)" fill="#263238"/>
      <g id="Group_116" data-name="Group 116" transform="translate(106.07 280.816)" opacity="0.3">
        <path id="Path_853" data-name="Path 853" d="M524.54,440.33l2.37,3.72,20.25-12.18-2-3.44Z" transform="translate(-524.54 -428.43)"/>
      </g>
      <path id="Path_854" data-name="Path 854" d="M529.31,447.9c.05.09.92-.26,2.07-1.23a11.118,11.118,0,0,0,1.77-1.95,10.707,10.707,0,0,0,.82-1.33,3,3,0,0,0,.34-.86,1,1,0,0,0-.54-1.13,1.3,1.3,0,0,0-1.16.06,3,3,0,0,0-.71.57,8.107,8.107,0,0,0-1,1.2,8.6,8.6,0,0,0-1.18,2.38,4.08,4.08,0,0,0-.22,2.41c.13,0,.22-.9.77-2.21a9.549,9.549,0,0,1,1.23-2.13,8.86,8.86,0,0,1,1-1.07c.37-.38.74-.6,1-.47s.11.08.09.26a2.628,2.628,0,0,1-.25.63,12.789,12.789,0,0,1-.73,1.27,14.121,14.121,0,0,1-1.55,1.95C530,447.28,529.24,447.79,529.31,447.9Z" transform="translate(-418.47 -147.614)" fill="#263238"/>
      <path id="Path_855" data-name="Path 855" d="M529.74,448a3.8,3.8,0,0,0-.63-2.33,7.831,7.831,0,0,0-2.89-3,2,2,0,0,0-1.94-.27,1.14,1.14,0,0,0-.53,1.09,3.122,3.122,0,0,0,.24.89,5.309,5.309,0,0,0,.82,1.39,5.411,5.411,0,0,0,2.15,1.62,3.14,3.14,0,0,0,2.4.27,22.194,22.194,0,0,1-2.15-.79,5.621,5.621,0,0,1-1.81-1.56,4.929,4.929,0,0,1-.66-1.22c-.2-.48-.24-.93,0-1a1.35,1.35,0,0,1,1.12.25,8.182,8.182,0,0,1,1.18.82,8.8,8.8,0,0,1,1.62,1.83C529.38,447.19,529.61,448.07,529.74,448Z" transform="translate(-418.47 -147.614)" fill="#263238"/>
      <path id="Path_856" data-name="Path 856" d="M445,262.55l-16.08-8.19c-4.19-1.81-5.79-2.85-5.4-3.61.52-1,.28-.65,8.36,1.56,0,0-11.51-3.26-8.46-4.51.53-.22,2.38.06,4.4.48-2.92-1-4-2-3.84-2.77.3-1.32,7.19.29,10.39,1.11-2.64-.71-7.67-2.12-8.72-2.77-1.43-.89.5-1.54,2.25-1.62,2-.1,13.46,1,16.8,1.14a2,2,0,0,0,2.28-1.94c-.69-4.79,1.33-8.89,2.4-9.75s2.6.33,2.18,1.79a17.881,17.881,0,0,0-.22,4.9,11.538,11.538,0,0,0,.86,3.81c.58,1.41,1.13,2.58,1.62,3.56l13.15,13.06-10.56,13.39Z" transform="translate(-418.47 -147.614)" fill="#ffbe9d"/>
      <path id="Path_857" data-name="Path 857" d="M436.07,253.93c-.05.2-2.56-.37-5.6-1.28s-5.45-1.82-5.38-2,2.57.38,5.6,1.29S436.12,253.73,436.07,253.93Z" transform="translate(-418.47 -147.614)" fill="#eb996e"/>
      <path id="Path_858" data-name="Path 858" d="M438.18,250.54c-.05.21-2.75-.26-6-1s-5.92-1.57-5.87-1.78,2.75.26,6,1S438.23,250.34,438.18,250.54Z" transform="translate(-418.47 -147.614)" fill="#eb996e"/>
      <path id="Path_859" data-name="Path 859" d="M439.82,247.63c-.05.21-2.61-.19-5.74-.88s-5.61-1.42-5.57-1.63,2.62.19,5.74.89S439.86,247.43,439.82,247.63Z" transform="translate(-418.47 -147.614)" fill="#eb996e"/>
      <path id="Path_860" data-name="Path 860" d="M516.07,151.43c4.1-1.25,8.36,2.41,12.56,1.59,2.55-.5,4.48-2.54,6.75-3.8a13.07,13.07,0,0,1,11.65-.45c3.47,1.76,5.7,3.64,6.17,7.5,3.15-1.81,8.42,2.16,10.21,6s1.34,7.79.32,11.89a55.671,55.671,0,0,1-9.23,19.65c-.38.52-1,1.09-1.57.82a1.4,1.4,0,0,1-.61-1.14c-.6-3.75-.13-7.58.2-11.37s.48-7.69-.71-11.3-4-6.9-7.75-7.64A12.05,12.05,0,0,0,536,164.9c-2.45,1.37-4.6,3.21-6.93,4.78a15.54,15.54,0,0,1-7.76,3c-2.81.13-5.81-1.2-7-3.74s.15-6.15,2.89-6.73a5.52,5.52,0,0,1-1.11-10.78Z" transform="translate(-418.47 -147.614)" fill="#263238"/>
      <path id="Path_861" data-name="Path 861" d="M557.83,175.31l-4.06,42.44c-.69,7.22-8.26,17.92-15.44,16.87h0c-6.69-1-10.46-12.57-9.81-19.31.31-3.19.56-5.86.57-6.19,0,0-10.7-2.05-10.46-12.82.12-5.2,1.23-15.9,2.36-25.57A20,20,0,0,1,541.62,153h1C553.84,154.09,559.19,164.17,557.83,175.31Z" transform="translate(-418.47 -147.614)" fill="#ffbe9d"/>
      <path id="Path_862" data-name="Path 862" d="M529.08,209a25,25,0,0,0,14.17-3.5s-3.59,7.63-14.29,6.28Z" transform="translate(-418.47 -147.614)" fill="#eb996e"/>
      <path id="Path_863" data-name="Path 863" d="M523.87,178.05a1.54,1.54,0,0,0,1.43,1.61,1.48,1.48,0,0,0,1.63-1.34,1.54,1.54,0,0,0-1.43-1.6,1.48,1.48,0,0,0-1.63,1.33Z" transform="translate(-418.47 -147.614)" fill="#263238"/>
      <path id="Path_864" data-name="Path 864" d="M523.11,176.1c.19.2,1.38-.62,3-.55s2.83.93,3,.73-.09-.45-.61-.86a4.19,4.19,0,0,0-2.41-.83,4.05,4.05,0,0,0-2.42.68C523.21,175.65,523,176,523.11,176.1Z" transform="translate(-418.47 -147.614)" fill="#263238"/>
      <path id="Path_865" data-name="Path 865" d="M540.07,179.18a1.54,1.54,0,0,0,1.43,1.61,1.48,1.48,0,0,0,1.63-1.33,1.54,1.54,0,0,0-1.42-1.61,1.48,1.48,0,0,0-1.64,1.33Z" transform="translate(-418.47 -147.614)" fill="#263238"/>
      <path id="Path_866" data-name="Path 866" d="M539.36,177c.18.2,1.38-.62,3-.56s2.84.94,3,.74-.09-.45-.61-.86a4.3,4.3,0,0,0-2.41-.84,4.05,4.05,0,0,0-2.42.69C539.46,176.53,539.27,176.88,539.36,177Z" transform="translate(-418.47 -147.614)" fill="#263238"/>
      <path id="Path_867" data-name="Path 867" d="M532.93,189a11.061,11.061,0,0,0-2.67-.58c-.42-.06-.82-.15-.88-.44a2.12,2.12,0,0,1,.33-1.25l1.36-3.17c1.89-4.52,3.28-8.24,3.1-8.31s-1.87,3.52-3.76,8c-.46,1.12-.9,2.18-1.31,3.2a2.381,2.381,0,0,0-.28,1.65,1,1,0,0,0,.67.64,3,3,0,0,0,.71.12A10.44,10.44,0,0,0,532.93,189Z" transform="translate(-418.47 -147.614)" fill="#263238"/>
      <path id="Path_868" data-name="Path 868" d="M537.76,190.35c-.27,0-.34,1.77-1.92,3s-3.49.95-3.51,1.2.41.37,1.22.42a4.51,4.51,0,0,0,2.93-.91,3.94,3.94,0,0,0,1.49-2.51C538.06,190.79,537.88,190.34,537.76,190.35Z" transform="translate(-418.47 -147.614)" fill="#263238"/>
      <path id="Path_869" data-name="Path 869" d="M539.16,170.48c.15.45,1.81.3,3.74.6s3.48.89,3.75.49c.13-.19-.13-.62-.75-1.08a6.62,6.62,0,0,0-5.71-.83C539.47,169.92,539.1,170.26,539.16,170.48Z" transform="translate(-418.47 -147.614)" fill="#263238"/>
      <path id="Path_870" data-name="Path 870" d="M523.89,171.33c.28.39,1.43,0,2.8.07s2.52.34,2.8-.05c.13-.18,0-.57-.54-.94a4.08,4.08,0,0,0-4.51,0C523.94,170.76,523.77,171.14,523.89,171.33Z" transform="translate(-418.47 -147.614)" fill="#263238"/>
      <path id="Path_871" data-name="Path 871" d="M556.68,183.25c.18-.07,7.47-1.93,7,5.42s-7.78,5.34-7.77,5.13S556.68,183.25,556.68,183.25Z" transform="translate(-418.47 -147.614)" fill="#ffbe9d"/>
      <path id="Path_872" data-name="Path 872" d="M558.32,191.16a2.5,2.5,0,0,0,.33.22,1.28,1.28,0,0,0,1,.08,3.16,3.16,0,0,0,1.65-2.74,4.17,4.17,0,0,0-.23-1.86,1.5,1.5,0,0,0-.9-1.05.65.65,0,0,0-.78.3c-.11.2-.07.35-.11.36s-.15-.13-.07-.43a.76.76,0,0,1,.32-.44.92.92,0,0,1,.72-.14,1.79,1.79,0,0,1,1.26,1.23,4.249,4.249,0,0,1,.3,2.07c-.14,1.48-1,2.82-2.08,3.05a1.39,1.39,0,0,1-1.16-.27C558.32,191.34,558.29,191.18,558.32,191.16Z" transform="translate(-418.47 -147.614)" fill="#eb996e"/>
      <path id="Path_873" data-name="Path 873" d="M518.79,168.42a15.54,15.54,0,0,0,13.91-2.63c2.7-2.13,4.83-5.25,8.15-6.14a8.74,8.74,0,0,1,6.65,1.15,16.861,16.861,0,0,1,4.91,4.83c-2.27,5.4-1.09,11.56.13,17.28a2.87,2.87,0,0,0,.79,1.73c.85.7,2.17.22,3-.54a9.09,9.09,0,0,0,2.16-4.73,30.211,30.211,0,0,0,.35-11.94,20.61,20.61,0,0,0-5.3-10.6A19.52,19.52,0,0,0,540,151.17a24,24,0,0,0-14.08,4.49,14,14,0,0,0-4.7,5.05" transform="translate(-418.47 -147.614)" fill="#263238"/>
      <path id="Path_874" data-name="Path 874" d="M512.89,153.92a1.56,1.56,0,0,0,.05.64,3,3,0,0,0,1,1.55,4.71,4.71,0,0,0,2.72,1,7.581,7.581,0,0,0,1.83-.05,3.82,3.82,0,0,0,1.9-.8,2.61,2.61,0,0,0,1-2,2.31,2.31,0,0,0-1.5-1.94,2.81,2.81,0,0,0-1.32-.21,2.41,2.41,0,0,0-1.28.52,3.36,3.36,0,0,0-1.19,2.53,3.93,3.93,0,0,0,1.07,2.75,5.92,5.92,0,0,0,2.61,1.6,9.69,9.69,0,0,0,6.31-.46,27.632,27.632,0,0,0,5.56-3.09,35.442,35.442,0,0,1,5-3,11,11,0,0,1,5.1-1,10.361,10.361,0,0,1,4.36,1.29,13,13,0,0,1,4.72,4.6,17.814,17.814,0,0,1,.88,1.6,6.2,6.2,0,0,0,.29.57v-.16a1.489,1.489,0,0,0-.18-.44,13.612,13.612,0,0,0-.82-1.64,13,13,0,0,0-4.73-4.76,10.579,10.579,0,0,0-4.47-1.36,11.08,11.08,0,0,0-5.25,1.05,34.386,34.386,0,0,0-5.11,3,27.049,27.049,0,0,1-5.49,3.05,9.32,9.32,0,0,1-6.07.46,5.51,5.51,0,0,1-2.46-1.5,3.53,3.53,0,0,1-1-2.5,3,3,0,0,1,1.05-2.29,2.2,2.2,0,0,1,2.28-.28,2,2,0,0,1,1.34,1.67,2.34,2.34,0,0,1-.88,1.83,3.69,3.69,0,0,1-1.78.78,8.309,8.309,0,0,1-1.78.07,4.61,4.61,0,0,1-2.65-1,3,3,0,0,1-1-1.46,4.928,4.928,0,0,1-.11-.62Z" transform="translate(-418.47 -147.614)" fill="#455a64"/>
      <path id="Path_875" data-name="Path 875" d="M564.5,168.64a12.84,12.84,0,0,1-2.27.51,6.44,6.44,0,0,1-2.46-.35,10.4,10.4,0,0,1-2.71-1.42,8.62,8.62,0,0,1-3.13-4.5,16.285,16.285,0,0,1-.4-2.3,1.679,1.679,0,0,0-.07.64,7.261,7.261,0,0,0,.23,1.73,8.37,8.37,0,0,0,3.15,4.73,10.379,10.379,0,0,0,2.83,1.44,6,6,0,0,0,2.58.28,5.6,5.6,0,0,0,1.69-.45,2,2,0,0,0,.56-.31Z" transform="translate(-418.47 -147.614)" fill="#455a64"/>
      <path id="Path_876" data-name="Path 876" d="M564,174c0-.07-.87.09-2.26,0a10.13,10.13,0,0,1-8.39-6c-.57-1.27-.7-2.14-.77-2.13a1.93,1.93,0,0,0,.06.62,8.639,8.639,0,0,0,.47,1.61,9.92,9.92,0,0,0,3.41,4.33,9.821,9.821,0,0,0,5.2,1.8,8.051,8.051,0,0,0,1.68-.08A2,2,0,0,0,564,174Z" transform="translate(-418.47 -147.614)" fill="#455a64"/>
      <path id="Path_877" data-name="Path 877" d="M544.61,184.2a.191.191,0,1,0-.13-.24.19.19,0,0,0,.13.24Z" transform="translate(-418.47 -147.614)" fill="#eb996e"/>
      <path id="Path_878" data-name="Path 878" d="M541.47,183.37a.19.19,0,0,0,.23-.18.2.2,0,0,0-.12-.26c-.1,0-.2,0-.23.18A.21.21,0,0,0,541.47,183.37Z" transform="translate(-418.47 -147.614)" fill="#eb996e"/>
      <path id="Path_879" data-name="Path 879" d="M539.35,183.25c.1,0,.2-.11.23-.27s0-.31-.14-.32-.2.1-.22.26S539.25,183.23,539.35,183.25Z" transform="translate(-418.47 -147.614)" fill="#eb996e"/>
      <path id="Path_880" data-name="Path 880" d="M543,186.13c.1,0,.18,0,.18-.11s-.07-.12-.18-.12-.18,0-.18.11S542.89,186.13,543,186.13Z" transform="translate(-418.47 -147.614)" fill="#eb996e"/>
      <path id="Path_881" data-name="Path 881" d="M540.11,185.36a.213.213,0,0,0,.05-.42.19.19,0,0,0-.2.19.2.2,0,0,0,.15.23Z" transform="translate(-418.47 -147.614)" fill="#eb996e"/>
      <path id="Path_882" data-name="Path 882" d="M525.09,183a.21.21,0,0,0,.23-.16.22.22,0,0,0-.13-.25.213.213,0,0,0-.1.41Z" transform="translate(-418.47 -147.614)" fill="#eb996e"/>
      <path id="Path_883" data-name="Path 883" d="M523,182.75a.215.215,0,0,0,.21-.2c.02-.13,0-.24-.15-.25s-.2.08-.22.2a.21.21,0,0,0,.16.25Z" transform="translate(-418.47 -147.614)" fill="#eb996e"/>
      <path id="Path_884" data-name="Path 884" d="M527,183.15a.18.18,0,0,0,.22-.12.19.19,0,0,0-.14-.2.17.17,0,1,0-.08.32Z" transform="translate(-418.47 -147.614)" fill="#eb996e"/>
      <path id="Path_885" data-name="Path 885" d="M525.32,185.24a.19.19,0,0,0,.26-.11.2.2,0,1,0-.26.11Z" transform="translate(-418.47 -147.614)" fill="#eb996e"/>
      <path id="Path_886" data-name="Path 886" d="M523.49,184.81a.17.17,0,0,0,.15-.19.18.18,0,0,0-.22-.11.16.16,0,1,0,.07.3Z" transform="translate(-418.47 -147.614)" fill="#eb996e"/>
      <path id="Path_887" data-name="Path 887" d="M561.2,193.27a4.85,4.85,0,0,1,.14,1.67,2.45,2.45,0,0,1-.86,1.52,2.21,2.21,0,0,1-2,.45,2,2,0,0,1-1.38-1.48,2.58,2.58,0,0,1,.36-1.7,3.78,3.78,0,0,1,1.12-1.26c0-.05-.75.15-1.34,1.12a2.78,2.78,0,0,0-.47,1.9,2.31,2.31,0,0,0,1.6,1.77,2.53,2.53,0,0,0,2.33-.55,2.61,2.61,0,0,0,.89-1.73,2.82,2.82,0,0,0-.16-1.3,1,1,0,0,0-.23-.41Z" transform="translate(-418.47 -147.614)" fill="#263238"/>
      <path id="Path_888" data-name="Path 888" d="M561.22,192a.747.747,0,0,0-.43.49,1.08,1.08,0,0,0,.68,1.38,1,1,0,0,0,.92-.19.8.8,0,0,0,.3-.7c-.05-.46-.35-.59-.36-.54a1.244,1.244,0,0,1,.1.54.57.57,0,0,1-.24.44.69.69,0,0,1-.61.1.81.81,0,0,1-.47-.42.9.9,0,0,1-.07-.55C561.1,192.24,561.26,192.06,561.22,192Z" transform="translate(-418.47 -147.614)" fill="#263238"/>
      <path id="Path_889" data-name="Path 889" d="M548.5,327.64c-.9.08-58,6.84-66.94,11.87-4.95,2.78-4.51,7.64-5.28,9.71-3,8.12-.45,16.34,3.76,23.91l41.85,73,26.54-17.85L521.76,370l40.83-4a22.2,22.2,0,0,0,18.62-17.31l4.86-22.52Z" transform="translate(-418.47 -147.614)" fill="#263238"/>
      <path id="Path_890" data-name="Path 890" d="M548.43,428.25c-.13.06-7.76-16.37-17-36.69s-16.69-36.86-16.56-36.92,7.76,16.37,17,36.7S548.56,428.19,548.43,428.25Z" transform="translate(-418.47 -147.614)" fill="#455a64"/>
      <path id="Path_891" data-name="Path 891" d="M548.5,331.14a.841.841,0,0,1-.27.05l-.78.07-3,.25-11.05.89c-9.32.77-22.22,1.75-36.42,3.1-1.78.17-3.53.36-5.26.56-.85.12-1.72.2-2.54.36a12.7,12.7,0,0,0-2.4.71,17.91,17.91,0,0,0-7.78,5.38,18.861,18.861,0,0,0-2.37,3.77,16.659,16.659,0,0,0-1.2,4,26.541,26.541,0,0,0-.18,7.56,45.319,45.319,0,0,0,2.7,10.68c.47,1.22.89,2.14,1.18,2.77l.34.7a1.232,1.232,0,0,1,.1.25,1.777,1.777,0,0,1-.15-.22c-.09-.15-.22-.38-.38-.69a28.175,28.175,0,0,1-1.28-2.73,43.5,43.5,0,0,1-2.87-10.71,27,27,0,0,1,.11-7.69,17.31,17.31,0,0,1,1.21-4.13,18.688,18.688,0,0,1,2.42-3.88,18.41,18.41,0,0,1,8-5.56,13.637,13.637,0,0,1,2.48-.73c.87-.18,1.71-.25,2.58-.37,1.73-.2,3.49-.4,5.27-.56,14.21-1.36,27.11-2.28,36.44-2.95l11.06-.73,3-.15h1.04Z" transform="translate(-418.47 -147.614)" fill="#455a64"/>
      <path id="Path_892" data-name="Path 892" d="M576.52,290.4l2.15-68.78L557,217l-2.34-3.81-14.56,9.36-2.92,6.57-3.53-7.5-5.25-4L526,222.3,509.71,229a6.81,6.81,0,0,0-3.49,3.24l-18.31,36.54L455.45,246.3,445.4,264,483,296a15.55,15.55,0,0,0,21.08-4.16l9.64-13.69,4,23,.66,23.37,28.3,5.27,39.63-3.68Z" transform="translate(-418.47 -147.614)" fill="#fd779b"/>
      <g id="Group_117" data-name="Group 117" transform="translate(126.79 163.916)" opacity="0.3">
        <path id="Path_893" data-name="Path 893" d="M545.26,329.49a58.56,58.56,0,0,0,39.22-10.08l-2.16-7.88Z" transform="translate(-545.26 -311.53)"/>
      </g>
      <path id="Path_894" data-name="Path 894" d="M578.67,221.62s-13.48,4.14-14.53,17.79-1.56,52.76-1.56,52.76-2.1,1.57-1.58,3.15-38.85,23.62-38.85,23.62L530,332.66s25.09-3,53.22-17.73c14.38-7.53,8.72-66.56,8.45-67.35S587.9,221.59,578.67,221.62Z" transform="translate(-418.47 -147.614)" fill="#fd779b"/>
      <path id="Path_895" data-name="Path 895" d="M517.74,301.21a2.5,2.5,0,0,1-.15-.58c-.09-.44-.21-1-.35-1.68-.29-1.53-.68-3.63-1.17-6.19s-1-5.75-1.67-9.2c-.31-1.73-.63-3.55-1-5.43s-.51-3.87-.78-5.88c-1-8-2-15.29-2.64-20.63-.31-2.59-.56-4.71-.75-6.25-.07-.7-.13-1.26-.17-1.71a2.27,2.27,0,0,1,0-.6,2.661,2.661,0,0,1,.13.59l.27,1.69c.23,1.54.53,3.65.91,6.23.72,5.34,1.71,12.59,2.8,20.6q.39,3,.77,5.88c.32,1.88.64,3.7.93,5.44.59,3.45,1.12,6.56,1.56,9.21s.76,4.68,1,6.22c.1.69.18,1.25.25,1.69a2.458,2.458,0,0,1,.06.6Z" transform="translate(-418.47 -147.614)" fill="#263238"/>
      <path id="Path_896" data-name="Path 896" d="M530,332.66a1.772,1.772,0,0,1-.15-.22l-.42-.68-1.58-2.67L522,319l-.1-.16.19-.07a95.047,95.047,0,0,0,17.49-9.52c6.47-4.2,13.46-9.39,21.66-13.74l-.11.36a3.47,3.47,0,0,1,2.54-4.95l-.23.22.41-3.17a165,165,0,0,0,1.09-27.4c-.17-4.21-.58-8.2-.82-12a52.174,52.174,0,0,1,.21-10.47,25.812,25.812,0,0,1,2.53-8.26,19.53,19.53,0,0,1,3.85-5.27,14.71,14.71,0,0,1,3.33-2.42,9.426,9.426,0,0,1,1-.46l.34-.13a17.231,17.231,0,0,0-4.5,3.16,19.379,19.379,0,0,0-3.73,5.25,25.74,25.74,0,0,0-2.42,8.18,52.318,52.318,0,0,0-.15,10.39c.26,3.74.68,7.74.87,12a162.718,162.718,0,0,1-1,27.49c-.14,1.09-.29,2.17-.42,3.18v.2h-.2a3,3,0,0,0-2.14,4.17l.14.23-.24.13c-8.15,4.31-15.15,9.48-21.65,13.65a93.248,93.248,0,0,1-17.63,9.46l.08-.24L528,329l1.51,2.71.38.71a1.12,1.12,0,0,1,.11.24Z" transform="translate(-418.47 -147.614)" fill="#263238"/>
      <path id="Path_897" data-name="Path 897" d="M568.34,302.59a13.31,13.31,0,0,0-7.17-7.34,3.36,3.36,0,0,1,1.54.4,10,10,0,0,1,5.26,5.4,3.4,3.4,0,0,1,.37,1.54Z" transform="translate(-418.47 -147.614)" fill="#263238"/>
      <path id="Path_898" data-name="Path 898" d="M570.35,299.18a23.262,23.262,0,0,0-2.82-4.47,22.131,22.131,0,0,0-4.13-3.28,8.73,8.73,0,0,1,4.51,2.94A8.91,8.91,0,0,1,570.35,299.18Z" transform="translate(-418.47 -147.614)" fill="#263238"/>
      <path id="Path_899" data-name="Path 899" d="M583.25,314.93a2.16,2.16,0,0,1-.49.29l-1.45.71c-1.27.61-3.11,1.46-5.4,2.47-4.59,2-11,4.71-18.19,7.31a149.519,149.519,0,0,1-18.78,5.63,58.771,58.771,0,0,1-5.86,1l-1.61.17a2.258,2.258,0,0,1-.57,0,2.421,2.421,0,0,1,.56-.13l1.59-.26c1.39-.17,3.36-.62,5.81-1.15a174.244,174.244,0,0,0,18.68-5.76c7.19-2.59,13.6-5.21,18.22-7.16l5.47-2.31,1.48-.63A2.191,2.191,0,0,1,583.25,314.93Z" transform="translate(-418.47 -147.614)" fill="#263238"/>
      <path id="Path_900" data-name="Path 900" d="M532.67,221.75a5.8,5.8,0,0,0-.29.51,9.368,9.368,0,0,0-.59,1.47,28.131,28.131,0,0,0-1.06,5.18l-.08.76-.4-.64-.11-.18c-1.13-1.85-2-3.58-2.78-4.72s-1.4-1.77-1.34-1.83a5.589,5.589,0,0,1,1.63,1.61,51.394,51.394,0,0,1,2.93,4.66l.11.18-.48.11a21.242,21.242,0,0,1,1.24-5.25,6.419,6.419,0,0,1,.76-1.46C532.45,221.84,532.66,221.73,532.67,221.75Z" transform="translate(-418.47 -147.614)" fill="#263238"/>
      <path id="Path_901" data-name="Path 901" d="M554.86,219.1c0,.07-1.17.86-3,2.36a39.591,39.591,0,0,0-6.29,6.55,41.113,41.113,0,0,0-2.33,3.45l-.27.45-.17-.5c-.84-2.41-1.54-4.48-2-5.95a13.5,13.5,0,0,1-.68-2.38,16.69,16.69,0,0,1,1,2.27c.56,1.45,1.33,3.5,2.2,5.9h-.44a33.993,33.993,0,0,1,2.34-3.52,34.589,34.589,0,0,1,6.47-6.52,27.355,27.355,0,0,1,2.29-1.59A3.72,3.72,0,0,1,554.86,219.1Z" transform="translate(-418.47 -147.614)" fill="#263238"/>
      <path id="Path_902" data-name="Path 902" d="M540.1,294.15a3.126,3.126,0,0,1-.11-.62c-.06-.47-.13-1.06-.22-1.8-.18-1.56-.41-3.82-.68-6.62-.53-5.59-1.15-13.33-1.67-21.89s-.81-16.32-.95-21.94c-.07-2.81-.11-5.08-.12-6.65v-1.81a3.342,3.342,0,0,1,0-.63,2.791,2.791,0,0,1,.07.63l.1,1.8c.07,1.64.16,3.89.28,6.65.24,5.61.59,13.36,1.1,21.92s1.09,16.29,1.52,21.89c.21,2.75.39,5,.51,6.63,0,.74.09,1.34.12,1.81A2.331,2.331,0,0,1,540.1,294.15Z" transform="translate(-418.47 -147.614)" fill="#263238"/>
      <path id="Path_903" data-name="Path 903" d="M560,277.16a8.094,8.094,0,0,1-.9,1.14c-.6.72-1.51,1.73-2.65,2.95a114.56,114.56,0,0,1-9.52,9,116.147,116.147,0,0,1-10.47,7.86c-1.4.92-2.55,1.64-3.36,2.11a7.313,7.313,0,0,1-1.28.69A8.326,8.326,0,0,1,533,300l3.26-2.25c2.74-1.91,6.45-4.66,10.35-7.94s7.23-6.48,9.58-8.85l2.77-2.83a6.651,6.651,0,0,1,1.04-.97Z" transform="translate(-418.47 -147.614)" fill="#263238"/>
      <path id="Path_904" data-name="Path 904" d="M536.78,310.41a40.829,40.829,0,0,1-.16-6.4,38.52,38.52,0,0,1,.37-6.39,40.085,40.085,0,0,1,.15,6.4A38.065,38.065,0,0,1,536.78,310.41Z" transform="translate(-418.47 -147.614)" fill="#263238"/>
      <g id="Group_118" data-name="Group 118" transform="translate(87.36 109.776)" opacity="0.3">
        <path id="Path_905" data-name="Path 905" d="M513.4,278.71a157.855,157.855,0,0,0-2.68-21.32,214.17,214.17,0,0,1-4.89,32Z" transform="translate(-505.83 -257.39)"/>
      </g>
      <g id="Group_119" data-name="Group 119" transform="translate(118.74 71.126)" opacity="0.3">
        <path id="Path_906" data-name="Path 906" d="M537.21,229.12c1-.84,2.23-.15,2.84,1a8.78,8.78,0,0,1,.54,3.87,4.691,4.691,0,0,0,.41,2.13,1.94,1.94,0,0,0,1.72,1.12,2.93,2.93,0,0,0,2-1.5q6-8.23,11.14-17c-5.57,2.15-9.31,7.44-12.91,13-.15.05-2.92-9-2.92-9-.77,1.95-2,4.34-2.8,6.28" transform="translate(-537.21 -218.74)"/>
      </g>
      <g id="Group_120" data-name="Group 120" transform="translate(107.26 74.006)" opacity="0.3">
        <path id="Path_907" data-name="Path 907" d="M525.73,222.52a55.212,55.212,0,0,0,8.14,13.15,35.059,35.059,0,0,0-.72-9.69c1,.71,3.05,2.44,4.06,3.14,0,0-2.2-4.76-3.11-6.5-.24-.46-.61-1-1.13-1s-.88.73-1,1.31q-.74,2.84-1.46,5.68A15.66,15.66,0,0,0,526,222.2" transform="translate(-525.73 -221.62)"/>
      </g>
      <g id="Group_121" data-name="Group 121" transform="translate(114.243 130.927)" opacity="0.3">
        <path id="Path_908" data-name="Path 908" d="M532.81,300.15a8.86,8.86,0,0,1,3.31-8.29c1.94-1.46,4.43-2.06,6.36-3.54,3.34-2.54,4.63-7.34,8.34-9.29,1.39-.73,3.5-.75,4.14.69.57,1.28-.46,2.68-1.43,3.69A102.23,102.23,0,0,1,532.8,300" transform="translate(-532.713 -278.541)"/>
      </g>
      <g id="Group_122" data-name="Group 122" transform="translate(143.11 147.596)" opacity="0.3">
        <path id="Path_909" data-name="Path 909" d="M561.58,295.82a10.06,10.06,0,0,1,2.94,6.95,10.864,10.864,0,0,0,.1,2.28,2.12,2.12,0,0,0,1.42,1.64,2,2,0,0,0,2.18-1.74,5.331,5.331,0,0,0-.63-3c-1.22-2.77-2.94-5.58-5.73-6.74" transform="translate(-561.58 -295.21)"/>
      </g>
      <g id="Group_123" data-name="Group 123" transform="translate(68.9 120.496)" opacity="0.2">
        <path id="Path_910" data-name="Path 910" d="M487.59,268.56c1.59,1.81,2.78,6.54,2.62,8.94s-.75,3-.53,5.42c.05.44-.71.6-.36.87a1.24,1.24,0,0,0,1.78-.71,3.579,3.579,0,0,0-.11-2.19,1.53,1.53,0,0,0,1.89,1.42,2.47,2.47,0,0,0,1.68-2,6.831,6.831,0,0,0-.19-2.73,18.67,18.67,0,0,0-2-5.94,7.12,7.12,0,0,0-5-3.53" transform="translate(-487.37 -268.11)"/>
      </g>
      <path id="Path_911" data-name="Path 911" d="M489.58,283.37a33.282,33.282,0,0,0,.2-7.65,32.681,32.681,0,0,0-2.09-7.38,6.629,6.629,0,0,1,1.14,2,18.711,18.711,0,0,1,1.47,5.32,18.9,18.9,0,0,1-.11,5.52A7.331,7.331,0,0,1,489.58,283.37Z" transform="translate(-418.47 -147.614)" fill="#263238"/>
      <path id="Path_912" data-name="Path 912" d="M549.62,402.46c-4.19-18.72,3-50.86,16.29-64.65a59.3,59.3,0,0,1,52.62-16.76v82.33Z" transform="translate(-418.47 -147.614)" fill="#455a64"/>
      <path id="Path_913" data-name="Path 913" d="M618.22,367.76c0,.05-13.07,7.85-29.27,17.44s-29.34,17.31-29.37,17.26,13.07-7.86,29.27-17.44S618.19,367.71,618.22,367.76Z" transform="translate(-418.47 -147.614)" fill="#fafafa"/>
      <path id="Path_914" data-name="Path 914" d="M618.22,339.74s-.23.16-.69.44l-2,1.23-7.37,4.49c-6.23,3.78-14.85,9-24.42,14.64s-18.26,10.74-24.59,14.34c-3.17,1.79-5.74,3.24-7.53,4.21l-2.06,1.12c-.47.26-.73.38-.73.38s.24-.15.71-.41l2-1.16,7.49-4.27c6.32-3.63,15-8.72,24.57-14.39s18.15-10.83,24.44-14.58l7.41-4.44,2-1.19C618,339.87,618.22,339.74,618.22,339.74Z" transform="translate(-418.47 -147.614)" fill="#fafafa"/>
      <path id="Path_915" data-name="Path 915" d="M609.34,321.54l-.49.29-1.44.8-5.3,2.91c-4.48,2.44-10.71,5.74-17.6,9.36l-24.93,13.19s.16-.11.49-.29l1.43-.81,5.3-2.9c4.49-2.44,10.71-5.75,17.61-9.37Z" transform="translate(-418.47 -147.614)" fill="#fafafa"/>
      <path id="Path_916" data-name="Path 916" d="M616.81,321.61h-.32l-.94-.09c-.82-.05-2-.25-3.6-.32a66,66,0,0,0-13.24.48c-.69.1-1.4.17-2.12.3l-2.2.45c-1.51.25-3,.75-4.62,1.15a56.761,56.761,0,0,0-9.73,3.92,49.66,49.66,0,0,0-18,15.56,66.742,66.742,0,0,0-6.17,10.81,77,77,0,0,0-4.06,10.87A89.879,89.879,0,0,0,549.43,375a91.207,91.207,0,0,0-.82,22.37c.1,1.57.34,2.76.41,3.59l.11.93a1.541,1.541,0,0,1,0,.32,1.279,1.279,0,0,1-.07-.31,6.721,6.721,0,0,0-.16-.93c-.11-.82-.38-2-.51-3.58a77.862,77.862,0,0,1-.35-13.31,89.085,89.085,0,0,1,1-9.15,90.884,90.884,0,0,1,2.34-10.3,76.24,76.24,0,0,1,4.06-11,67,67,0,0,1,6.2-10.9,49.9,49.9,0,0,1,18.22-15.69,56.209,56.209,0,0,1,9.83-3.9c1.6-.4,3.13-.89,4.65-1.14l2.22-.43c.73-.12,1.45-.19,2.14-.29A63.669,63.669,0,0,1,612,321c1.57.1,2.77.33,3.6.42l.93.13Z" transform="translate(-418.47 -147.614)" fill="#263238"/>
      <path id="Path_917" data-name="Path 917" d="M523,320.36a32,32,0,0,1-6.63-.87,22.809,22.809,0,0,0-8-1c-1.86.29-6.64,2.17-9.69,3s-5.5.14-5.65,1.59,1.45,3.25,4.49,3.25c0,0-3.33,1.1-2.75,1.82s1.59,2.47,3,2.47a3.09,3.09,0,0,0,2.61,2.9s.87,2.17,5.07,3.18c0,0-.32,1.89,2.88,2.47s21.17-7.54,21.17-7.54Z" transform="translate(-418.47 -147.614)" fill="#ffbe9d"/>
    </g>
    <g id="freepik--character-1--inject-2" transform="translate(165.297 156.498)">
      <path id="Path_918" data-name="Path 918" d="M187.21,217.83c-2.42-2.35-6.56-.31-8.59,2.38s-3.47,6.14-6.56,7.5-7.09.18-9.68,2.34c-3.57,3-1.57,9.84-5.43,12.41-1.53,1-3.55,1-5.19,1.84-3.86,2-3.82,7.43-3.22,11.73.84,6,1.75,12.3,5.09,17.4s9.81,8.7,15.58,6.73c5.54-1.89,8.39-7.88,10.64-13.28l9.36-22.44c1.81-4.33,3.63-8.72,4.22-13.37s-.21-9.67-3.16-13.31" transform="translate(-145.475 -156.498)" fill="#263238"/>
      <path id="Path_919" data-name="Path 919" d="M180.64,173.67c-.07-2.48,2.22-4.39,4.52-5.3s4.87-1.25,6.93-2.63c1.82-1.23,3-3.14,4.58-4.7a15.25,15.25,0,0,1,25.65,7c.88,3.53.28,7.69-2.5,10-3.23,2.72-8,2.11-12.15,1.27s-8.81-1.68-12.26.74c-2.08,1.47-3.28,3.85-4.55,6s-2.87,4.46-5.27,5.29-5.68-.6-5.77-3.15" transform="translate(-145.475 -156.498)" fill="#263238"/>
      <path id="Path_920" data-name="Path 920" d="M180.81,175c.27,2.07-1.23,3.93-2.73,5.4s-3.18,3-3.45,5.09c-.3,2.43,1.47,4.82,1,7.21-.32,1.51-1.5,2.68-2.22,4.06a8.63,8.63,0,0,0-.44,6.36c.62,2.09,1.6,6.76,3.05,8.39a33.5,33.5,0,0,0,16.29,9.71,63,63,0,0,0,18,1c4.93-.3,10.59-.07,14.69-6.85,2.13-3.51,3.18-8.17,4.31-12.12,1-3.39,1.81-7,.8-10.41-.59-2-1.77-3.73-2.35-5.7-.73-2.47-.47-5.11-.76-7.66a17.57,17.57,0,0,0-25-13.88" transform="translate(-145.475 -156.498)" fill="#263238"/>
      <path id="Path_921" data-name="Path 921" d="M224.59,183.54c-.46-7.07-5.17-15.73-12.21-15l-22,5.61a4.14,4.14,0,0,0-3.7,4.21l2.47,53H189s5,15,19.54,10.39c2.88-.91,4.2-4.06,4.77-7.3h.15v-1.11a34.76,34.76,0,0,0,.09-7.28h0v-6s9-1.52,10.87-13.31C225.41,201,225.1,191.39,224.59,183.54Z" transform="translate(-145.475 -156.498)" fill="#ffbe9d"/>
      <path id="Path_922" data-name="Path 922" d="M223.45,190.61a1.51,1.51,0,0,1-1.45,1.53,1.45,1.45,0,0,1-1.56-1.36,1.51,1.51,0,0,1,1.45-1.53,1.44,1.44,0,0,1,1.56,1.36Z" transform="translate(-145.475 -156.498)" fill="#263238"/>
      <path id="Path_923" data-name="Path 923" d="M222.51,188.54c-.18.2-1.33-.65-3-.64s-2.81.82-3,.62.11-.44.62-.82a4.1,4.1,0,0,1,2.4-.74,4,4,0,0,1,2.36.75C222.44,188.09,222.61,188.45,222.51,188.54Z" transform="translate(-145.475 -156.498)" fill="#263238"/>
      <path id="Path_924" data-name="Path 924" d="M207,191.17a1.52,1.52,0,0,1-1.46,1.53,1.45,1.45,0,0,1-1.56-1.36,1.51,1.51,0,0,1,1.45-1.53,1.45,1.45,0,0,1,1.57,1.36Z" transform="translate(-145.475 -156.498)" fill="#263238"/>
      <path id="Path_925" data-name="Path 925" d="M206.53,188.88c-.18.19-1.33-.65-3-.64s-2.81.82-3,.62.1-.44.62-.82a4.1,4.1,0,0,1,2.4-.74,4,4,0,0,1,2.35.75C206.45,188.43,206.62,188.79,206.53,188.88Z" transform="translate(-145.475 -156.498)" fill="#263238"/>
      <path id="Path_926" data-name="Path 926" d="M212.46,200.92a10.739,10.739,0,0,1,2.64-.48c.42,0,.81-.13.88-.41a2.19,2.19,0,0,0-.28-1.23l-1.24-3.16c-1.71-4.5-3-8.2-2.77-8.26s1.72,3.52,3.43,8c.41,1.11.81,2.16,1.18,3.17a2.41,2.41,0,0,1,.22,1.63,1,1,0,0,1-.68.61,2.742,2.742,0,0,1-.7.1,10.92,10.92,0,0,1-2.68.03Z" transform="translate(-145.475 -156.498)" fill="#263238"/>
      <path id="Path_927" data-name="Path 927" d="M213.63,220.16A29.93,29.93,0,0,1,197.84,216s3.84,8.09,15.63,7Z" transform="translate(-145.475 -156.498)" fill="#eb996e"/>
      <path id="Path_928" data-name="Path 928" d="M211.78,204.84a2.93,2.93,0,0,0-2.63-1.08,2.71,2.71,0,0,0-1.84,1,1.7,1.7,0,0,0-.13,1.94,2,2,0,0,0,2.14.54,6.3,6.3,0,0,0,2.07-1.25,1.61,1.61,0,0,0,.46-.48.54.54,0,0,0,0-.61" transform="translate(-145.475 -156.498)" fill="#eb996e"/>
      <path id="Path_929" data-name="Path 929" d="M207.68,202.06c.26,0,.27,1.75,1.78,3s3.39,1.06,3.41,1.3-.42.35-1.21.37a4.43,4.43,0,0,1-2.85-1,3.83,3.83,0,0,1-1.38-2.52C207.36,202.48,207.56,202.05,207.68,202.06Z" transform="translate(-145.475 -156.498)" fill="#263238"/>
      <path id="Path_930" data-name="Path 930" d="M207.26,186c-.16.44-1.78.24-3.69.47s-3.45.76-3.7.36c-.12-.19.15-.6.77-1a6.46,6.46,0,0,1,5.63-.64C207,185.47,207.33,185.82,207.26,186Z" transform="translate(-145.475 -156.498)" fill="#263238"/>
      <path id="Path_931" data-name="Path 931" d="M221.91,183.83c-.29.37-1.41,0-2.76,0s-2.48.25-2.75-.13c-.11-.19.07-.56.56-.91a4,4,0,0,1,4.44.13C221.87,183.27,222,183.65,221.91,183.83Z" transform="translate(-145.475 -156.498)" fill="#263238"/>
      <path id="Path_932" data-name="Path 932" d="M182.18,212.94a10.46,10.46,0,0,0,12.44-11.57c-.36-2.9-1.92-5.84-.92-8.58,1.33-3.62,6.4-4.73,7.75-8.35.78-2.1.08-4.55,1-6.61s2.87-3.05,4.85-3.77,4.11-1.21,5.77-2.5,2.7-3.74,1.63-5.55a111.449,111.449,0,0,0-25.75,6.26c-1.92.71-3.94,1.58-5.07,3.29s-1.15,4.14-1,6.31q.75,15.87,1.48,31.73" transform="translate(-145.475 -156.498)" fill="#263238"/>
      <path id="Path_933" data-name="Path 933" d="M182.92,217l-.19-.13-.53-.39c-.45-.36-1.12-.89-1.95-1.62a20.4,20.4,0,0,1-2.77-2.92,10.83,10.83,0,0,1-2.2-4.85,7.37,7.37,0,0,1,1.52-6.19,23.87,23.87,0,0,1,2.74-2.35,6.24,6.24,0,0,0,2.14-2.92c.88-2.4.49-5.18.82-8a16.1,16.1,0,0,1,3.34-8.12,11,11,0,0,1,3.5-2.85,20.62,20.62,0,0,1,4.12-1.39,9.76,9.76,0,0,0,3.62-1.79,14.319,14.319,0,0,0,2.62-2.89c1.48-2.1,2.58-4.34,4-6.21a13.68,13.68,0,0,1,2.32-2.47,9.17,9.17,0,0,1,2.75-1.5,5.87,5.87,0,0,1,5.23.53,4.78,4.78,0,0,1,1.86,3.52,3.45,3.45,0,0,1-.71,2.43,2,2,0,0,1-.48.46l-.18.12s0-.06.15-.16a3.22,3.22,0,0,0,.43-.48,3.51,3.51,0,0,0,.59-2.35,4.61,4.61,0,0,0-1.82-3.31,5.6,5.6,0,0,0-5-.41,8.52,8.52,0,0,0-2.62,1.46A14,14,0,0,0,204,164.6c-1.36,1.84-2.44,4.08-3.94,6.23a14.7,14.7,0,0,1-2.7,3,10.22,10.22,0,0,1-3.79,1.88,21.75,21.75,0,0,0-4,1.37,10.589,10.589,0,0,0-3.33,2.72,15.63,15.63,0,0,0-3.23,7.85c-.35,2.75.05,5.57-.88,8.13a6.88,6.88,0,0,1-2.3,3.11,24.067,24.067,0,0,0-2.71,2.27,7,7,0,0,0-1.48,5.86,10.75,10.75,0,0,0,2.07,4.73,21.152,21.152,0,0,0,2.68,2.94c.8.75,1.45,1.3,1.88,1.69A4.9,4.9,0,0,1,182.92,217Z" transform="translate(-145.475 -156.498)" fill="#455a64"/>
      <path id="Path_934" data-name="Path 934" d="M255.94,298.95l17.36-33.03-8.52-9.15-21.91,21.07,6.15,16.92Z" transform="translate(-145.475 -156.498)" fill="#fd779b"/>
      <path id="Path_935" data-name="Path 935" d="M216.06,235.52h0a29,29,0,0,1,16.42,14.95l22.38,47.62,19.28,7.81-17,4.9L242,299.71Z" transform="translate(-145.475 -156.498)" fill="#fd779b"/>
      <path id="Path_936" data-name="Path 936" d="M257.16,310.8,249,317.06l-40.52-41.68-23.16-41.84,2.68-7.78,18,7.46,5.17,6.51,2.67-9.06,1.15,1.63,1.87,5.06s17.58,14.63,21.38,26.23c3.16,9.69,2.17,29.69,4.1,35.12Z" transform="translate(-145.475 -156.498)" fill="#fafafa"/>
      <path id="Path_937" data-name="Path 937" d="M181,233c-.27.81-17.32,7.66-18.13,13.63s12.25,52.13,12.25,52.13l20.71,18.3H249l-16.87-31.59a80.47,80.47,0,0,0-13.65-18.56c-5-5.06-11-11.32-14.15-15.05-3.37-4.05-17.66-23-17.66-23Z" transform="translate(-145.475 -156.498)" fill="#fd779b"/>
      <path id="Path_938" data-name="Path 938" d="M191.69,234.89a19.77,19.77,0,0,1,3,1.35c1.83.9,4.34,2.16,7.1,3.59l3.14,1.64-.36.24a22.72,22.72,0,0,1,.33-5.58,7.67,7.67,0,0,1,.59-2.11,21.733,21.733,0,0,1-.28,2.16,27.34,27.34,0,0,0-.15,5.49v.44l-.39-.2-3.15-1.61c-2.76-1.43-5.24-2.75-7-3.73a21.852,21.852,0,0,1-2.83-1.68Z" transform="translate(-145.475 -156.498)" fill="#263238"/>
      <path id="Path_939" data-name="Path 939" d="M216.31,237.38a6.76,6.76,0,0,1-1,1.62l-.21.3-.11-.37c-.34-1.13-.78-2.72-1.22-4.49a1.4,1.4,0,0,0-.11-.4l.49.06c-1.6,3-2.58,5.55-2.72,5.5a21,21,0,0,1,2.26-5.74l.31-.6.17.65a1.952,1.952,0,0,0,.1.4c.45,1.77.83,3.37,1.07,4.53l-.32-.06a6.9,6.9,0,0,1,1.29-1.4Z" transform="translate(-145.475 -156.498)" fill="#263238"/>
      <path id="Path_940" data-name="Path 940" d="M232.69,277a10.07,10.07,0,0,1-.85-1.35l-2.17-3.77c-1.82-3.19-4.35-7.58-7.22-12.39s-5.53-9.12-7.46-12.24l-2.28-3.7a9.27,9.27,0,0,1-.79-1.39,8.858,8.858,0,0,1,1,1.28c.58.84,1.41,2.07,2.42,3.61,2,3.07,4.72,7.36,7.6,12.18s5.35,9.24,7.09,12.47c.88,1.62,1.57,2.93,2,3.85a8.57,8.57,0,0,1,.66,1.45Z" transform="translate(-145.475 -156.498)" fill="#263238"/>
      <g id="Group_124" data-name="Group 124" transform="translate(77.875 131.31)" opacity="0.3">
        <path id="Path_941" data-name="Path 941" d="M224.5,309.16a27.748,27.748,0,0,0,9.34.47c3.08-.53,6.1-2.53,7.06-5.51a5.82,5.82,0,0,1,1.16-2.67c1.18-1.1,3.08-.42,4.69-.57a5.87,5.87,0,0,0,4.28-3,17.331,17.331,0,0,0,1.79-5.09,7.719,7.719,0,0,0,.32-2.65,2.66,2.66,0,0,0-1.38-2.15c-1.22-.55-2.59.25-3.68,1-8.77,6.32-16.76,13.63-24.73,20.93" transform="translate(-223.35 -287.808)"/>
      </g>
      <path id="Path_942" data-name="Path 942" d="M362.11,372.76l15.45,19.37s24.88-9.21,28.08-5.91l-36.47,31.32-25.32-29.18Z" transform="translate(-145.475 -156.498)" fill="#455a64"/>
      <g id="Group_125" data-name="Group 125" transform="translate(219.159 242.951)" opacity="0.6">
        <path id="Path_943" data-name="Path 943" d="M364.93,400.23a2,2,0,0,0,.43,2.59,1.88,1.88,0,0,0,2.56-.41,2.06,2.06,0,0,0-.46-2.73,2,2,0,0,0-2.63.71" transform="translate(-364.633 -399.449)" fill="#fff"/>
      </g>
      <g id="Group_126" data-name="Group 126" transform="translate(221.265 228.969)" opacity="0.6">
        <path id="Path_944" data-name="Path 944" d="M369.17,417.54l-2.43-3,35.87-28.89s2.23-.69,3,.61Z" transform="translate(-366.74 -385.467)" fill="#fff"/>
      </g>
      <path id="Path_945" data-name="Path 945" d="M378,391.43c.14.19-.68,1-1.06,2.36s-.21,2.47-.44,2.54-.84-1.18-.34-2.78S377.89,391.24,378,391.43Z" transform="translate(-145.475 -156.498)" fill="#263238"/>
      <path id="Path_946" data-name="Path 946" d="M383.18,389.73c.19.14-.32,1.1-.28,2.38s.55,2.22.37,2.36-1.17-.76-1.19-2.35S383,389.57,383.18,389.73Z" transform="translate(-145.475 -156.498)" fill="#263238"/>
      <path id="Path_947" data-name="Path 947" d="M389.28,392.44c-.13.18-1.14-.5-1.52-1.86s.12-2.48.32-2.39.14,1.05.47,2.16S389.45,392.27,389.28,392.44Z" transform="translate(-145.475 -156.498)" fill="#263238"/>
      <path id="Path_948" data-name="Path 948" d="M374,387.41c.07.23-1,.68-1.91,1.62s-1.46,1.92-1.68,1.85,0-1.36,1.12-2.44S374,387.2,374,387.41Z" transform="translate(-145.475 -156.498)" fill="#263238"/>
      <g id="Group_127" data-name="Group 127" transform="translate(201.775 220.102)" opacity="0.3">
        <path id="Path_949" data-name="Path 949" d="M365.16,376.6l2.76,3.45-18.06,15.23-2.61-3Z" transform="translate(-347.25 -376.6)"/>
      </g>
      <path id="Path_950" data-name="Path 950" d="M370.79,383.56c.07.08-.54.79-1.83,1.56a10.559,10.559,0,0,1-2.42,1.06,11.291,11.291,0,0,1-1.52.34,2.71,2.71,0,0,1-.92,0,1,1,0,0,1-.9-.87,1.3,1.3,0,0,1,.43-1.08,3.071,3.071,0,0,1,.77-.49,8.519,8.519,0,0,1,1.47-.59,8.4,8.4,0,0,1,2.63-.34,4,4,0,0,1,2.35.56c0,.13-.92-.07-2.34,0a9.22,9.22,0,0,0-2.42.48,8.845,8.845,0,0,0-1.32.58c-.47.23-.81.51-.76.76s0,.13.22.17a2.25,2.25,0,0,0,.67,0,11.845,11.845,0,0,0,1.44-.28,13.5,13.5,0,0,0,2.35-.84,17.354,17.354,0,0,1,2.1-1.02Z" transform="translate(-145.475 -156.498)" fill="#263238"/>
      <path id="Path_951" data-name="Path 951" d="M370.78,384a4.093,4.093,0,0,1-2-1.35,7.839,7.839,0,0,1-1.46-2.22,6.94,6.94,0,0,1-.49-1.5,2,2,0,0,1,.37-1.93,1.12,1.12,0,0,1,1.2-.14,3,3,0,0,1,.76.51,5,5,0,0,1,1.06,1.22,5.58,5.58,0,0,1,.84,2.56c.1,1.56-.46,2.41-.53,2.36a18.447,18.447,0,0,0,0-2.29,5.65,5.65,0,0,0-.9-2.21,4.771,4.771,0,0,0-.94-1c-.39-.34-.8-.53-.91-.36a1.38,1.38,0,0,0-.13,1.15,8.093,8.093,0,0,0,.4,1.37,8.65,8.65,0,0,0,1.21,2.13C370.09,383.4,370.85,383.91,370.78,384Z" transform="translate(-145.475 -156.498)" fill="#263238"/>
      <path id="Path_952" data-name="Path 952" d="M345.2,428.1l-.93,24.76s24.85,9.27,25.12,13.86l-48.07-.09L321.2,428Z" transform="translate(-145.475 -156.498)" fill="#455a64"/>
      <g id="Group_128" data-name="Group 128" transform="translate(182.497 294.232)" opacity="0.6">
        <path id="Path_953" data-name="Path 953" d="M329.41,450.75A2,2,0,0,0,328,453a1.9,1.9,0,0,0,2.21,1.37,2.07,2.07,0,0,0,1.43-2.38,2,2,0,0,0-2.45-1.17" transform="translate(-327.972 -450.73)" fill="#fff"/>
      </g>
      <g id="Group_129" data-name="Group 129" transform="translate(175.845 306.232)" opacity="0.6">
        <path id="Path_954" data-name="Path 954" d="M321.32,466.63l.14-3.9,46,1.55s2.13.94,1.89,2.44Z" transform="translate(-321.32 -462.73)" fill="#fff"/>
      </g>
      <path id="Path_955" data-name="Path 955" d="M345.05,452.62c0,.23-1.19.34-2.34,1.09s-1.78,1.74-2,1.64.13-1.44,1.55-2.33S345.1,452.4,345.05,452.62Z" transform="translate(-145.475 -156.498)" fill="#263238"/>
      <path id="Path_956" data-name="Path 956" d="M350.08,454.71c.06.23-1,.63-1.76,1.62s-1,2-1.26,2-.39-1.34.63-2.55S350.08,454.49,350.08,454.71Z" transform="translate(-145.475 -156.498)" fill="#263238"/>
      <path id="Path_957" data-name="Path 957" d="M352.94,460.75c-.22.05-.54-1.12.06-2.4s1.71-1.8,1.81-1.6-.59.88-1.07,1.94S353.17,460.73,352.94,460.75Z" transform="translate(-145.475 -156.498)" fill="#263238"/>
      <path id="Path_958" data-name="Path 958" d="M344.63,447c-.09.22-1.17-.11-2.5,0s-2.36.5-2.48.3.87-1,2.44-1.12S344.75,446.77,344.63,447Z" transform="translate(-145.475 -156.498)" fill="#263238"/>
      <g id="Group_130" data-name="Group 130" transform="translate(175.725 276.512)" opacity="0.3">
        <path id="Path_959" data-name="Path 959" d="M345.01,433.01l-.16,4.41-23.62-.26-.03-3.98Z" transform="translate(-321.2 -433.01)"/>
      </g>
      <path id="Path_960" data-name="Path 960" d="M344.73,442a4.52,4.52,0,0,1-2.41,0,11.25,11.25,0,0,1-2.51-.78,11.592,11.592,0,0,1-1.38-.74,2.749,2.749,0,0,1-.73-.57,1,1,0,0,1-.11-1.25,1.33,1.33,0,0,1,1-.53,3,3,0,0,1,.91.13,9.31,9.31,0,0,1,1.49.51,8.461,8.461,0,0,1,2.22,1.46c1.11,1,1.49,1.92,1.41,2s-.65-.66-1.78-1.51a9.492,9.492,0,0,0-2.14-1.22,8.342,8.342,0,0,0-1.39-.42c-.5-.14-.94-.14-1.07.08s0,.12.05.27a2.6,2.6,0,0,0,.54.42,13.767,13.767,0,0,0,1.27.73,13.545,13.545,0,0,0,2.32.89,18.174,18.174,0,0,1,2.31.53Z" transform="translate(-145.475 -156.498)" fill="#263238"/>
      <path id="Path_961" data-name="Path 961" d="M344.42,442.29a3.93,3.93,0,0,1-.63-2.33,8.09,8.09,0,0,1,.34-2.63,8.239,8.239,0,0,1,.61-1.46,2,2,0,0,1,1.54-1.22,1.15,1.15,0,0,1,1,.68,3.231,3.231,0,0,1,.24.88,5.18,5.18,0,0,1,0,1.62,5.471,5.471,0,0,1-1,2.49c-.95,1.24-1.92,1.52-1.94,1.44a10.056,10.056,0,0,0,1.46-1.77,5.481,5.481,0,0,0,.76-2.26,4.668,4.668,0,0,0,0-1.39c-.07-.51-.26-.92-.45-.87a1.752,1.752,0,0,0-.85.79,8.374,8.374,0,0,0-.6,1.3,9,9,0,0,0-.47,2.4C344.3,441.37,344.55,442.25,344.42,442.29Z" transform="translate(-145.475 -156.498)" fill="#263238"/>
      <path id="Path_962" data-name="Path 962" d="M266.46,283.38,292.17,224s-14.91,18.67-22.71,18.5c0,0-8.62,19-14.17,34.08l-8.46,21.84Z" transform="translate(-145.475 -156.498)" fill="#fff"/>
      <path id="Path_963" data-name="Path 963" d="M266.46,283.38a1.921,1.921,0,0,1-.32.28l-1,.79-3.87,3-14.35,11.1-.5.39.23-.59c2.75-7.17,6-15.72,9.68-25.24s8-19.9,12.88-30.73l.07-.15h.17a9.65,9.65,0,0,0,4.36-1.34,48.321,48.321,0,0,0,10-8c3-3,5.69-6,8.17-9l1.14-1.4-.72,1.66c-7.48,17.17-13.93,32-18.53,42.57-2.31,5.24-4.14,9.42-5.41,12.31-.63,1.41-1.12,2.51-1.47,3.28-.16.35-.29.63-.38.84s-.14.28-.15.27l.11-.3c.09-.22.21-.5.35-.87l1.4-3.32c1.24-2.91,3-7.12,5.28-12.39,4.56-10.57,10.94-25.41,18.34-42.59l.43.25a119.834,119.834,0,0,1-8.2,9.1,48.22,48.22,0,0,1-10.1,8.1,10,10,0,0,1-4.62,1.41l.24-.16c-4.84,10.82-9.24,21.18-12.91,30.69s-7,18.05-9.79,25.19l-.27-.2,14.42-11,3.93-2.95,1-.76Z" transform="translate(-145.475 -156.498)" fill="#263238"/>
      <path id="Path_964" data-name="Path 964" d="M164.47,416.25l7.72,50.47h7.65l-3.77-50.28Z" transform="translate(-145.475 -156.498)" fill="#263238"/>
      <path id="Path_965" data-name="Path 965" d="M300.26,416.44v50.28h8.08l3.01-50.47Z" transform="translate(-145.475 -156.498)" fill="#263238"/>
      <path id="Path_966" data-name="Path 966" d="M244.93,272.73s3.26-7.49,5-8.53,12.37-5.88,12.37-5.88l-1.09,2.38,10.59-6.32a5,5,0,0,1-.82,4.45c-1.65,2.26-1.1,2.06-1.1,2.06s1.79,1.07.89,2.67a35.1,35.1,0,0,1-2.42,3.55s1.65,2,1,3.9a8.07,8.07,0,0,1,.24,3.92c-.39,2.28-4.51,6.62-4.51,6.62l-20.57,9.79-8.29-14.08Z" transform="translate(-145.475 -156.498)" fill="#ffbe9d"/>
      <path id="Path_967" data-name="Path 967" d="M199.56,260.77l12.34,26.34,27.36-11.89s11.35,6.63,9.78,13.87l-24.65,20.25a22.06,22.06,0,0,1-16.69,4.85h0a22.08,22.08,0,0,1-15.77-9.79l-17.84-27.15-10-16.31a15.24,15.24,0,0,1,.42-16.88,12.53,12.53,0,0,1,3.52-3.3C172.51,238.05,185.74,236.87,199.56,260.77Z" transform="translate(-145.475 -156.498)" fill="#fd779b"/>
      <path id="Path_968" data-name="Path 968" d="M249.55,289.12l.27-.16.79-.42L253.7,287l11.27-5.6h-.05a32.275,32.275,0,0,0,3.5-4.46,5.55,5.55,0,0,0,1-2.77,8.08,8.08,0,0,0-.32-3.09v-.16a4.19,4.19,0,0,0-.95-3.66l-.12-.16.12-.15a35.156,35.156,0,0,0,2.06-3,2.14,2.14,0,0,0,.52-1.56,2.2,2.2,0,0,0-1-1.31h.23a.34.34,0,0,1-.4-.14.4.4,0,0,1,0-.25,1.284,1.284,0,0,1,.06-.23c.06-.12.11-.23.17-.34l.39-.62c.26-.4.57-.8.82-1.18a4.84,4.84,0,0,0,.76-2.65,3.881,3.881,0,0,0-.19-1.24l.38.13-10.59,6.31-.69.41.33-.73,1.1-2.39.32.33c-4.54,2.09-8.75,4-12.27,5.78a6.84,6.84,0,0,0-1.78,2.11c-.49.78-.92,1.55-1.31,2.29-.79,1.49-1.44,2.86-2,4.06h0l-4.48,2.26-1.17.58a2.3,2.3,0,0,1-.42.17,3.44,3.44,0,0,1,.38-.24l1.15-.63,4.42-2.37-.06.06c.53-1.22,1.16-2.6,1.93-4.1.38-.76.81-1.54,1.29-2.33a12.394,12.394,0,0,1,.8-1.19,3.879,3.879,0,0,1,1.1-1.07c3.56-1.89,7.73-3.77,12.27-5.89l.6-.27-.28.6c-.35.78-.72,1.58-1.09,2.39l-.35-.32,10.58-6.33.28-.17.1.3a5,5,0,0,1,.23,1.42,5.4,5.4,0,0,1-.85,2.94c-.29.44-.57.79-.83,1.19-.13.19-.25.39-.36.58a2.7,2.7,0,0,0-.15.29.607.607,0,0,0,0,.11h-.26c0,.14-.06-.2-.05-.16h.22a2.7,2.7,0,0,1,1.23,1.66,1.94,1.94,0,0,1-.11,1.07,8.526,8.526,0,0,1-.47.86,36.223,36.223,0,0,1-2.11,3V267a6.54,6.54,0,0,1,1,2,3.62,3.62,0,0,1,0,2.16v-.17a8.331,8.331,0,0,1,.34,3.3,4.84,4.84,0,0,1-.36,1.58,9.2,9.2,0,0,1-.74,1.39,32.067,32.067,0,0,1-3.59,4.5h0L253.9,287.2l-3.13,1.47-.83.37a1.21,1.21,0,0,1-.39.08Z" transform="translate(-145.475 -156.498)" fill="#eb996e"/>
      <path id="Path_969" data-name="Path 969" d="M261.91,260.28a25.928,25.928,0,0,1-4.3,3,26.728,26.728,0,0,1-4.57,2.52,25.928,25.928,0,0,1,4.3-3A26.732,26.732,0,0,1,261.91,260.28Z" transform="translate(-145.475 -156.498)" fill="#eb996e"/>
      <path id="Path_970" data-name="Path 970" d="M270.15,260a30.88,30.88,0,0,1-3.84,4.14A30.21,30.21,0,0,1,262.1,268a31.278,31.278,0,0,1,3.84-4.15A30.229,30.229,0,0,1,270.15,260Z" transform="translate(-145.475 -156.498)" fill="#eb996e"/>
      <path id="Path_971" data-name="Path 971" d="M269.05,266.37a9.54,9.54,0,0,1-1.8,2.52,9.72,9.72,0,0,1-2.2,2.18,9.369,9.369,0,0,1,1.8-2.52A9.26,9.26,0,0,1,269.05,266.37Z" transform="translate(-145.475 -156.498)" fill="#eb996e"/>
      <path id="Path_972" data-name="Path 972" d="M269.42,270.65c.11.09-.34.79-.92,1.62s-1.08,1.49-1.2,1.42.18-.87.77-1.72S269.32,270.55,269.42,270.65Z" transform="translate(-145.475 -156.498)" fill="#eb996e"/>
      <path id="Path_973" data-name="Path 973" d="M220.19,312s0-.05.12-.12l.39-.33,1.55-1.25,5.92-4.69L249.26,289l-.09.17a10.43,10.43,0,0,0-.77-4,16.59,16.59,0,0,0-2.27-3.7,29,29,0,0,0-7-6h.23l-14.17,6.16L212,287.34l-.22.1-.11-.21c-3.63-7.15-7-13.87-10.38-19.71-1.69-2.93-3.36-5.64-4.94-8.17s-3-4.87-4.49-6.89a25.45,25.45,0,0,0-8.52-7.9c-.59-.35-1.14-.62-1.61-.85s-.88-.42-1.21-.56-.56-.24-.75-.33a1.849,1.849,0,0,1-.25-.12,24.43,24.43,0,0,1,8.08,4.56,29,29,0,0,1,4.53,5c1.5,2,3,4.36,4.56,6.87s3.28,5.23,5,8.16c3.44,5.84,6.82,12.56,10.46,19.7l-.33-.12L225,281.14,239.16,275l.12-.05.11.07a29.251,29.251,0,0,1,7.12,6.14,17.841,17.841,0,0,1,2.33,3.83,11.181,11.181,0,0,1,.79,4.24v.1l-.09.07-21.2,16.39-6,4.58-1.59,1.2-.41.3Z" transform="translate(-145.475 -156.498)" fill="#263238"/>
      <path id="Path_974" data-name="Path 974" d="M210.24,295.39c-.15-.06.61-1.94,1-4.37s.4-4.46.56-4.47a13.6,13.6,0,0,1-1.6,8.84Z" transform="translate(-145.475 -156.498)" fill="#263238"/>
      <path id="Path_975" data-name="Path 975" d="M322.08,317.06l45.12,59.96-21.1,18.13-21.73-28.41Z" transform="translate(-145.475 -156.498)" fill="#fd779b"/>
      <path id="Path_976" data-name="Path 976" d="M226.54,319.92s72.6-22.11,79.25-21.83,19.27,24.29,19.27,24.29l-20.38-.74L278.91,361l-41.67-2Z" transform="translate(-145.475 -156.498)" fill="#fd779b"/>
      <path id="Path_977" data-name="Path 977" d="M285.88,302.45c0,.14-7.42,2.48-16.66,5.23s-16.77,4.86-16.81,4.72,7.42-2.48,16.66-5.22S285.84,302.31,285.88,302.45Z" transform="translate(-145.475 -156.498)" fill="#263238"/>
      <path id="Path_978" data-name="Path 978" d="M302.75,321.25h20.38a24,24,0,0,1,22.62,16h0a37.051,37.051,0,0,1,2.05,14.08l-1.58,82.92H318.78l-.5-26.5-3.47-50.37-23.75,1-13.46-.84Z" transform="translate(-145.475 -156.498)" fill="#fd779b"/>
      <path id="Path_979" data-name="Path 979" d="M303.36,320.84a13.486,13.486,0,0,1-.39,1.75,43.7,43.7,0,0,1-1.44,4.68,48.171,48.171,0,0,1-3,6.6,53.761,53.761,0,0,1-5,7.39A132.638,132.638,0,0,1,282.46,353l-3.52,3.39a11,11,0,0,1-1.34,1.19,13.458,13.458,0,0,1,1.19-1.34c.79-.84,2-2,3.41-3.5a159.045,159.045,0,0,0,10.94-11.78,54,54,0,0,0,8.05-13.79c.72-1.92,1.28-3.5,1.59-4.6a11.154,11.154,0,0,1,.58-1.73Z" transform="translate(-145.475 -156.498)" fill="#263238"/>
      <path id="Path_980" data-name="Path 980" d="M328.29,321.81a36.478,36.478,0,0,1-3.71-.18c-2.28-.13-5.44-.22-8.92-.15s-6.64.28-8.93.43a29.244,29.244,0,0,1-3.7.19,3.449,3.449,0,0,1,1-.21c.63-.1,1.55-.22,2.69-.35,2.28-.25,5.44-.51,8.95-.58a77.6,77.6,0,0,1,9,.31c1.14.1,2.07.22,2.7.33a4.109,4.109,0,0,1,.92.21Z" transform="translate(-145.475 -156.498)" fill="#263238"/>
      <path id="Path_981" data-name="Path 981" d="M318.66,419.11a3.473,3.473,0,0,1-.07-.69c0-.51-.07-1.17-.11-2-.08-1.79-.2-4.27-.33-7.3-.27-6.16-.64-14.67-1.23-24.06s-1.29-17.89-1.8-24c-.24-3-.45-5.5-.59-7.28-.06-.82-.1-1.48-.14-2a2.789,2.789,0,0,1,0-.69,3.131,3.131,0,0,1,.12.68c.06.51.13,1.16.23,2,.19,1.77.44,4.24.76,7.26.6,6.14,1.35,14.63,1.95,24s.9,17.92,1.08,24.09c.06,3,.12,5.51.16,7.3v2a3.081,3.081,0,0,1-.03.69Z" transform="translate(-145.475 -156.498)" fill="#263238"/>
      <path id="Path_982" data-name="Path 982" d="M347.85,348.15c.14,0,0,19-.22,42.43S347,433,346.89,433s-.05-19,.22-42.44S347.7,348.15,347.85,348.15Z" transform="translate(-145.475 -156.498)" fill="#263238"/>
      <path id="Path_983" data-name="Path 983" d="M325.46,345.05a47.938,47.938,0,0,0-5.86,2.76,46.919,46.919,0,0,0-5.11,4,5.5,5.5,0,0,1,1.2-1.51,19,19,0,0,1,7.88-4.83,5.65,5.65,0,0,1,1.89-.42Z" transform="translate(-145.475 -156.498)" fill="#263238"/>
      <g id="Group_131" data-name="Group 131" transform="translate(132.125 164.61)" opacity="0.3">
        <path id="Path_984" data-name="Path 984" d="M277.6,357.55c5.54,1.05,11.61-.69,16.35-3.73a22.57,22.57,0,0,0,9.6-13.42c.61-2.45.79-5,1.4-7.46a11.29,11.29,0,0,1,3.71-6.45c2.32-1.78,8-2.91,9.74-5.29,0-.36-6.78.45-9,.57-2.48.14-6.63.79-6.54.49a65.865,65.865,0,0,1-2.39,7.27c-4.95,8.73-15.8,21.56-22.82,28" transform="translate(-277.6 -321.108)"/>
      </g>
      <path id="Path_985" data-name="Path 985" d="M163.1,260.27s-10.8.43-14.12,5c-5.83,8-2.55,14.92-2.88,17.28s18.37,133.73,18.37,133.73h7.7l139.18,1.29L318,401.3l-3.22-43.91-37.21.16s-15.2-43.74-28.57-46.66c-9-2-30.21-1.28-42.95-.62a17.8,17.8,0,0,1-15.88-8.11Z" transform="translate(-145.475 -156.498)" fill="#455a64"/>
      <path id="Path_986" data-name="Path 986" d="M286.46,411.09s-.77.1-2.25.17-3.66.11-6.48.14c-5.64.08-13.84.1-24,.09-20.41,0-48.86-.18-81-.45h-.2l-.05-.2c-.58-2.75-1.17-5.58-1.77-8.45s-1.17-5.81-1.76-8.76c-7-35.62-11.08-68.26-13.28-91.93-1.11-11.83-1.77-21.43-2.19-28.07-.18-3.3-.32-5.87-.42-7.64,0-.86-.07-1.52-.1-2a3.708,3.708,0,0,1,0-.68,4.974,4.974,0,0,0,.07.68c.07.45.08,1.12.14,2,.12,1.76.3,4.33.52,7.63.48,6.63,1.2,16.22,2.35,28.05,2.3,23.65,6.45,56.26,13.43,91.86q.89,4.43,1.76,8.75t1.77,8.45l-.25-.2,81,.63,24,.06h6.48c.74,0,1.29-.06,1.67-.07Z" transform="translate(-145.475 -156.498)" fill="#263238"/>
      <path id="Path_987" data-name="Path 987" d="M285,417.3a2.469,2.469,0,0,1,.06-.63c.07-.46.15-1.05.26-1.77s.28-1.71.4-2.81.32-2.34.42-3.73.26-2.89.32-4.53.12-3.37.14-5.21a104.1,104.1,0,0,0-2.76-23.68c-.84-3.58-1.74-6.76-2.61-9.41-.39-1.33-.84-2.5-1.2-3.55s-.69-1.94-1-2.66l-.62-1.68a2.39,2.39,0,0,1-.18-.6,3.131,3.131,0,0,1,.28.56l.71,1.64c.31.72.68,1.6,1.06,2.64s.85,2.21,1.27,3.54c.91,2.63,1.86,5.82,2.73,9.41a109.614,109.614,0,0,1,2.11,11.81,104.372,104.372,0,0,1,.66,12c0,1.85-.06,3.6-.19,5.24s-.24,3.16-.39,4.54-.34,2.64-.49,3.73-.33,2-.49,2.8-.26,1.3-.36,1.76a3,3,0,0,1-.13.59Z" transform="translate(-145.475 -156.498)" fill="#263238"/>
      <path id="Path_988" data-name="Path 988" d="M183,323.18a3.37,3.37,0,0,1,.56-.48l1.68-1.28,1.23-.92c.47-.3,1-.6,1.55-.94a34.371,34.371,0,0,1,3.87-2.16l2.32-1.13c.8-.4,1.69-.69,2.58-1.06s1.82-.75,2.8-1.06l3-1a87.191,87.191,0,0,1,13.82-2.87,100.581,100.581,0,0,1,14.09-.86c2.17,0,4.23.14,6.16.21a50.775,50.775,0,0,1,5.34.53,71.376,71.376,0,0,1,7.64,1.41l2,.56a3.578,3.578,0,0,1,.7.23,3.782,3.782,0,0,1-.73-.13l-2.06-.47c-1.78-.37-4.39-.86-7.64-1.23-1.62-.21-3.41-.31-5.32-.47a58.121,58.121,0,0,0-6.13-.16,106.344,106.344,0,0,0-14,.89,90,90,0,0,0-13.74,2.82l-3,.93c-1,.3-1.89.7-2.79,1s-1.78.64-2.58,1-1.58.74-2.32,1.09a35.9,35.9,0,0,0-3.88,2.08c-.56.32-1.09.61-1.57.9l-1.24.88-1.73,1.2A4.283,4.283,0,0,1,183,323.18Z" transform="translate(-145.475 -156.498)" fill="#263238"/>
    </g>
    <g id="freepik--speech-bubble--inject-2" transform="translate(505.343 125.172)">
      <path id="Path_989" data-name="Path 989" d="M452.61,155.57a3.11,3.11,0,1,0,3.11-3.11A3.11,3.11,0,0,0,452.61,155.57Z" transform="translate(-406.406 -119.172)" fill="#263238"/>
      <circle id="Ellipse_6" data-name="Ellipse 6" cx="3.11" cy="3.11" r="3.11" transform="translate(33.744 33.288)" fill="#263238"/>
      <path id="Path_990" data-name="Path 990" d="M427.73,154a3.11,3.11,0,1,0,4.25-1.14,3.11,3.11,0,0,0-4.25,1.14Z" transform="translate(-406.406 -119.172)" fill="#263238"/>
      <path id="Path_991" data-name="Path 991" d="M443.07,119.22a3.729,3.729,0,0,0-.63,0l-1.85.05a11.1,11.1,0,0,0-1.36.06l-1.63.23-1.91.28-2.12.52a34.57,34.57,0,0,0-10.31,4.5,36.134,36.134,0,0,0-16.81,32.34,19.946,19.946,0,0,0,.16,2.55c.16.85.26,1.7.39,2.57a36.571,36.571,0,0,0,3.46,10.14,39.2,39.2,0,0,0,6.63,9.12,38.529,38.529,0,0,0,9.54,6.86A34.82,34.82,0,0,0,438.27,192a22.881,22.881,0,0,0,3.1.26,27.424,27.424,0,0,0,3.14.06,38.37,38.37,0,0,0,6.29-.79,37,37,0,0,0,12.51-5.27h-.38l12.74,5.11.75.31-.21-.79c-1.29-4.67-2.54-9.22-3.75-13.62l-.06.34a36.75,36.75,0,0,0,6.8-15.57,33.24,33.24,0,0,0,.49-8,24.245,24.245,0,0,0-.36-3.83c-.09-.62-.19-1.24-.29-1.86s-.3-1.21-.44-1.81a36.4,36.4,0,0,0-14.22-20.72,35.37,35.37,0,0,0-8.46-4.47l-1.91-.68-1.81-.46-1.65-.41c-.53-.1-1-.15-1.52-.23-1-.12-1.81-.29-2.56-.32l-1.87-.07h-1.14a2.29,2.29,0,0,0-.39,0,1.69,1.69,0,0,0,.39,0l1.14.09,1.86.13c.73.06,1.57.24,2.52.38a36.27,36.27,0,0,1,29,26.88c.14.59.32,1.18.43,1.78s.18,1.21.27,1.83a24.454,24.454,0,0,1,.34,3.76,32,32,0,0,1-.52,7.82,35.88,35.88,0,0,1-6.7,15.23l-.12.15v.19c1.2,4.4,2.45,9,3.72,13.63l.54-.48-12.74-5.13-.2-.08-.18.12a36,36,0,0,1-12.23,5.14,36.561,36.561,0,0,1-6.14.77,28.553,28.553,0,0,1-3.07,0,21.729,21.729,0,0,1-3-.26A33.729,33.729,0,0,1,427,187.69a37.52,37.52,0,0,1-9.35-6.69,38.55,38.55,0,0,1-6.51-8.91,36.051,36.051,0,0,1-3.43-9.93l-.39-2.51c-.12-.83-.11-1.68-.17-2.5a37.832,37.832,0,0,1,.08-4.89,36,36,0,0,1,16.28-27,34.719,34.719,0,0,1,10.14-4.58l2.1-.55,1.88-.31,1.62-.27c.5-.06.95-.07,1.35-.1l1.84-.13a3.079,3.079,0,0,0,.63-.1Z" transform="translate(-406.406 -119.172)" fill="#263238"/>
    </g>
    <g id="freepik--Plants--inject-2" transform="translate(129.303 73.31)">
      <rect id="Rectangle_42" data-name="Rectangle 42" width="67.19" height="9.23" transform="translate(31.005 335.59)" fill="#263238"/>
      <path id="Path_992" data-name="Path 992" d="M138,418.25H70.58v-9.46H138ZM70.81,418h67v-9h-67Z" transform="translate(-39.685 -73.31)" fill="#263238"/>
      <path id="Path_993" data-name="Path 993" d="M76.92,415.06l9.67,47.71h35.79l9.34-44.64Z" transform="translate(-39.685 -73.31)" fill="#263238"/>
      <path id="Path_994" data-name="Path 994" d="M76.92,458.26l5.16,7.09h43.5l6.14-7.09Z" transform="translate(-39.685 -73.31)" fill="#455a64"/>
      <path id="Path_995" data-name="Path 995" d="M101.76,416.46c-.13,0-.3-22.11-.37-49.37s0-49.36.1-49.36.3,22.09.37,49.36S101.9,416.46,101.76,416.46Z" transform="translate(-39.685 -73.31)" fill="#263238"/>
      <path id="Path_996" data-name="Path 996" d="M116.73,361.14a2.11,2.11,0,0,1-.18.52c-.16.37-.36.85-.6,1.43l-.44,1-.45,1.25-.51,1.44c-.18.51-.32,1.07-.5,1.64a67.077,67.077,0,0,0-1.88,8.23,98.51,98.51,0,0,0-1,10.29,138.749,138.749,0,0,0,.53,18.79c.22,2.4.44,4.33.59,5.67.07.63.13,1.14.17,1.55a1.84,1.84,0,0,1,0,.54,2,2,0,0,1-.12-.53c-.07-.4-.15-.91-.26-1.53-.22-1.33-.49-3.27-.75-5.67a123.531,123.531,0,0,1-.67-18.85,93.662,93.662,0,0,1,1.09-10.33,61.3,61.3,0,0,1,2-8.26c.18-.57.34-1.13.53-1.64l.55-1.43.49-1.25c.17-.37.34-.71.48-1l.68-1.39a3,3,0,0,1,.25-.47Z" transform="translate(-42.518 -73.31)" fill="#263238"/>
      <path id="Path_997" data-name="Path 997" d="M115,343.27a4.7,4.7,0,0,1-.21.73c-.18.51-.41,1.19-.7,2.05-.16.45-.33.94-.51,1.48s-.35,1.15-.54,1.79c-.4,1.28-.85,2.73-1.26,4.36-.21.82-.44,1.67-.67,2.56s-.41,1.83-.63,2.79c-.47,1.93-.81,4-1.24,6.2-.74,4.39-1.4,9.24-1.85,14.36s-.6,10-.67,14.47,0,8.47.23,11.84c.06,1.68.16,3.2.25,4.54s.16,2.48.25,3.42.12,1.63.16,2.17a7,7,0,0,1,0,.75,3.481,3.481,0,0,1-.12-.74c-.07-.54-.15-1.26-.26-2.16s-.22-2.09-.33-3.42-.24-2.86-.32-4.55c-.23-3.36-.32-7.38-.33-11.85s.21-9.37.64-14.51,1.12-10,1.88-14.4c.45-2.18.8-4.28,1.29-6.2l.66-2.8c.24-.89.48-1.74.71-2.56.42-1.63.9-3.08,1.32-4.35l.58-1.78c.2-.54.39-1,.55-1.47l.79-2a4.519,4.519,0,0,1,.33-.72Z" transform="translate(-42.365 -73.31)" fill="#263238"/>
      <path id="Path_998" data-name="Path 998" d="M97.51,420.37a1.829,1.829,0,0,1,0-.26,3.226,3.226,0,0,0-.07-.76c0-.71-.11-1.69-.19-2.93-.17-2.58-.4-6.25-.68-10.77-.58-9.08-1.42-21.64-3-35.45-.79-6.9-1.69-13.46-2.63-19.41-.51-3-1-5.79-1.47-8.41s-1-5.08-1.46-7.31-.93-4.23-1.33-6-.76-3.28-1.08-4.51-.53-2.17-.69-2.85c-.07-.31-.13-.55-.17-.75l-.05-.25a.569.569,0,0,0,.09.24l.22.73.78,2.83c.35,1.23.75,2.73,1.17,4.49s.93,3.76,1.4,6,1,4.67,1.51,7.3,1,5.45,1.51,8.42c1,5.95,1.89,12.52,2.67,19.43,1.53,13.82,2.32,26.39,2.82,35.48.25,4.55.42,8.23.52,10.78,0,1.25.08,2.23.11,2.93v.76a.8.8,0,0,1,.02.27Z" transform="translate(-39.685 -73.31)" fill="#263238"/>
      <path id="Path_999" data-name="Path 999" d="M101.22,328.35c-.3-3.13-3.46-5.49-6.61-5.52a10.35,10.35,0,0,0-8,4.34,24.91,24.91,0,0,0-3.86,8.55c-2.11,7.37-3.27,15.12-2.37,22.75s4,15.12,9.47,20.51c.89.87,2,1.75,3.26,1.49a3.94,3.94,0,0,0,1.72-1.07,50.9,50.9,0,0,0,16.53-38.71c-.09-2.9-.47-5.91-2.08-8.33s-5.34-5-8.07-4" transform="translate(-39.685 -73.31)" fill="#fd779b"/>
      <path id="Path_1000" data-name="Path 1000" d="M77.73,303.27l-4.43,8c-.1.19-.24.4-.45.42s-.4-.2-.53-.4q-5.86-9-11.71-18l2.7-1.53Z" transform="translate(-39.685 -73.31)" fill="#fd779b"/>
      <g id="Group_132" data-name="Group 132" transform="translate(20.925 218.45)" opacity="0.2">
        <path id="Path_1001" data-name="Path 1001" d="M77.73,303.27l-4.43,8c-.1.19-.24.4-.45.42s-.4-.2-.53-.4q-5.86-9-11.71-18l2.7-1.53Z" transform="translate(-60.61 -291.76)"/>
      </g>
      <path id="Path_1002" data-name="Path 1002" d="M101.49,317.73,61.54,294.15a1.82,1.82,0,0,1-1-1c-.16-.59.28-1.16.71-1.6a27.5,27.5,0,0,1,21.35-8.38,24.38,24.38,0,0,1,19.3,12c3.85,6.89,4,16-.44,22.54" transform="translate(-39.685 -73.31)" fill="#fd779b"/>
      <path id="Path_1003" data-name="Path 1003" d="M67.3,286.63a1.809,1.809,0,0,1,.52-.06c.35,0,.85-.08,1.51-.08a30.76,30.76,0,0,1,5.54.44,32.224,32.224,0,0,1,25.86,23.4,30.591,30.591,0,0,1,1,5.47c.07.65,0,.82.06,1.16a1.85,1.85,0,0,1-.31.87,6.56,6.56,0,0,0,.06-2,33.264,33.264,0,0,0-32.2-29.14C68,286.65,67.3,286.67,67.3,286.63Z" transform="translate(-39.685 -73.31)" fill="#263238"/>
      <path id="Path_1004" data-name="Path 1004" d="M96.08,301.46a10.072,10.072,0,0,1-2,.91c-1.27.51-3,1.15-5,1.78s-3.81,1.13-5.14,1.46a9.21,9.21,0,0,1-2.18.41,11.7,11.7,0,0,1,2.09-.74l5.09-1.59L94,302.06a10.331,10.331,0,0,1,2.08-.6Z" transform="translate(-39.685 -73.31)" fill="#263238"/>
      <path id="Path_1005" data-name="Path 1005" d="M89.79,284.56a16.909,16.909,0,0,1,.47,4.46,17.25,17.25,0,0,1-.24,4.47,27.38,27.38,0,0,1-.24-4.46,27,27,0,0,1,.01-4.47Z" transform="translate(-39.685 -73.31)" fill="#263238"/>
      <path id="Path_1006" data-name="Path 1006" d="M61.19,293.71a18.331,18.331,0,0,1,2.9-1c1.82-.56,4.35-1.27,7.16-1.95s5.4-1.2,7.27-1.53a17.9,17.9,0,0,1,3-.41,20.48,20.48,0,0,1-3,.74c-1.85.42-4.4,1-7.21,1.66S66,292.54,64.19,293A22.2,22.2,0,0,1,61.19,293.71Z" transform="translate(-39.685 -73.31)" fill="#263238"/>
      <path id="Path_1007" data-name="Path 1007" d="M84.64,321.56c-3.44-2.61-7.07-3.12-11.38-2.95a34.73,34.73,0,0,0-12.45,3.21c-6.74,2.95-13.07,7.3-17.09,13.45s-5.43,14.31-2.41,21a3,3,0,0,0,1.36,1.66,3.29,3.29,0,0,0,2.26-.17c7.66-2.5,15.37-5,22.41-8.94s13.46-9.35,17.24-16.47a14,14,0,0,0,1.81-5.46,6.79,6.79,0,0,0-1.75-5.34" transform="translate(-39.685 -73.31)" fill="#fd779b"/>
      <path id="Path_1008" data-name="Path 1008" d="M84.71,320.75a3.921,3.921,0,0,1-.56.22l-1.6.55-1.16.39c-.43.15-.87.34-1.36.53-1,.39-2.1.79-3.28,1.36l-1.88.86c-.65.3-1.3.67-2,1-1.39.68-2.79,1.55-4.29,2.43a75.3,75.3,0,0,0-9.07,6.73A75.657,75.657,0,0,0,51.69,343c-1.07,1.37-2.11,2.66-3,3.95-.44.64-.89,1.23-1.27,1.84l-1.09,1.76c-.72,1.1-1.25,2.16-1.76,3.07-.25.46-.5.89-.7,1.28l-.49,1.1-.75,1.52a2.56,2.56,0,0,1-.3.52,3.41,3.41,0,0,1,.21-.56c.17-.4.39-.92.67-1.56.15-.34.32-.72.49-1.13s.43-.83.67-1.3c.49-.93,1-2,1.71-3.13l1.07-1.78c.37-.61.82-1.22,1.25-1.87a49.581,49.581,0,0,1,3-4,71.079,71.079,0,0,1,7.85-8.23,72.239,72.239,0,0,1,9.16-6.74c1.51-.88,2.93-1.74,4.34-2.42.69-.34,1.35-.7,2-1l1.9-.83c1.2-.56,2.34-.93,3.33-1.3.49-.18.94-.35,1.37-.49l1.18-.35,1.64-.47a2.379,2.379,0,0,1,.54-.13Z" transform="translate(-39.685 -73.31)" fill="#263238"/>
      <path id="Path_1009" data-name="Path 1009" d="M57.87,335.28A81.279,81.279,0,0,1,49.51,338,84.442,84.442,0,0,1,41,340.21a80.915,80.915,0,0,1,8.35-2.7,79.441,79.441,0,0,1,8.52-2.23Z" transform="translate(-39.685 -73.31)" fill="#263238"/>
      <path id="Path_1010" data-name="Path 1010" d="M57.52,353.72a13.619,13.619,0,0,1-.18-2.6c-.05-1.61-.05-3.84,0-6.29s.2-4.68.33-6.29A12.62,12.62,0,0,1,58,336a15.51,15.51,0,0,1,0,2.61c-.06,1.77-.12,3.91-.2,6.28s-.11,4.51-.15,6.28a15,15,0,0,1-.13,2.55Z" transform="translate(-39.685 -73.31)" fill="#263238"/>
      <path id="Path_1011" data-name="Path 1011" d="M73.32,345.67c-.13,0-.55-4.51-.94-10.09s-.59-10.13-.46-10.14.55,4.52.94,10.1S73.45,345.67,73.32,345.67Z" transform="translate(-39.685 -73.31)" fill="#263238"/>
      <path id="Path_1012" data-name="Path 1012" d="M53.65,325a14.069,14.069,0,0,1,2.68-.09c1.66,0,3.94.06,6.45.15s4.8.18,6.45.28a14.228,14.228,0,0,1,2.66.26,15.7,15.7,0,0,1-2.67.08c-1.65,0-3.93-.06-6.45-.14s-4.8-.19-6.45-.29a16.6,16.6,0,0,1-2.67-.25Z" transform="translate(-39.685 -73.31)" fill="#263238"/>
      <path id="Path_1013" data-name="Path 1013" d="M91.57,380a3.371,3.371,0,0,1,0-.54,13.158,13.158,0,0,0-.07-1.54c-.06-1.33-.08-3.26,0-5.65s.21-5.23.5-8.38.76-6.59,1.4-10.19,1.46-7,2.28-10,1.69-5.78,2.49-8,1.49-4.06,2-5.3l.61-1.41a3.876,3.876,0,0,1,.24-.49,1.649,1.649,0,0,1-.15.52c-.13.38-.31.86-.52,1.45-.47,1.25-1.12,3.07-1.87,5.34s-1.57,5-2.39,8-1.57,6.44-2.23,10-1.1,7-1.43,10.15-.51,6-.6,8.35-.13,4.31-.13,5.64v1.54A2.1,2.1,0,0,1,91.57,380Z" transform="translate(-39.685 -73.31)" fill="#263238"/>
      <path id="Path_1014" data-name="Path 1014" d="M93.68,353.87a10.5,10.5,0,0,1-1.59,1.75c-1,1-2.5,2.42-4.18,3.88s-3.24,2.75-4.39,3.63a11.439,11.439,0,0,1-2,1.36,12.14,12.14,0,0,1,1.73-1.62l4.3-3.73,4.26-3.77A12.429,12.429,0,0,1,93.68,353.87Z" transform="translate(-39.685 -73.31)" fill="#263238"/>
      <path id="Path_1015" data-name="Path 1015" d="M106.32,364.06a21.114,21.114,0,0,1-1.69-2.35c-1.09-1.6-2.45-3.58-3.95-5.76l-4-5.71A16.811,16.811,0,0,1,95,347.83,16.718,16.718,0,0,1,96.92,350c1.11,1.41,2.59,3.39,4.15,5.63s2.91,4.33,3.84,5.85a14.69,14.69,0,0,1,1.41,2.58Z" transform="translate(-39.685 -73.31)" fill="#263238"/>
      <path id="Path_1016" data-name="Path 1016" d="M99.7,332c.07.11-4.13,2.94-9.38,6.31s-9.57,6-9.64,5.91,4.13-2.93,9.38-6.31S99.63,331.92,99.7,332Z" transform="translate(-39.685 -73.31)" fill="#263238"/>
      <path id="Path_1017" data-name="Path 1017" d="M111.54,344.81a82.424,82.424,0,0,1-6.35-5.87,80.109,80.109,0,0,1-6-6.21,75,75,0,0,1,6.36,5.87,74.874,74.874,0,0,1,5.99,6.21Z" transform="translate(-39.685 -73.31)" fill="#263238"/>
      <path id="Path_1018" data-name="Path 1018" d="M114.52,344.55l3.61-.3a17.81,17.81,0,0,0,7.28-2.23,29,29,0,0,1,3.39-1.7c4.46-1.79,9.43-1.47,14.23-1.71a58.721,58.721,0,0,0,22.63-5.79,2.19,2.19,0,0,0,1-.89c.74-1.35-.63-2.55-1.82-3.28-6.07-3.74-12.25-7.54-19.14-9.39s-14.71-1.55-20.59,2.5c-6.9,4.75-9.41,14.5-10.58,22.79" transform="translate(-43.12 -73.31)" fill="#fd779b"/>
      <path id="Path_1019" data-name="Path 1019" d="M166.73,331.48a2.771,2.771,0,0,1-.61-.28l-1.71-.89c-1.48-.78-3.61-1.93-6.31-3.23a58.858,58.858,0,0,0-9.77-3.76,32.061,32.061,0,0,0-12.66-1,21.67,21.67,0,0,0-11.55,5,25.7,25.7,0,0,0-6,8.44,66.379,66.379,0,0,0-2.61,6.58c-.27.75-.48,1.35-.65,1.81a3.449,3.449,0,0,1-.25.63,4.3,4.3,0,0,1,.16-.66l.56-1.84a59.671,59.671,0,0,1,2.48-6.66,25.6,25.6,0,0,1,6-8.63,21.84,21.84,0,0,1,11.77-5.1,32.169,32.169,0,0,1,12.85,1.07,57.419,57.419,0,0,1,9.8,3.89c2.69,1.33,4.8,2.53,6.25,3.36l1.67,1A3.263,3.263,0,0,1,166.73,331.48Z" transform="translate(-43.122 -73.31)" fill="#263238"/>
      <path id="Path_1020" data-name="Path 1020" d="M158.07,336.14c-.07.11-4.79-2.94-10.53-6.82s-10.34-7.1-10.26-7.21,4.79,2.94,10.53,6.82S158.15,336,158.07,336.14Z" transform="translate(-78.253 -73.31)" fill="#263238"/>
      <path id="Path_1021" data-name="Path 1021" d="M153,321.87a11.441,11.441,0,0,1-3.43.61,12.089,12.089,0,0,1-3.5,0,21.3,21.3,0,0,1,3.46-.36A21.6,21.6,0,0,1,153,321.87Z" transform="translate(-80.682 -73.31)" fill="#263238"/>
      <path id="Path_1022" data-name="Path 1022" d="M132.4,319.18a9,9,0,0,1-1.55,2.41,10.539,10.539,0,0,1-1.95,2.23,8.741,8.741,0,0,1,1.54-2.42A10.22,10.22,0,0,1,132.4,319.18Z" transform="translate(-43.225 -73.31)" fill="#263238"/>
      <path id="Path_1023" data-name="Path 1023" d="M136.63,338.91a11.441,11.441,0,0,1-2.27-1.23c-1.36-.82-3.21-2-5.17-3.46s-3.7-2.78-5-3.77a13.919,13.919,0,0,1-2-1.68,13.623,13.623,0,0,1,2.16,1.41l5,3.65c2,1.42,3.76,2.67,5.07,3.57A18.263,18.263,0,0,1,136.63,338.91Z" transform="translate(-43.061 -73.31)" fill="#263238"/>
      <path id="Path_1024" data-name="Path 1024" d="M119.83,359.87c-3.44-.91-7.54,2.44-8.25,5.92s.6,7,2.13,10.26a52.48,52.48,0,0,0,14.22,18.61,35.16,35.16,0,0,0,21.75,8c-1.46-6.76.38-13.81-.43-20.67a26.89,26.89,0,0,0-23.81-23.58c-2.19-.23-4.73-.58-5.61,1.45" transform="translate(-42.834 -73.31)" fill="#fd779b"/>
      <path id="Path_1025" data-name="Path 1025" d="M149.68,402.67a2.869,2.869,0,0,1-.49-.23,8.516,8.516,0,0,1-1.29-.87,13.23,13.23,0,0,1-3.39-4.54c-.55-1.06-1.16-2.22-1.76-3.5l-1.85-4.09a39.814,39.814,0,0,0-2.28-4.37,33.811,33.811,0,0,0-3.13-4.25c-2.35-2.77-4.88-5.16-7.07-7.45A48.322,48.322,0,0,1,123,366.9a23.459,23.459,0,0,1-2.63-5c-.22-.63-.38-1.13-.46-1.47a1.93,1.93,0,0,1-.11-.53s.24.7.74,1.94a26.46,26.46,0,0,0,2.74,4.9,50.73,50.73,0,0,0,5.43,6.36c2.2,2.26,4.74,4.64,7.12,7.44a32.632,32.632,0,0,1,3.16,4.32,38.894,38.894,0,0,1,2.28,4.43l1.81,4.11c.57,1.27,1.17,2.44,1.7,3.51a13.8,13.8,0,0,0,3.21,4.55C149,402.3,149.71,402.62,149.68,402.67Z" transform="translate(-43.115 -73.31)" fill="#263238"/>
      <path id="Path_1026" data-name="Path 1026" d="M131.9,397.05a9.55,9.55,0,0,1,.31-2.31c.27-1.42.71-3.36,1.31-5.48s1.23-4,1.74-5.36a10.09,10.09,0,0,1,.94-2.13,11.66,11.66,0,0,1-.62,2.24c-.42,1.38-1,3.27-1.6,5.38s-1.09,4-1.44,5.42A12.771,12.771,0,0,1,131.9,397.05Z" transform="translate(-43.352 -73.31)" fill="#263238"/>
      <path id="Path_1027" data-name="Path 1027" d="M149,380.48a15.086,15.086,0,0,1-2.43-.56c-1.48-.39-3.52-.91-5.8-1.43s-4.35-.91-5.86-1.19a14.83,14.83,0,0,1-2.43-.54,12,12,0,0,1,2.49.2c1.52.2,3.62.55,5.9,1.06s4.34,1.1,5.8,1.58a11.732,11.732,0,0,1,2.33.88Z" transform="translate(-43.505 -73.31)" fill="#263238"/>
      <path id="Path_1028" data-name="Path 1028" d="M119.13,385.29a14,14,0,0,1,.38-2.67c.3-1.65.78-3.9,1.42-6.37s1.33-4.67,1.87-6.25a14.5,14.5,0,0,1,1-2.52,15,15,0,0,1-.66,2.62c-.45,1.6-1.08,3.82-1.72,6.27s-1.18,4.7-1.56,6.32a15.449,15.449,0,0,1-.73,2.6Z" transform="translate(-42.847 -73.31)" fill="#263238"/>
      <path id="Path_1029" data-name="Path 1029" d="M141.14,366a96,96,0,0,1-9.59-.77c-5.28-.56-9.55-1.12-9.54-1.25a92.527,92.527,0,0,1,9.59.77C136.88,365.34,141.15,365.9,141.14,366Z" transform="translate(-43.1 -73.31)" fill="#263238"/>
      <path id="Path_1030" data-name="Path 1030" d="M138,418.1c0,.13-15.09.24-33.7.24s-33.71-.11-33.71-.24,15.09-.24,33.71-.24S138,418,138,418.1Z" transform="translate(-39.685 -73.31)" fill="#455a64"/>
      <path id="Path_1031" data-name="Path 1031" d="M127.49,437.52c0,.13-10.17.24-22.71.24s-22.71-.11-22.71-.24,10.17-.24,22.71-.24S127.49,437.38,127.49,437.52Z" transform="translate(-39.685 -73.31)" fill="#455a64"/>
      <path id="Path_1032" data-name="Path 1032" d="M127.1,440.29c0,.14-10,.24-22.31.24s-22.32-.1-22.32-.24,10-.24,22.32-.24S127.1,440.16,127.1,440.29Z" transform="translate(-39.685 -73.31)" fill="#455a64"/>
      <path id="Path_1033" data-name="Path 1033" d="M127.89,435.23c0,.13-10.52.24-23.49.24s-23.49-.11-23.49-.24S91.42,435,104.4,435,127.89,435.1,127.89,435.23Z" transform="translate(-39.685 -73.31)" fill="#455a64"/>
      <rect id="Rectangle_43" data-name="Rectangle 43" width="115.61" height="5.95" transform="translate(233.962 94.23)" fill="#455a64"/>
      <path id="Path_1034" data-name="Path 1034" d="M687.33,107.32a.347.347,0,0,0-.08-.18c-.08-.11-.16-.31-.28-.52a21.994,21.994,0,0,0-1.22-1.91,20.43,20.43,0,0,0-6-5.69,15,15,0,0,0-5.41-2,13.44,13.44,0,0,0-6.57.69,10.67,10.67,0,0,0-5.62,4.6c-1.29,2.26-1.71,4.91-2.47,7.44a13.43,13.43,0,0,1-1.56,3.54,10.93,10.93,0,0,1-2.67,2.63c-1,.74-2.06,1.41-3,2.19a12.761,12.761,0,0,0-2.45,2.65,16.2,16.2,0,0,0-2.5,6.12,22.054,22.054,0,0,0-.34,5.75,43.808,43.808,0,0,0,1.47,8.17c.25.95.46,1.68.61,2.18a6.22,6.22,0,0,0,.24.75,4.642,4.642,0,0,0-.15-.77c-.13-.54-.31-1.28-.52-2.2a47.364,47.364,0,0,1-1.33-8.15,21.907,21.907,0,0,1,.39-5.66,16,16,0,0,1,2.48-5.95,12.41,12.41,0,0,1,2.37-2.55c.93-.76,2-1.42,3-2.17a11,11,0,0,0,2.78-2.74,13.691,13.691,0,0,0,1.63-3.66c.77-2.58,1.18-5.19,2.42-7.34a10.26,10.26,0,0,1,5.38-4.44,13.1,13.1,0,0,1,6.37-.7,14.33,14.33,0,0,1,5.29,1.89,20.829,20.829,0,0,1,6.05,5.52c.59.78,1,1.41,1.28,1.85a6.766,6.766,0,0,0,.41.66Z" transform="translate(-359.048 -73.31)" fill="#e0e0e0"/>
      <path id="Path_1035" data-name="Path 1035" d="M654.25,116.6c.69-.65,1-.2,2,0a5.92,5.92,0,0,1,2.53,1.26A10.67,10.67,0,0,1,662.2,129a8.32,8.32,0,0,1-7.64-12.5" transform="translate(-359.048 -73.31)" fill="#e0e0e0"/>
      <path id="Path_1036" data-name="Path 1036" d="M682.87,103.57c.35-.89.85-.62,1.77-.87a5.73,5.73,0,0,1,2.82,0,10.65,10.65,0,0,1,7.93,8.61,8.32,8.32,0,0,1-12.27-8" transform="translate(-359.048 -73.31)" fill="#e0e0e0"/>
      <path id="Path_1037" data-name="Path 1037" d="M647.94,134.23A9.6,9.6,0,0,1,663,135a11.94,11.94,0,0,1-7.83,3.08,12.11,12.11,0,0,1-7.88-3.19" transform="translate(-359.048 -73.31)" fill="#e0e0e0"/>
      <path id="Path_1038" data-name="Path 1038" d="M650.29,121.06a9.73,9.73,0,0,1-9.82-11.6A8.72,8.72,0,0,1,650.61,121" transform="translate(-359.048 -73.31)" fill="#e0e0e0"/>
      <path id="Path_1039" data-name="Path 1039" d="M660.37,105.58a9.73,9.73,0,0,1-13.13-7.68,8.73,8.73,0,0,1,13.4,7.49" transform="translate(-359.048 -73.31)" fill="#e0e0e0"/>
      <path id="Path_1040" data-name="Path 1040" d="M663.74,100.53a9.72,9.72,0,0,1,13.12,7.68,8.73,8.73,0,0,1-13.39-7.48" transform="translate(-359.048 -73.31)" fill="#e0e0e0"/>
      <path id="Path_1041" data-name="Path 1041" d="M667.77,97.81a9.73,9.73,0,0,1-5.18-14.3,8.72,8.72,0,0,1,5.51,14.32" transform="translate(-359.048 -73.31)" fill="#e0e0e0"/>
      <path id="Path_1042" data-name="Path 1042" d="M678.08,98.3a9.73,9.73,0,0,1,7.95-13,8.74,8.74,0,0,1-7.75,13.25" transform="translate(-359.048 -73.31)" fill="#e0e0e0"/>
      <path id="Path_1043" data-name="Path 1043" d="M636.5,168.04l-5.5-34.5,42.12.51-4.15,33.54" transform="translate(-359.048 -73.31)" fill="#263238"/>
      <path id="Path_1044" data-name="Path 1044" d="M654.67,127.24a7.21,7.21,0,0,0,7,.59,7.58,7.58,0,0,0,3.83-6,8.09,8.09,0,0,0-11.62,4.84" transform="translate(-359.048 -73.31)" fill="#fd779b"/>
      <path id="Path_1045" data-name="Path 1045" d="M673.93,134.67a7.21,7.21,0,0,0,7,.59,7.59,7.59,0,0,0,3.82-6,8.09,8.09,0,0,0-11.62,4.84" transform="translate(-359.048 -73.31)" fill="#fd779b"/>
      <path id="Path_1046" data-name="Path 1046" d="M663.12,118.07a7.17,7.17,0,0,0,5.51,4.34,7.58,7.58,0,0,0,6.52-2.94,8.59,8.59,0,0,0-5.63-4.14,8.47,8.47,0,0,0-6.73,1.79" transform="translate(-359.048 -73.31)" fill="#fd779b"/>
      <path id="Path_1047" data-name="Path 1047" d="M670.15,126.67a7.17,7.17,0,0,0-6.29,3.11,7.57,7.57,0,0,0-.15,7.15,8.58,8.58,0,0,0,6.16-3.3,8.47,8.47,0,0,0,1.28-6.85" transform="translate(-359.048 -73.31)" fill="#fd779b"/>
      <path id="Path_1048" data-name="Path 1048" d="M676.93,140.25a7.16,7.16,0,0,0,.17,7,7.56,7.56,0,0,0,6.42,3.15,8.57,8.57,0,0,0-.4-7c-1.11-2-3.1-3-5.6-3.58" transform="translate(-359.048 -73.31)" fill="#fd779b"/>
      <path id="Path_1049" data-name="Path 1049" d="M688.13,141.85a5,5,0,0,0-1.67-1.06,7.07,7.07,0,0,0-2.28-.4,25.741,25.741,0,0,0-3.11.18,9,9,0,0,1-3.83-.33,5.88,5.88,0,0,1-3.16-3.05,17.708,17.708,0,0,1-1.36-4.66,13.48,13.48,0,0,0-1.62-4.78,16.749,16.749,0,0,0-3.56-3.62,17.43,17.43,0,0,1-3.41-3.46,11.38,11.38,0,0,1-1.7-7.93,11.1,11.1,0,0,1,2.07-5.1,8,8,0,0,1,1-1.11,2,2,0,0,1,.4-.34,2.8,2.8,0,0,1-.33.4,10.762,10.762,0,0,0-.94,1.16,11.339,11.339,0,0,0-1.89,5,11.14,11.14,0,0,0,1.73,7.65,17.069,17.069,0,0,0,3.34,3.35,17.248,17.248,0,0,1,3.66,3.72,13.611,13.611,0,0,1,1.68,4.94,17.28,17.28,0,0,0,1.3,4.56,5.49,5.49,0,0,0,2.91,2.88,9.06,9.06,0,0,0,3.68.37,24.92,24.92,0,0,1,3.14-.12,7.29,7.29,0,0,1,2.34.49,3.839,3.839,0,0,1,1.26.82,2.5,2.5,0,0,1,.26.29A.34.34,0,0,1,688.13,141.85Z" transform="translate(-359.048 -73.31)" fill="#fd779b"/>
      <path id="Path_1050" data-name="Path 1050" d="M688.13,141.85a5,5,0,0,0-1.67-1.06,7.07,7.07,0,0,0-2.28-.4,25.741,25.741,0,0,0-3.11.18,9,9,0,0,1-3.83-.33,5.88,5.88,0,0,1-3.16-3.05,17.708,17.708,0,0,1-1.36-4.66,13.48,13.48,0,0,0-1.62-4.78,16.749,16.749,0,0,0-3.56-3.62,17.43,17.43,0,0,1-3.41-3.46,11.38,11.38,0,0,1-1.7-7.93,11.1,11.1,0,0,1,2.07-5.1,8,8,0,0,1,1-1.11,2,2,0,0,1,.4-.34,2.8,2.8,0,0,1-.33.4,10.762,10.762,0,0,0-.94,1.16,11.339,11.339,0,0,0-1.89,5,11.14,11.14,0,0,0,1.73,7.65,17.069,17.069,0,0,0,3.34,3.35,17.248,17.248,0,0,1,3.66,3.72,13.611,13.611,0,0,1,1.68,4.94,17.28,17.28,0,0,0,1.3,4.56,5.49,5.49,0,0,0,2.91,2.88,9.06,9.06,0,0,0,3.68.37,24.92,24.92,0,0,1,3.14-.12,7.29,7.29,0,0,1,2.34.49,3.839,3.839,0,0,1,1.26.82,2.5,2.5,0,0,1,.26.29A.34.34,0,0,1,688.13,141.85Z" transform="translate(-359.048 -73.31)" fill="#fd779b"/>
      <path id="Path_1051" data-name="Path 1051" d="M607.72,145.38a10.66,10.66,0,0,0-14.42-10.5,17.78,17.78,0,0,0,14,10.37" transform="translate(-319.639 -73.31)" fill="#fd779b"/>
      <path id="Path_1052" data-name="Path 1052" d="M604.94,146.85c-2.06,2.26-1.93,5.9-.46,8.58s4,4.59,6.56,6.29a13.84,13.84,0,0,0-6-15.69" transform="translate(-355.147 -73.31)" fill="#fd779b"/>
      <path id="Path_1053" data-name="Path 1053" d="M614.92,136.24a12.3,12.3,0,0,0,14,11c-.8-3.31-2.13-6.65-4.68-8.9s-6.59-3.08-9.43-1.19" transform="translate(-355.789 -73.31)" fill="#fd779b"/>
      <path id="Path_1054" data-name="Path 1054" d="M614.85,132.86c-.52-3-3.49-5.19-6.53-5.48a12.58,12.58,0,0,0-8.5,2.86,11,11,0,0,0,15.06,1.49" transform="translate(-355.205 -73.31)" fill="#fd779b"/>
      <path id="Path_1055" data-name="Path 1055" d="M599.16,158.5c-2.89,2.47-3.62,6.87-2.42,10.48s4,6.48,7.18,8.59a22.829,22.829,0,0,0,1.34-11.13c-.64-3.73-2.88-7.32-6.34-8.84" transform="translate(-354.888 -73.31)" fill="#fd779b"/>
      <path id="Path_1056" data-name="Path 1056" d="M614.38,124.41a8.89,8.89,0,0,1,14.08-.82,7.68,7.68,0,0,1-13.86.35" transform="translate(-355.771 -73.31)" fill="#fd779b"/>
      <path id="Path_1057" data-name="Path 1057" d="M617.93,115.72a11.57,11.57,0,0,1-14.74-9,26.57,26.57,0,0,1,7,.11,11.28,11.28,0,0,1,6.16,3,6.12,6.12,0,0,1,1.62,5.9" transform="translate(-355.341 -73.31)" fill="#fd779b"/>
      <path id="Path_1058" data-name="Path 1058" d="M624.61,113.47a9.43,9.43,0,0,1-.06-14.57,19.81,19.81,0,0,1,4.13,8.8,7.51,7.51,0,0,1,0,3.65,3.37,3.37,0,0,1-2.55,2.38" transform="translate(-355.847 -73.31)" fill="#fd779b"/>
      <g id="Group_133" data-name="Group 133" transform="translate(273.661 60.88)" opacity="0.4">
        <path id="Path_1059" data-name="Path 1059" d="M607.72,145.38a10.66,10.66,0,0,0-14.42-10.5,17.78,17.78,0,0,0,14,10.37" transform="translate(-593.3 -134.19)"/>
      </g>
      <g id="Group_134" data-name="Group 134" transform="translate(248.236 72.72)" opacity="0.4">
        <path id="Path_1060" data-name="Path 1060" d="M604.94,146.85c-2.06,2.26-1.93,5.9-.46,8.58s4,4.59,6.56,6.29a13.84,13.84,0,0,0-6-15.69" transform="translate(-603.383 -146.03)"/>
      </g>
      <g id="Group_135" data-name="Group 135" transform="translate(259.021 62.792)" opacity="0.4">
        <path id="Path_1061" data-name="Path 1061" d="M614.92,136.24a12.3,12.3,0,0,0,14,11c-.8-3.31-2.13-6.65-4.68-8.9s-6.59-3.08-9.43-1.19" transform="translate(-614.81 -136.102)"/>
      </g>
      <g id="Group_136" data-name="Group 136" transform="translate(244.615 54.06)" opacity="0.4">
        <path id="Path_1062" data-name="Path 1062" d="M614.85,132.86c-.52-3-3.49-5.19-6.53-5.48a12.58,12.58,0,0,0-8.5,2.86,11,11,0,0,0,15.06,1.49" transform="translate(-599.82 -127.37)"/>
      </g>
      <g id="Group_137" data-name="Group 137" transform="translate(241.3 84.29)" opacity="0.4">
        <path id="Path_1063" data-name="Path 1063" d="M599.16,158.5c-2.89,2.47-3.62,6.87-2.42,10.48s4,6.48,7.18,8.59a22.829,22.829,0,0,0,1.34-11.13c-.64-3.73-2.88-7.32-6.34-8.84" transform="translate(-596.187 -157.6)"/>
      </g>
      <g id="Group_138" data-name="Group 138" transform="translate(258.609 47.204)" opacity="0.4">
        <path id="Path_1064" data-name="Path 1064" d="M614.38,124.41a8.89,8.89,0,0,1,14.08-.82,7.68,7.68,0,0,1-13.86.35" transform="translate(-614.38 -120.514)"/>
      </g>
      <g id="Group_139" data-name="Group 139" transform="translate(247.849 33.23)" opacity="0.4">
        <path id="Path_1065" data-name="Path 1065" d="M617.93,115.72a11.57,11.57,0,0,1-14.74-9,26.57,26.57,0,0,1,7,.11,11.28,11.28,0,0,1,6.16,3,6.12,6.12,0,0,1,1.62,5.9" transform="translate(-603.19 -106.54)"/>
      </g>
      <g id="Group_140" data-name="Group 140" transform="translate(265.291 25.59)" opacity="0.4">
        <path id="Path_1066" data-name="Path 1066" d="M624.61,113.47a9.43,9.43,0,0,1-.06-14.57,19.81,19.81,0,0,1,4.13,8.8,7.51,7.51,0,0,1,0,3.65,3.37,3.37,0,0,1-2.55,2.38" transform="translate(-621.138 -98.9)"/>
      </g>
      <path id="Path_1067" data-name="Path 1067" d="M636.16,134.65a.73.73,0,0,1,0-.24v-.69c0-.61.1-1.51.12-2.67a23.74,23.74,0,0,0-1.57-9.57,14.59,14.59,0,0,0-3.84-5.42,10.34,10.34,0,0,0-7-2.57,8.66,8.66,0,0,0-3.95,1,7.81,7.81,0,0,0-3.05,2.91,15.62,15.62,0,0,0-1.77,8.8c.11,3.14.55,6.24.21,9.26a14.261,14.261,0,0,1-1.16,4.3,8.89,8.89,0,0,1-2.59,3.39A13.15,13.15,0,0,1,608,145a18.209,18.209,0,0,0-3.4,1.54,12.37,12.37,0,0,0-4.47,4.87,11.92,11.92,0,0,0-1.29,5.32,12.509,12.509,0,0,0,.68,4.12,15.744,15.744,0,0,0,1.59,3.2,1.829,1.829,0,0,1-.15-.18,5.912,5.912,0,0,1-.41-.57,11.059,11.059,0,0,1-1.2-2.39,12.39,12.39,0,0,1-.76-4.18,11.88,11.88,0,0,1,1.26-5.47,12.559,12.559,0,0,1,4.55-5c2.08-1.39,4.83-1.73,7-3.4s3.24-4.51,3.56-7.41-.11-6-.22-9.19a16,16,0,0,1,1.85-9,8.28,8.28,0,0,1,3.23-3.07,9.14,9.14,0,0,1,4.14-1,10.58,10.58,0,0,1,7.26,2.71,14.79,14.79,0,0,1,3.9,5.58,19.84,19.84,0,0,1,1.33,5.46,30.371,30.371,0,0,1,.12,4.24,22.75,22.75,0,0,1-.2,2.66l-.09.69a.681.681,0,0,1-.12.12Z" transform="translate(-355.887 -73.31)" fill="#fd779b"/>
      <g id="Group_141" data-name="Group 141" transform="translate(242.702 39.878)" opacity="0.4">
        <path id="Path_1068" data-name="Path 1068" d="M636.16,134.65a.73.73,0,0,1,0-.24v-.69c0-.61.1-1.51.12-2.67a23.74,23.74,0,0,0-1.57-9.57,14.59,14.59,0,0,0-3.84-5.42,10.34,10.34,0,0,0-7-2.57,8.66,8.66,0,0,0-3.95,1,7.81,7.81,0,0,0-3.05,2.91,15.62,15.62,0,0,0-1.77,8.8c.11,3.14.55,6.24.21,9.26a14.261,14.261,0,0,1-1.16,4.3,8.89,8.89,0,0,1-2.59,3.39A13.15,13.15,0,0,1,608,145a18.209,18.209,0,0,0-3.4,1.54,12.37,12.37,0,0,0-4.47,4.87,11.92,11.92,0,0,0-1.29,5.32,12.509,12.509,0,0,0,.68,4.12,15.744,15.744,0,0,0,1.59,3.2,1.829,1.829,0,0,1-.15-.18,5.912,5.912,0,0,1-.41-.57,11.059,11.059,0,0,1-1.2-2.39,12.39,12.39,0,0,1-.76-4.18,11.88,11.88,0,0,1,1.26-5.47,12.559,12.559,0,0,1,4.55-5c2.08-1.39,4.83-1.73,7-3.4s3.24-4.51,3.56-7.41-.11-6-.22-9.19a16,16,0,0,1,1.85-9,8.28,8.28,0,0,1,3.23-3.07,9.14,9.14,0,0,1,4.14-1,10.58,10.58,0,0,1,7.26,2.71,14.79,14.79,0,0,1,3.9,5.58,19.84,19.84,0,0,1,1.33,5.46,30.371,30.371,0,0,1,.12,4.24,22.75,22.75,0,0,1-.2,2.66l-.09.69a.681.681,0,0,1-.12.12Z" transform="translate(-598.589 -113.188)"/>
      </g>
      <path id="Path_1069" data-name="Path 1069" d="M697.49,127.12a8.682,8.682,0,0,0,.63-3.09,7.721,7.721,0,0,0-.82-3.56,7.59,7.59,0,0,0-6.14-4,8.89,8.89,0,0,0-3,.36c-2.06.54-4.1,1.71-6.54,2.2a7.78,7.78,0,0,1-3.8-.1,5.66,5.66,0,0,1-3.09-2.47c-1.47-2.28-1.89-5.14-3.66-7.24a7.241,7.241,0,0,0-3.33-2.18,9.219,9.219,0,0,0-3.89-.39,10,10,0,0,0-6.47,3.36,15.3,15.3,0,0,0-3.2,5.94,17.9,17.9,0,0,0-.72,5.88,64.32,64.32,0,0,0,1.09,8.61c.17,1,.31,1.76.4,2.33a4.2,4.2,0,0,0,.09.61.472.472,0,0,1,0,.21.632.632,0,0,1-.06-.2,2.955,2.955,0,0,0-.14-.6c-.12-.57-.28-1.34-.48-2.32a56.934,56.934,0,0,1-1.24-8.63,18,18,0,0,1,.67-6,15.561,15.561,0,0,1,3.26-6.11,11.7,11.7,0,0,1,3-2.37,9.941,9.941,0,0,1,3.77-1.16,9.8,9.8,0,0,1,4.08.41,7.6,7.6,0,0,1,3.53,2.31c1.88,2.25,2.28,5.14,3.69,7.3a5.3,5.3,0,0,0,2.85,2.3,7.28,7.28,0,0,0,3.59.09c2.35-.45,4.4-1.6,6.52-2.15a9.3,9.3,0,0,1,3.16-.34,7.87,7.87,0,0,1,2.82.79,7.64,7.64,0,0,1,3.52,3.5,7.73,7.73,0,0,1,.77,3.68,7.121,7.121,0,0,1-.46,2.33A3.333,3.333,0,0,1,697.49,127.12Z" transform="translate(-359.048 -73.31)" fill="#fd779b"/>
      <path id="Path_1070" data-name="Path 1070" d="M672.86,111.83a8.15,8.15,0,0,0,7.51.5,7.57,7.57,0,0,0,3.82-6,8.09,8.09,0,0,0-11.62,4.83" transform="translate(-359.048 -73.31)" fill="#fd779b"/>
      <path id="Path_1071" data-name="Path 1071" d="M680.84,119.08a8.21,8.21,0,0,0,3.49,6.67,7.57,7.57,0,0,0,7.15.12,8.1,8.1,0,0,0-10.18-7.41" transform="translate(-359.048 -73.31)" fill="#fd779b"/>
      <path id="Path_1072" data-name="Path 1072" d="M694.7,117.47a8.17,8.17,0,0,0,7.52-.31,7.57,7.57,0,0,0,3.16-6.41,8.59,8.59,0,0,0-7,.38,8.5,8.5,0,0,0-4.06,5.66" transform="translate(-359.048 -73.31)" fill="#fd779b"/>
      <path id="Path_1073" data-name="Path 1073" d="M661.22,107c-2-1.74-3.37-4.8-3-7.09a7.56,7.56,0,0,1,4.64-5.44,8.6,8.6,0,0,1,2.41,6.56,8.51,8.51,0,0,1-3.59,6" transform="translate(-359.048 -73.31)" fill="#fd779b"/>
      <path id="Path_1074" data-name="Path 1074" d="M607.14,97.12a.347.347,0,0,1,.08-.18c.08-.11.16-.31.28-.52a22,22,0,0,1,1.22-1.91,20.43,20.43,0,0,1,6-5.69,15,15,0,0,1,5.41-2,13.44,13.44,0,0,1,6.57.69,10.67,10.67,0,0,1,5.62,4.6c1.29,2.26,1.71,4.91,2.47,7.44a13.43,13.43,0,0,0,1.56,3.54,10.928,10.928,0,0,0,2.67,2.63c1,.74,2.06,1.41,3,2.19a12.76,12.76,0,0,1,2.45,2.65,16.2,16.2,0,0,1,2.5,6.12,21.64,21.64,0,0,1,.34,5.75,43.808,43.808,0,0,1-1.47,8.17c-.25.95-.46,1.68-.61,2.18a6.209,6.209,0,0,1-.24.75,4.655,4.655,0,0,1,.15-.77c.13-.54.31-1.28.52-2.2a47.37,47.37,0,0,0,1.33-8.15,21.91,21.91,0,0,0-.39-5.66,16,16,0,0,0-2.48-6,12.412,12.412,0,0,0-2.37-2.55c-.93-.76-2-1.42-3-2.17a11,11,0,0,1-2.78-2.74,13.691,13.691,0,0,1-1.63-3.66c-.77-2.58-1.18-5.19-2.42-7.34a10.2,10.2,0,0,0-5.38-4.43,13,13,0,0,0-6.37-.71,14.33,14.33,0,0,0-5.29,1.89,21,21,0,0,0-6,5.52c-.59.78-1,1.41-1.29,1.85A5.918,5.918,0,0,1,607.14,97.12Z" transform="translate(-356.342 -73.31)" fill="#fd779b"/>
      <path id="Path_1075" data-name="Path 1075" d="M640.22,106.4c-.69-.65-1-.2-2,0a5.92,5.92,0,0,0-2.53,1.26,10.67,10.67,0,0,0-3.45,11.19,8.32,8.32,0,0,0,7.64-12.49" transform="translate(-356.322 -73.31)" fill="#fd779b"/>
      <path id="Path_1076" data-name="Path 1076" d="M611.6,93.37c-.35-.89-.85-.62-1.77-.87a5.73,5.73,0,0,0-2.82,0,10.65,10.65,0,0,0-7.93,8.61,8.32,8.32,0,0,0,12.27-8" transform="translate(-355.099 -73.31)" fill="#fd779b"/>
      <path id="Path_1077" data-name="Path 1077" d="M646.53,124a9.6,9.6,0,0,0-15.09.74,11.94,11.94,0,0,0,7.83,3.08,12.11,12.11,0,0,0,7.88-3.19" transform="translate(-356.523 -73.31)" fill="#fd779b"/>
      <path id="Path_1078" data-name="Path 1078" d="M644.18,110.86A9.72,9.72,0,0,0,654,99.26a8.72,8.72,0,0,0-10.14,11.51" transform="translate(-359.048 -73.31)" fill="#fd779b"/>
      <path id="Path_1079" data-name="Path 1079" d="M634.1,95.38a9.73,9.73,0,0,0,13.13-7.68,8.73,8.73,0,0,0-13.4,7.49" transform="translate(-356.543 -73.31)" fill="#fd779b"/>
      <path id="Path_1080" data-name="Path 1080" d="M630.73,90.33A9.72,9.72,0,0,0,617.61,98,8.73,8.73,0,0,0,631,90.53" transform="translate(-355.881 -73.31)" fill="#fd779b"/>
      <path id="Path_1081" data-name="Path 1081" d="M626.7,87.61a9.73,9.73,0,0,0,5.18-14.3,8.72,8.72,0,0,0-5.51,14.32" transform="translate(-356.013 -73.31)" fill="#fd779b"/>
      <path id="Path_1082" data-name="Path 1082" d="M616.39,88.1a9.73,9.73,0,0,0-7.95-13,8.74,8.74,0,0,0,7.75,13.25" transform="translate(-355.347 -73.31)" fill="#fd779b"/>
      <path id="Path_1083" data-name="Path 1083" d="M630.46,164.04l3.23,4h39.64l2.7-4Z" transform="translate(-359.048 -73.31)" fill="#263238"/>
      <path id="Path_1084" data-name="Path 1084" d="M675.16,164c0,.13-9.74.23-21.76.23s-21.75-.1-21.75-.23,9.74-.23,21.75-.23S675.16,163.88,675.16,164Z" transform="translate(-359.048 -73.31)" fill="#455a64"/>
      <path id="Path_1085" data-name="Path 1085" d="M670.7,149a1.411,1.411,0,0,1-.25.33,10.347,10.347,0,0,1-.8.85,14.929,14.929,0,0,1-3.54,2.45,15.66,15.66,0,0,1-6.19,1.59,14.609,14.609,0,0,1-3.79-.32,22.1,22.1,0,0,1-3.86-1.28,76.726,76.726,0,0,0-7.14-3,12.23,12.23,0,0,0-6.16-.6,8.11,8.11,0,0,0-3.79,1.76c-.75.66-1,1.15-1.08,1.12a1.793,1.793,0,0,1,.2-.36,6.486,6.486,0,0,1,.76-.89,7.8,7.8,0,0,1,3.84-1.94,12.31,12.31,0,0,1,6.36.51c2.32.71,4.67,2,7.19,3a21.83,21.83,0,0,0,3.78,1.27,15,15,0,0,0,3.67.33,15.66,15.66,0,0,0,6.07-1.46A18.55,18.55,0,0,0,670.7,149Z" transform="translate(-359.048 -73.31)" fill="#455a64"/>
      <path id="Path_1086" data-name="Path 1086" d="M671.09,145.86a2.9,2.9,0,0,1-.27.3,8.284,8.284,0,0,1-.86.79,16.523,16.523,0,0,1-3.67,2.28,17.179,17.179,0,0,1-6.23,1.49,16.51,16.51,0,0,1-3.8-.26,25.3,25.3,0,0,1-3.92-1.1c-2.61-1-5-2-7.31-2.69a14.709,14.709,0,0,0-6.22-.56,9.27,9.27,0,0,0-3.93,1.5,11.442,11.442,0,0,0-1.21,1,1.28,1.28,0,0,1,.24-.33,7.518,7.518,0,0,1,.87-.8,9,9,0,0,1,4-1.68,14.5,14.5,0,0,1,6.38.48c2.34.63,4.77,1.72,7.35,2.66a28,28,0,0,0,3.85,1.1,16.82,16.82,0,0,0,3.7.27,17.77,17.77,0,0,0,6.12-1.36,21.57,21.57,0,0,0,4.91-3.09Z" transform="translate(-359.048 -73.31)" fill="#455a64"/>
      <rect id="Rectangle_44" data-name="Rectangle 44" width="3.47" height="9.68" transform="translate(268.479 98.62)" fill="#455a64"/>
      <rect id="Rectangle_45" data-name="Rectangle 45" width="3.47" height="9.68" transform="translate(314.792 98.62)" fill="#455a64"/>
    </g>
  </g>
</svg>
