<svg width="200" height="200" viewBox="0 0 200 200" fill="none" xmlns="http://www.w3.org/2000/svg">
<path d="M100 200C155.228 200 200 155.228 200 100C200 44.7715 155.228 0 100 0C44.7715 0 0 44.7715 0 100C0 155.228 44.7715 200 100 200Z" fill="#324055"/>
<path d="M50 97.8789V97.8789C74.6289 97.8789 94.5946 117.845 94.5946 142.473V142.473H50V97.8789Z" fill="#BDCECF"/>
<path d="M105.405 142.473V142.473C105.405 117.844 125.371 97.8781 150 97.8781V97.8781V142.473H105.405Z" fill="#BDCECF"/>
<rect x="50" y="57" width="33.4459" height="33.4459" rx="16.723" fill="#F0C4C4"/>
<rect x="116.554" y="57" width="33.4459" height="33.4459" rx="16.723" fill="#F0C4C4"/>
</svg>
