<svg width="200" height="200" viewBox="0 0 200 200" fill="none" xmlns="http://www.w3.org/2000/svg">
<path d="M100 200C155.228 200 200 155.228 200 100C200 44.7715 155.228 0 100 0C44.7715 0 0 44.7715 0 100C0 155.228 44.7715 200 100 200Z" fill="#324055"/>
<rect x="43" y="143" width="86" height="115" rx="20" transform="rotate(-90 43 143)" fill="#F9F7F2"/>
<path d="M118.729 95.7538C121.876 97.7102 121.876 102.29 118.729 104.246L95.6104 118.62C92.2798 120.691 87.9704 118.296 87.9704 114.374V85.6262C87.9704 81.7044 92.2798 79.3093 95.6104 81.38L118.729 95.7538Z" fill="#F0C4C4"/>
</svg>
