<svg width="45" height="41" viewBox="0 0 45 41" fill="none" xmlns="http://www.w3.org/2000/svg">
<path d="M42.9417 10.194C42.451 8.34633 41.0052 6.89117 39.1695 6.39734C35.8421 5.5 22.4999 5.5 22.4999 5.5C22.4999 5.5 9.15768 5.5 5.83025 6.39734C3.99455 6.89125 2.54877 8.34633 2.05807 10.194C1.1665 13.543 1.1665 20.5303 1.1665 20.5303C1.1665 20.5303 1.1665 27.5177 2.05807 30.8666C2.54877 32.7143 3.99455 34.1088 5.83025 34.6027C9.15768 35.5 22.4999 35.5 22.4999 35.5C22.4999 35.5 35.842 35.5 39.1695 34.6027C41.0052 34.1088 42.451 32.7143 42.9417 30.8666C43.8332 27.5177 43.8332 20.5303 43.8332 20.5303C43.8332 20.5303 43.8332 13.543 42.9417 10.194ZM18.1362 26.8743V14.1863L29.2877 20.5305L18.1362 26.8743Z" fill="#324055"/>
</svg>
