<svg width="23" height="20" viewBox="0 0 23 20" fill="none" xmlns="http://www.w3.org/2000/svg">
<path d="M21.4716 4.84699C21.2262 3.92316 20.5033 3.19559 19.5855 2.94867C17.9218 2.5 11.2507 2.5 11.2507 2.5C11.2507 2.5 4.57957 2.5 2.91586 2.94867C1.99801 3.19563 1.27512 3.92316 1.02977 4.84699C0.583984 6.52148 0.583984 10.0152 0.583984 10.0152C0.583984 10.0152 0.583984 13.5088 1.02977 15.1833C1.27512 16.1071 1.99801 16.8044 2.91586 17.0513C4.57957 17.5 11.2507 17.5 11.2507 17.5C11.2507 17.5 17.9218 17.5 19.5855 17.0513C20.5033 16.8044 21.2262 16.1071 21.4716 15.1833C21.9173 13.5088 21.9173 10.0152 21.9173 10.0152C21.9173 10.0152 21.9173 6.52148 21.4716 4.84699ZM9.06883 13.1871V6.84316L14.6446 10.0152L9.06883 13.1871Z" fill="#F9F7F2"/>
</svg>
