<svg width="22" height="16" viewBox="0 0 22 16" fill="none" xmlns="http://www.w3.org/2000/svg">
<path d="M21.4716 2.84699C21.2262 1.92316 20.5033 1.19559 19.5855 0.948672C17.9218 0.5 11.2507 0.5 11.2507 0.5C11.2507 0.5 4.57957 0.5 2.91586 0.948672C1.99801 1.19563 1.27512 1.92316 1.02977 2.84699C0.583984 4.52148 0.583984 8.01516 0.583984 8.01516C0.583984 8.01516 0.583984 11.5088 1.02977 13.1833C1.27512 14.1071 1.99801 14.8044 2.91586 15.0513C4.57957 15.5 11.2507 15.5 11.2507 15.5C11.2507 15.5 17.9218 15.5 19.5855 15.0513C20.5033 14.8044 21.2262 14.1071 21.4716 13.1833C21.9173 11.5088 21.9173 8.01516 21.9173 8.01516C21.9173 8.01516 21.9173 4.52148 21.4716 2.84699ZM9.06883 11.1871V4.84316L14.6446 8.01523L9.06883 11.1871Z" fill="#F9F7F2"/>
</svg>
