<svg width="44" height="31" viewBox="0 0 44 31" fill="none" xmlns="http://www.w3.org/2000/svg">
<path d="M42.3416 4.79408C41.8509 2.94643 40.4051 1.49127 38.5694 0.997441C35.242 0.100098 21.8998 0.100098 21.8998 0.100098C21.8998 0.100098 8.55758 0.100098 5.23016 0.997441C3.39445 1.49135 1.94867 2.94643 1.45797 4.79408C0.566406 8.14307 0.566406 15.1304 0.566406 15.1304C0.566406 15.1304 0.566406 22.1178 1.45797 25.4667C1.94867 27.3144 3.39445 28.7089 5.23016 29.2028C8.55758 30.1001 21.8998 30.1001 21.8998 30.1001C21.8998 30.1001 35.242 30.1001 38.5694 29.2028C40.4051 28.7089 41.8509 27.3144 42.3416 25.4667C43.2331 22.1178 43.2331 15.1304 43.2331 15.1304C43.2331 15.1304 43.2331 8.14307 42.3416 4.79408ZM17.5361 21.4744V8.78643L28.6876 15.1306L17.5361 21.4744Z" fill="#324055"/>
</svg>
